G75*
G70*
%OFA0B0*%
%FSLAX24Y24*%
%IPPOS*%
%LPD*%
%AMOC8*
5,1,8,0,0,1.08239X$1,22.5*
%
%ADD10R,0.0870X0.0240*%
%ADD11R,0.0197X0.0150*%
%ADD12R,0.0197X0.0098*%
%ADD13R,0.0472X0.0315*%
D10*
X006031Y004736D03*
X006031Y005236D03*
X006031Y005736D03*
X006031Y006236D03*
X006031Y006736D03*
X006031Y007236D03*
X006031Y007736D03*
X006031Y008236D03*
X006031Y008736D03*
X006031Y009236D03*
X009681Y009236D03*
X009681Y008736D03*
X009681Y008236D03*
X009681Y007736D03*
X009681Y007236D03*
X009681Y006736D03*
X009681Y006236D03*
X009681Y005736D03*
X009681Y005236D03*
X009671Y004736D03*
D11*
X010858Y006399D03*
X011448Y006399D03*
X011448Y007777D03*
X010858Y007777D03*
D12*
X010858Y007580D03*
X010858Y007383D03*
X010858Y007187D03*
X010858Y006990D03*
X010858Y006793D03*
X010858Y006596D03*
X011448Y006596D03*
X011448Y006793D03*
X011448Y006990D03*
X011448Y007187D03*
X011448Y007383D03*
X011448Y007580D03*
D13*
X008356Y009881D03*
X008356Y010590D03*
X007356Y010590D03*
X007356Y009881D03*
X004356Y007340D03*
X004356Y006631D03*
M02*
