G75*
G70*
%OFA0B0*%
%FSLAX24Y24*%
%IPPOS*%
%LPD*%
%AMOC8*
5,1,8,0,0,1.08239X$1,22.5*
%
%ADD10C,0.0000*%
D10*
X001553Y000683D02*
X001553Y013281D01*
X014151Y013281D01*
X014151Y000683D01*
X001553Y000683D01*
X012931Y010637D02*
X012933Y010663D01*
X012939Y010689D01*
X012948Y010713D01*
X012961Y010736D01*
X012978Y010756D01*
X012997Y010774D01*
X013019Y010789D01*
X013042Y010800D01*
X013067Y010808D01*
X013093Y010812D01*
X013119Y010812D01*
X013145Y010808D01*
X013170Y010800D01*
X013194Y010789D01*
X013215Y010774D01*
X013234Y010756D01*
X013251Y010736D01*
X013264Y010713D01*
X013273Y010689D01*
X013279Y010663D01*
X013281Y010637D01*
X013279Y010611D01*
X013273Y010585D01*
X013264Y010561D01*
X013251Y010538D01*
X013234Y010518D01*
X013215Y010500D01*
X013193Y010485D01*
X013170Y010474D01*
X013145Y010466D01*
X013119Y010462D01*
X013093Y010462D01*
X013067Y010466D01*
X013042Y010474D01*
X013018Y010485D01*
X012997Y010500D01*
X012978Y010518D01*
X012961Y010538D01*
X012948Y010561D01*
X012939Y010585D01*
X012933Y010611D01*
X012931Y010637D01*
X012531Y012637D02*
X012533Y012663D01*
X012539Y012689D01*
X012548Y012713D01*
X012561Y012736D01*
X012578Y012756D01*
X012597Y012774D01*
X012619Y012789D01*
X012642Y012800D01*
X012667Y012808D01*
X012693Y012812D01*
X012719Y012812D01*
X012745Y012808D01*
X012770Y012800D01*
X012794Y012789D01*
X012815Y012774D01*
X012834Y012756D01*
X012851Y012736D01*
X012864Y012713D01*
X012873Y012689D01*
X012879Y012663D01*
X012881Y012637D01*
X012879Y012611D01*
X012873Y012585D01*
X012864Y012561D01*
X012851Y012538D01*
X012834Y012518D01*
X012815Y012500D01*
X012793Y012485D01*
X012770Y012474D01*
X012745Y012466D01*
X012719Y012462D01*
X012693Y012462D01*
X012667Y012466D01*
X012642Y012474D01*
X012618Y012485D01*
X012597Y012500D01*
X012578Y012518D01*
X012561Y012538D01*
X012548Y012561D01*
X012539Y012585D01*
X012533Y012611D01*
X012531Y012637D01*
X013331Y012637D02*
X013333Y012663D01*
X013339Y012689D01*
X013348Y012713D01*
X013361Y012736D01*
X013378Y012756D01*
X013397Y012774D01*
X013419Y012789D01*
X013442Y012800D01*
X013467Y012808D01*
X013493Y012812D01*
X013519Y012812D01*
X013545Y012808D01*
X013570Y012800D01*
X013594Y012789D01*
X013615Y012774D01*
X013634Y012756D01*
X013651Y012736D01*
X013664Y012713D01*
X013673Y012689D01*
X013679Y012663D01*
X013681Y012637D01*
X013679Y012611D01*
X013673Y012585D01*
X013664Y012561D01*
X013651Y012538D01*
X013634Y012518D01*
X013615Y012500D01*
X013593Y012485D01*
X013570Y012474D01*
X013545Y012466D01*
X013519Y012462D01*
X013493Y012462D01*
X013467Y012466D01*
X013442Y012474D01*
X013418Y012485D01*
X013397Y012500D01*
X013378Y012518D01*
X013361Y012538D01*
X013348Y012561D01*
X013339Y012585D01*
X013333Y012611D01*
X013331Y012637D01*
M02*
