%
M48
M72
T01C0.0118
T02C0.0315
T03C0.0350
T04C0.0400
%
T01
X5405Y5215
X5960Y4388
X5376Y8384
X7356Y10236
X7856Y9883
X10376Y10943
X11502Y9267
X10796Y8839
X10870Y8430
X11431Y8031
X11153Y7419
X11159Y7089
X10918Y5579
X10362Y4923
X12499Y12137
T02
X4356Y2261
X5356Y2261
X6356Y2261
X7356Y2261
X8356Y2261
X9356Y2261
X10356Y2261
X11356Y2261
X11356Y11710
X10356Y11710
X9356Y11710
X8356Y11710
X7356Y11710
X6356Y11710
X5356Y11710
X4356Y11710
T03
X12706Y12637
X13506Y12637
X13106Y10637
T04
X8856Y12486
X7856Y12486
X6856Y12486
M30
