%
M48
M72
T01C0.0118
T02C0.0315
T03C0.0350
T04C0.0400
%
T01
X4013Y5702
X2356Y7236
X2606Y7486
X2356Y7736
X2856Y7986
X4899Y7376
X5106Y8736
X6106Y9486
X7856Y9236
X7856Y10236
X8856Y10986
X9356Y10986
X10356Y10986
X9606Y12736
X10356Y9236
X10356Y8736
X10356Y8236
X11356Y8236
X11606Y8736
X10606Y6236
X10606Y5736
X9106Y4236
X8606Y4236
X8606Y3486
X9106Y3486
X6856Y4736
X2106Y9986
X1856Y10486
X13856Y12486
T02
X4356Y2261
X5356Y2261
X6356Y2261
X7356Y2261
X8356Y2261
X9356Y2261
X10356Y2261
X11356Y2261
X11356Y11710
X10356Y11710
X9356Y11710
X8356Y11710
X7356Y11710
X6356Y11710
X5356Y11710
X4356Y11710
T03
X12706Y12986
X13506Y12986
X13106Y10986
T04
X8856Y12486
X7856Y12486
X6856Y12486
M30
