G75*
G70*
%OFA0B0*%
%FSLAX24Y24*%
%IPPOS*%
%LPD*%
%AMOC8*
5,1,8,0,0,1.08239X$1,22.5*
%
%ADD10C,0.0000*%
%ADD11C,0.0050*%
%ADD12C,0.0500*%
%ADD13C,0.0040*%
%ADD14C,0.0060*%
%ADD15C,0.0070*%
%ADD16C,0.0010*%
D10*
X001553Y000683D02*
X001553Y013281D01*
X014151Y013281D01*
X014151Y000683D01*
X001553Y000683D01*
X012931Y010986D02*
X012933Y011012D01*
X012939Y011038D01*
X012948Y011062D01*
X012961Y011085D01*
X012978Y011105D01*
X012997Y011123D01*
X013019Y011138D01*
X013042Y011149D01*
X013067Y011157D01*
X013093Y011161D01*
X013119Y011161D01*
X013145Y011157D01*
X013170Y011149D01*
X013194Y011138D01*
X013215Y011123D01*
X013234Y011105D01*
X013251Y011085D01*
X013264Y011062D01*
X013273Y011038D01*
X013279Y011012D01*
X013281Y010986D01*
X013279Y010960D01*
X013273Y010934D01*
X013264Y010910D01*
X013251Y010887D01*
X013234Y010867D01*
X013215Y010849D01*
X013193Y010834D01*
X013170Y010823D01*
X013145Y010815D01*
X013119Y010811D01*
X013093Y010811D01*
X013067Y010815D01*
X013042Y010823D01*
X013018Y010834D01*
X012997Y010849D01*
X012978Y010867D01*
X012961Y010887D01*
X012948Y010910D01*
X012939Y010934D01*
X012933Y010960D01*
X012931Y010986D01*
X012531Y012986D02*
X012533Y013012D01*
X012539Y013038D01*
X012548Y013062D01*
X012561Y013085D01*
X012578Y013105D01*
X012597Y013123D01*
X012619Y013138D01*
X012642Y013149D01*
X012667Y013157D01*
X012693Y013161D01*
X012719Y013161D01*
X012745Y013157D01*
X012770Y013149D01*
X012794Y013138D01*
X012815Y013123D01*
X012834Y013105D01*
X012851Y013085D01*
X012864Y013062D01*
X012873Y013038D01*
X012879Y013012D01*
X012881Y012986D01*
X012879Y012960D01*
X012873Y012934D01*
X012864Y012910D01*
X012851Y012887D01*
X012834Y012867D01*
X012815Y012849D01*
X012793Y012834D01*
X012770Y012823D01*
X012745Y012815D01*
X012719Y012811D01*
X012693Y012811D01*
X012667Y012815D01*
X012642Y012823D01*
X012618Y012834D01*
X012597Y012849D01*
X012578Y012867D01*
X012561Y012887D01*
X012548Y012910D01*
X012539Y012934D01*
X012533Y012960D01*
X012531Y012986D01*
X013331Y012986D02*
X013333Y013012D01*
X013339Y013038D01*
X013348Y013062D01*
X013361Y013085D01*
X013378Y013105D01*
X013397Y013123D01*
X013419Y013138D01*
X013442Y013149D01*
X013467Y013157D01*
X013493Y013161D01*
X013519Y013161D01*
X013545Y013157D01*
X013570Y013149D01*
X013594Y013138D01*
X013615Y013123D01*
X013634Y013105D01*
X013651Y013085D01*
X013664Y013062D01*
X013673Y013038D01*
X013679Y013012D01*
X013681Y012986D01*
X013679Y012960D01*
X013673Y012934D01*
X013664Y012910D01*
X013651Y012887D01*
X013634Y012867D01*
X013615Y012849D01*
X013593Y012834D01*
X013570Y012823D01*
X013545Y012815D01*
X013519Y012811D01*
X013493Y012811D01*
X013467Y012815D01*
X013442Y012823D01*
X013418Y012834D01*
X013397Y012849D01*
X013378Y012867D01*
X013361Y012887D01*
X013348Y012910D01*
X013339Y012934D01*
X013333Y012960D01*
X013331Y012986D01*
D11*
X014155Y013285D02*
X014155Y000687D01*
X001557Y000687D01*
X001557Y013285D01*
X014155Y013285D01*
D12*
X000350Y002261D02*
X000352Y002292D01*
X000358Y002323D01*
X000368Y002353D01*
X000381Y002381D01*
X000398Y002408D01*
X000418Y002432D01*
X000441Y002454D01*
X000466Y002472D01*
X000494Y002487D01*
X000523Y002499D01*
X000553Y002507D01*
X000584Y002511D01*
X000616Y002511D01*
X000647Y002507D01*
X000677Y002499D01*
X000706Y002487D01*
X000734Y002472D01*
X000759Y002454D01*
X000782Y002432D01*
X000802Y002408D01*
X000819Y002381D01*
X000832Y002353D01*
X000842Y002323D01*
X000848Y002292D01*
X000850Y002261D01*
X000848Y002230D01*
X000842Y002199D01*
X000832Y002169D01*
X000819Y002141D01*
X000802Y002114D01*
X000782Y002090D01*
X000759Y002068D01*
X000734Y002050D01*
X000706Y002035D01*
X000677Y002023D01*
X000647Y002015D01*
X000616Y002011D01*
X000584Y002011D01*
X000553Y002015D01*
X000523Y002023D01*
X000494Y002035D01*
X000466Y002050D01*
X000441Y002068D01*
X000418Y002090D01*
X000398Y002114D01*
X000381Y002141D01*
X000368Y002169D01*
X000358Y002199D01*
X000352Y002230D01*
X000350Y002261D01*
D13*
X003328Y006028D02*
X003328Y006259D01*
X003405Y006335D01*
X003558Y006335D01*
X003635Y006259D01*
X003635Y006028D01*
X003789Y006028D02*
X003328Y006028D01*
X003635Y006182D02*
X003789Y006335D01*
X003789Y006489D02*
X003328Y006489D01*
X003789Y006796D01*
X003328Y006796D01*
X003482Y006949D02*
X003328Y007103D01*
X003789Y007103D01*
X003789Y007256D02*
X003789Y006949D01*
X004151Y007612D02*
X004466Y007612D01*
X004466Y006155D02*
X004151Y006155D01*
X003265Y013699D02*
X002958Y013699D01*
X003111Y013699D02*
X003111Y014159D01*
X002958Y014006D01*
X002804Y014082D02*
X002804Y013775D01*
X002728Y013699D01*
X002497Y013699D01*
X002497Y014159D01*
X002728Y014159D01*
X002804Y014082D01*
X002344Y014159D02*
X002037Y014159D01*
X002037Y013699D01*
X002344Y013699D01*
X002191Y013929D02*
X002037Y013929D01*
X001884Y013699D02*
X001577Y013699D01*
X001577Y014159D01*
X012049Y011370D02*
X012663Y011370D01*
X012586Y011446D02*
X012509Y011523D01*
X012432Y011523D01*
X012356Y011446D01*
X012356Y011293D01*
X012279Y011216D01*
X012202Y011216D01*
X012126Y011293D01*
X012126Y011446D01*
X012202Y011523D01*
X012202Y011677D02*
X012126Y011753D01*
X012126Y011907D01*
X012202Y011984D01*
X012279Y011984D01*
X012356Y011907D01*
X012432Y011984D01*
X012509Y011984D01*
X012586Y011907D01*
X012586Y011753D01*
X012509Y011677D01*
X012356Y011830D02*
X012356Y011907D01*
X012586Y011446D02*
X012586Y011293D01*
X012509Y011216D01*
X012509Y011063D02*
X012126Y011063D01*
X012126Y010756D02*
X012509Y010756D01*
X012586Y010833D01*
X012586Y010986D01*
X012509Y011063D01*
D14*
X009291Y009456D02*
X006401Y009456D01*
X006551Y009106D02*
X006553Y009135D01*
X006559Y009163D01*
X006568Y009190D01*
X006582Y009215D01*
X006598Y009239D01*
X006618Y009259D01*
X006640Y009278D01*
X006664Y009292D01*
X006691Y009304D01*
X006718Y009312D01*
X006747Y009316D01*
X006775Y009316D01*
X006804Y009312D01*
X006831Y009304D01*
X006858Y009292D01*
X006882Y009278D01*
X006904Y009259D01*
X006924Y009239D01*
X006940Y009215D01*
X006954Y009190D01*
X006963Y009163D01*
X006969Y009135D01*
X006971Y009106D01*
X006969Y009077D01*
X006963Y009049D01*
X006954Y009022D01*
X006940Y008997D01*
X006924Y008973D01*
X006904Y008953D01*
X006882Y008934D01*
X006858Y008920D01*
X006831Y008908D01*
X006804Y008900D01*
X006775Y008896D01*
X006747Y008896D01*
X006718Y008900D01*
X006691Y008908D01*
X006664Y008920D01*
X006640Y008934D01*
X006618Y008953D01*
X006598Y008973D01*
X006582Y008997D01*
X006568Y009022D01*
X006559Y009049D01*
X006553Y009077D01*
X006551Y009106D01*
X007120Y010118D02*
X007120Y010354D01*
X007592Y010354D02*
X007592Y010118D01*
X008120Y010118D02*
X008120Y010354D01*
X008592Y010354D02*
X008592Y010118D01*
X009291Y004516D02*
X006401Y004516D01*
D15*
X007425Y004614D02*
X007425Y004824D01*
X007530Y004929D01*
X007636Y004929D01*
X007741Y004824D01*
X007846Y004929D01*
X007951Y004929D01*
X008056Y004824D01*
X008056Y004614D01*
X007951Y004509D01*
X007741Y004719D02*
X007741Y004824D01*
X007636Y005154D02*
X007425Y005364D01*
X008056Y005364D01*
X008056Y005154D02*
X008056Y005574D01*
X007951Y005798D02*
X008056Y005903D01*
X008056Y006113D01*
X007951Y006218D01*
X007846Y006218D01*
X007741Y006113D01*
X007741Y006008D01*
X007741Y006113D02*
X007636Y006218D01*
X007530Y006218D01*
X007425Y006113D01*
X007425Y005903D01*
X007530Y005798D01*
X007741Y006443D02*
X007741Y006863D01*
X007741Y007087D02*
X007741Y007508D01*
X007951Y007508D02*
X007530Y007087D01*
X007530Y007297D02*
X007951Y007297D01*
X007951Y007087D02*
X007530Y007508D01*
X007530Y007732D02*
X007636Y007732D01*
X007741Y007837D01*
X007741Y008047D01*
X007846Y008152D01*
X007951Y008152D01*
X008056Y008047D01*
X008056Y007837D01*
X007951Y007732D01*
X007530Y007732D02*
X007425Y007837D01*
X007425Y008047D01*
X007530Y008152D01*
X007530Y008376D02*
X007951Y008797D01*
X007741Y008797D02*
X007741Y008376D01*
X007951Y008376D02*
X007530Y008797D01*
X007530Y008586D02*
X007951Y008586D01*
X007880Y009656D02*
X008300Y009656D01*
X008090Y009656D02*
X008090Y010286D01*
X007880Y010076D01*
X007656Y010181D02*
X007551Y010286D01*
X007341Y010286D01*
X007235Y010181D01*
X007235Y010076D01*
X007341Y009971D01*
X007551Y009971D01*
X007656Y009866D01*
X007656Y009761D01*
X007551Y009656D01*
X007341Y009656D01*
X007235Y009761D01*
X007011Y009761D02*
X007011Y010286D01*
X006591Y010286D02*
X006591Y009761D01*
X006696Y009656D01*
X006906Y009656D01*
X007011Y009761D01*
X007446Y009551D02*
X007446Y010391D01*
X007425Y004614D02*
X007530Y004509D01*
X007530Y004285D02*
X007425Y004180D01*
X007425Y003970D01*
X007530Y003864D01*
X007530Y003640D02*
X007425Y003640D01*
X007530Y003640D02*
X007741Y003430D01*
X008056Y003430D01*
X007741Y003430D02*
X007530Y003220D01*
X007425Y003220D01*
X007425Y002996D02*
X008056Y002996D01*
X007425Y002575D01*
X008056Y002575D01*
X008056Y002356D02*
X008056Y002146D01*
X008056Y002251D02*
X007425Y002251D01*
X007425Y002146D02*
X007425Y002356D01*
X007425Y001921D02*
X007425Y001501D01*
X007425Y001711D02*
X008056Y001711D01*
X008056Y003864D02*
X007636Y004285D01*
X007530Y004285D01*
X008056Y004285D02*
X008056Y003864D01*
D16*
X007936Y010125D02*
X007836Y010225D01*
X007936Y010225D01*
X007961Y010200D01*
X007961Y010150D01*
X007936Y010125D01*
X007836Y010125D01*
X007811Y010150D01*
X007811Y010200D01*
X007836Y010225D01*
X007811Y010246D02*
X007836Y010271D01*
X007836Y010321D01*
X007811Y010346D01*
X007861Y010346D02*
X007811Y010396D01*
X007961Y010396D01*
X007961Y010346D02*
X007961Y010446D01*
X007936Y010494D02*
X007961Y010519D01*
X007961Y010594D01*
X007861Y010594D01*
X007861Y010494D02*
X007936Y010494D01*
X007836Y010494D02*
X007836Y010394D01*
X007736Y010494D01*
X007711Y010494D01*
X007686Y010469D01*
X007686Y010419D01*
X007711Y010394D01*
X007711Y010346D02*
X007686Y010321D01*
X007686Y010271D01*
X007711Y010246D01*
X007811Y010246D01*
X007936Y010273D02*
X007936Y010298D01*
X007961Y010298D01*
X007961Y010273D01*
X007936Y010273D01*
X008686Y010271D02*
X008711Y010246D01*
X008811Y010246D01*
X008836Y010271D01*
X008836Y010321D01*
X008811Y010346D01*
X008836Y010394D02*
X008836Y010494D01*
X008836Y010444D02*
X008686Y010444D01*
X008736Y010394D01*
X008711Y010346D02*
X008686Y010321D01*
X008686Y010271D01*
X006961Y010346D02*
X006961Y010446D01*
X006961Y010396D02*
X006811Y010396D01*
X006861Y010346D01*
X006861Y010494D02*
X006936Y010494D01*
X006961Y010519D01*
X006961Y010594D01*
X006861Y010594D01*
M02*
