G75*
G70*
%OFA0B0*%
%FSLAX24Y24*%
%IPPOS*%
%LPD*%
%AMOC8*
5,1,8,0,0,1.08239X$1,22.5*
%
%ADD10C,0.0000*%
%ADD11C,0.0660*%
%ADD12R,0.0700X0.1000*%
%ADD13C,0.3150*%
%ADD14R,0.0760X0.0760*%
%ADD15C,0.0760*%
%ADD16C,0.0001*%
%ADD17C,0.0120*%
%ADD18C,0.0238*%
%ADD19C,0.0060*%
%ADD20C,0.0100*%
D10*
X001553Y000683D02*
X001553Y013281D01*
X014151Y013281D01*
X014151Y000683D01*
X001553Y000683D01*
X012614Y001710D02*
X012626Y001738D01*
X012633Y001765D01*
X012645Y001793D01*
X012653Y001820D01*
X012665Y001852D01*
X012677Y001880D01*
X012685Y001907D01*
X012937Y001907D01*
X012968Y001907D01*
X012976Y001880D01*
X012988Y001852D01*
X012996Y001820D01*
X013007Y001793D01*
X013019Y001765D01*
X013027Y001738D01*
X013039Y001710D01*
X013027Y001687D01*
X013015Y001659D01*
X013004Y001635D01*
X012645Y001635D01*
X012637Y001659D01*
X012626Y001687D01*
X012614Y001710D01*
X012931Y010986D02*
X012933Y011012D01*
X012939Y011038D01*
X012948Y011062D01*
X012961Y011085D01*
X012978Y011105D01*
X012997Y011123D01*
X013019Y011138D01*
X013042Y011149D01*
X013067Y011157D01*
X013093Y011161D01*
X013119Y011161D01*
X013145Y011157D01*
X013170Y011149D01*
X013194Y011138D01*
X013215Y011123D01*
X013234Y011105D01*
X013251Y011085D01*
X013264Y011062D01*
X013273Y011038D01*
X013279Y011012D01*
X013281Y010986D01*
X013279Y010960D01*
X013273Y010934D01*
X013264Y010910D01*
X013251Y010887D01*
X013234Y010867D01*
X013215Y010849D01*
X013193Y010834D01*
X013170Y010823D01*
X013145Y010815D01*
X013119Y010811D01*
X013093Y010811D01*
X013067Y010815D01*
X013042Y010823D01*
X013018Y010834D01*
X012997Y010849D01*
X012978Y010867D01*
X012961Y010887D01*
X012948Y010910D01*
X012939Y010934D01*
X012933Y010960D01*
X012931Y010986D01*
X012531Y012986D02*
X012533Y013012D01*
X012539Y013038D01*
X012548Y013062D01*
X012561Y013085D01*
X012578Y013105D01*
X012597Y013123D01*
X012619Y013138D01*
X012642Y013149D01*
X012667Y013157D01*
X012693Y013161D01*
X012719Y013161D01*
X012745Y013157D01*
X012770Y013149D01*
X012794Y013138D01*
X012815Y013123D01*
X012834Y013105D01*
X012851Y013085D01*
X012864Y013062D01*
X012873Y013038D01*
X012879Y013012D01*
X012881Y012986D01*
X012879Y012960D01*
X012873Y012934D01*
X012864Y012910D01*
X012851Y012887D01*
X012834Y012867D01*
X012815Y012849D01*
X012793Y012834D01*
X012770Y012823D01*
X012745Y012815D01*
X012719Y012811D01*
X012693Y012811D01*
X012667Y012815D01*
X012642Y012823D01*
X012618Y012834D01*
X012597Y012849D01*
X012578Y012867D01*
X012561Y012887D01*
X012548Y012910D01*
X012539Y012934D01*
X012533Y012960D01*
X012531Y012986D01*
X013331Y012986D02*
X013333Y013012D01*
X013339Y013038D01*
X013348Y013062D01*
X013361Y013085D01*
X013378Y013105D01*
X013397Y013123D01*
X013419Y013138D01*
X013442Y013149D01*
X013467Y013157D01*
X013493Y013161D01*
X013519Y013161D01*
X013545Y013157D01*
X013570Y013149D01*
X013594Y013138D01*
X013615Y013123D01*
X013634Y013105D01*
X013651Y013085D01*
X013664Y013062D01*
X013673Y013038D01*
X013679Y013012D01*
X013681Y012986D01*
X013679Y012960D01*
X013673Y012934D01*
X013664Y012910D01*
X013651Y012887D01*
X013634Y012867D01*
X013615Y012849D01*
X013593Y012834D01*
X013570Y012823D01*
X013545Y012815D01*
X013519Y012811D01*
X013493Y012811D01*
X013467Y012815D01*
X013442Y012823D01*
X013418Y012834D01*
X013397Y012849D01*
X013378Y012867D01*
X013361Y012887D01*
X013348Y012910D01*
X013339Y012934D01*
X013333Y012960D01*
X013331Y012986D01*
D11*
X011356Y011710D03*
X010356Y011710D03*
X009356Y011710D03*
X008356Y011710D03*
X007356Y011710D03*
X006356Y011710D03*
X005356Y011710D03*
X004356Y011710D03*
X004356Y002261D03*
X005356Y002261D03*
X006356Y002261D03*
X007356Y002261D03*
X008356Y002261D03*
X009356Y002261D03*
X010356Y002261D03*
X011356Y002261D03*
D12*
X012187Y006376D03*
X012187Y007596D03*
X003525Y007596D03*
X003525Y006376D03*
D13*
X006872Y006986D02*
X008840Y006986D01*
D14*
X006856Y012486D03*
D15*
X007856Y012486D03*
X008856Y012486D03*
D16*
X012684Y001906D02*
X012968Y001906D01*
X012969Y001905D02*
X012684Y001905D01*
X012684Y001904D02*
X012969Y001904D01*
X012969Y001903D02*
X012684Y001903D01*
X012683Y001902D02*
X012969Y001902D01*
X012970Y001901D02*
X012683Y001901D01*
X012683Y001900D02*
X012970Y001900D01*
X012970Y001899D02*
X012682Y001899D01*
X012682Y001898D02*
X012971Y001898D01*
X012971Y001897D02*
X012682Y001897D01*
X012682Y001896D02*
X012971Y001896D01*
X012971Y001895D02*
X012681Y001895D01*
X012681Y001894D02*
X012972Y001894D01*
X012972Y001893D02*
X012681Y001893D01*
X012680Y001892D02*
X012972Y001892D01*
X012973Y001891D02*
X012680Y001891D01*
X012680Y001890D02*
X012973Y001890D01*
X012973Y001889D02*
X012680Y001889D01*
X012679Y001888D02*
X012973Y001888D01*
X012974Y001887D02*
X012679Y001887D01*
X012679Y001886D02*
X012974Y001886D01*
X012974Y001885D02*
X012678Y001885D01*
X012678Y001884D02*
X012975Y001884D01*
X012975Y001883D02*
X012678Y001883D01*
X012678Y001882D02*
X012975Y001882D01*
X012975Y001881D02*
X012677Y001881D01*
X012677Y001880D02*
X012976Y001880D01*
X012976Y001879D02*
X012677Y001879D01*
X012676Y001878D02*
X012976Y001878D01*
X012977Y001877D02*
X012676Y001877D01*
X012675Y001876D02*
X012977Y001876D01*
X012978Y001875D02*
X012675Y001875D01*
X012675Y001874D02*
X012978Y001874D01*
X012979Y001873D02*
X012674Y001873D01*
X012674Y001872D02*
X012979Y001872D01*
X012979Y001871D02*
X012673Y001871D01*
X012673Y001870D02*
X012980Y001870D01*
X012980Y001869D02*
X012672Y001869D01*
X012672Y001868D02*
X012981Y001868D01*
X012981Y001867D02*
X012672Y001867D01*
X012671Y001866D02*
X012982Y001866D01*
X012982Y001865D02*
X012671Y001865D01*
X012670Y001864D02*
X012982Y001864D01*
X012983Y001863D02*
X012670Y001863D01*
X012669Y001862D02*
X012983Y001862D01*
X012984Y001861D02*
X012669Y001861D01*
X012669Y001860D02*
X012984Y001860D01*
X012985Y001859D02*
X012668Y001859D01*
X012668Y001858D02*
X012985Y001858D01*
X012985Y001857D02*
X012667Y001857D01*
X012667Y001856D02*
X012986Y001856D01*
X012986Y001855D02*
X012666Y001855D01*
X012666Y001854D02*
X012987Y001854D01*
X012987Y001853D02*
X012666Y001853D01*
X012665Y001852D02*
X012988Y001852D01*
X012988Y001851D02*
X012665Y001851D01*
X012664Y001850D02*
X012988Y001850D01*
X012988Y001849D02*
X012664Y001849D01*
X012664Y001848D02*
X012989Y001848D01*
X012989Y001847D02*
X012663Y001847D01*
X012663Y001846D02*
X012989Y001846D01*
X012989Y001845D02*
X012663Y001845D01*
X012662Y001844D02*
X012990Y001844D01*
X012990Y001843D02*
X012662Y001843D01*
X012661Y001842D02*
X012990Y001842D01*
X012990Y001841D02*
X012661Y001841D01*
X012661Y001840D02*
X012991Y001840D01*
X012991Y001839D02*
X012660Y001839D01*
X012660Y001838D02*
X012991Y001838D01*
X012991Y001837D02*
X012660Y001837D01*
X012659Y001836D02*
X012992Y001836D01*
X012992Y001835D02*
X012659Y001835D01*
X012658Y001834D02*
X012992Y001834D01*
X012992Y001833D02*
X012658Y001833D01*
X012993Y001833D01*
X012993Y001832D02*
X012657Y001832D01*
X012657Y001831D02*
X012993Y001831D01*
X012993Y001830D02*
X012657Y001830D01*
X012656Y001829D02*
X012994Y001829D01*
X012994Y001828D02*
X012656Y001828D01*
X012655Y001827D02*
X012994Y001827D01*
X012994Y001826D02*
X012655Y001826D01*
X012655Y001825D02*
X012995Y001825D01*
X012995Y001824D02*
X012654Y001824D01*
X012654Y001823D02*
X012995Y001823D01*
X012995Y001822D02*
X012654Y001822D01*
X012653Y001821D02*
X012996Y001821D01*
X012996Y001820D02*
X012653Y001820D01*
X012653Y001819D02*
X012997Y001819D01*
X012997Y001818D02*
X012652Y001818D01*
X012652Y001817D02*
X012997Y001817D01*
X012998Y001816D02*
X012652Y001816D01*
X012651Y001815D02*
X012998Y001815D01*
X012999Y001814D02*
X012651Y001814D01*
X012651Y001813D02*
X012999Y001813D01*
X013000Y001812D02*
X012651Y001812D01*
X012650Y001811D02*
X013000Y001811D01*
X013000Y001810D02*
X012650Y001810D01*
X012650Y001809D02*
X013001Y001809D01*
X013001Y001808D02*
X012649Y001808D01*
X012649Y001807D02*
X013002Y001807D01*
X013002Y001806D02*
X012649Y001806D01*
X012649Y001805D02*
X013003Y001805D01*
X013003Y001804D02*
X012648Y001804D01*
X012648Y001803D02*
X013003Y001803D01*
X013004Y001802D02*
X012648Y001802D01*
X012647Y001801D02*
X013004Y001801D01*
X013005Y001800D02*
X012647Y001800D01*
X012647Y001799D02*
X013005Y001799D01*
X013005Y001798D02*
X012647Y001798D01*
X012646Y001797D02*
X013006Y001797D01*
X013006Y001796D02*
X012646Y001796D01*
X012646Y001795D02*
X013007Y001795D01*
X013007Y001794D02*
X012645Y001794D01*
X012645Y001793D02*
X013008Y001793D01*
X013008Y001792D02*
X012645Y001792D01*
X012644Y001791D02*
X013008Y001791D01*
X013009Y001790D02*
X012644Y001790D01*
X012643Y001789D02*
X013009Y001789D01*
X013010Y001788D02*
X012643Y001788D01*
X012643Y001787D02*
X013010Y001787D01*
X013011Y001786D02*
X012642Y001786D01*
X012642Y001785D02*
X013011Y001785D01*
X013011Y001784D02*
X012641Y001784D01*
X012641Y001783D02*
X013012Y001783D01*
X013012Y001782D02*
X012640Y001782D01*
X012640Y001781D02*
X013013Y001781D01*
X013013Y001780D02*
X012640Y001780D01*
X012639Y001779D02*
X013014Y001779D01*
X013014Y001778D02*
X012639Y001778D01*
X012638Y001777D02*
X013014Y001777D01*
X013015Y001776D02*
X012638Y001776D01*
X012637Y001775D02*
X013015Y001775D01*
X013016Y001774D02*
X012637Y001774D01*
X012637Y001773D02*
X013016Y001773D01*
X013017Y001772D02*
X012636Y001772D01*
X012636Y001771D02*
X013017Y001771D01*
X013017Y001770D02*
X012635Y001770D01*
X012635Y001769D02*
X013018Y001769D01*
X013018Y001768D02*
X012634Y001768D01*
X012634Y001767D02*
X013019Y001767D01*
X013019Y001766D02*
X012634Y001766D01*
X012633Y001765D02*
X013020Y001765D01*
X013020Y001764D02*
X012633Y001764D01*
X012633Y001763D02*
X013020Y001763D01*
X013020Y001762D02*
X012632Y001762D01*
X012632Y001761D02*
X013021Y001761D01*
X013021Y001760D02*
X012632Y001760D01*
X012632Y001759D02*
X013021Y001759D01*
X013022Y001758D02*
X012631Y001758D01*
X012631Y001757D02*
X013022Y001757D01*
X013022Y001756D02*
X012631Y001756D01*
X012630Y001755D02*
X013022Y001755D01*
X013023Y001754D02*
X012630Y001754D01*
X012630Y001753D02*
X013023Y001753D01*
X013023Y001752D02*
X012630Y001752D01*
X012629Y001751D02*
X013024Y001751D01*
X013024Y001750D02*
X012629Y001750D01*
X012629Y001749D02*
X013024Y001749D01*
X013024Y001748D02*
X012628Y001748D01*
X012628Y001747D02*
X013025Y001747D01*
X013025Y001746D02*
X012628Y001746D01*
X012628Y001745D02*
X013025Y001745D01*
X013026Y001744D02*
X012627Y001744D01*
X012627Y001743D02*
X013026Y001743D01*
X013026Y001742D02*
X012627Y001742D01*
X012626Y001741D02*
X013026Y001741D01*
X013027Y001740D02*
X012626Y001740D01*
X012626Y001739D02*
X013027Y001739D01*
X013027Y001738D02*
X012626Y001738D01*
X012625Y001737D02*
X013028Y001737D01*
X013028Y001736D02*
X012625Y001736D01*
X012624Y001735D02*
X013029Y001735D01*
X013029Y001734D02*
X012624Y001734D01*
X012623Y001733D02*
X013029Y001733D01*
X013030Y001732D02*
X012623Y001732D01*
X012623Y001731D02*
X013030Y001731D01*
X013031Y001730D02*
X012622Y001730D01*
X012622Y001729D02*
X013031Y001729D01*
X013032Y001728D02*
X012621Y001728D01*
X012621Y001727D02*
X013032Y001727D01*
X013032Y001726D02*
X012620Y001726D01*
X012620Y001725D02*
X013033Y001725D01*
X013033Y001724D02*
X012620Y001724D01*
X012619Y001723D02*
X013034Y001723D01*
X013034Y001722D02*
X012619Y001722D01*
X012618Y001721D02*
X013035Y001721D01*
X013035Y001720D02*
X012618Y001720D01*
X012617Y001719D02*
X013035Y001719D01*
X013036Y001718D02*
X012617Y001718D01*
X012617Y001717D02*
X013036Y001717D01*
X013037Y001716D02*
X012616Y001716D01*
X012616Y001715D02*
X013037Y001715D01*
X013038Y001714D02*
X012615Y001714D01*
X012615Y001713D02*
X013038Y001713D01*
X013038Y001712D02*
X012614Y001712D01*
X012614Y001711D02*
X013039Y001711D01*
X013039Y001710D02*
X012614Y001710D01*
X012615Y001709D02*
X013038Y001709D01*
X013038Y001708D02*
X012615Y001708D01*
X012616Y001707D02*
X013037Y001707D01*
X013037Y001706D02*
X012616Y001706D01*
X012617Y001705D02*
X013036Y001705D01*
X013036Y001704D02*
X012617Y001704D01*
X012618Y001703D02*
X013035Y001703D01*
X013035Y001702D02*
X012618Y001702D01*
X012619Y001701D02*
X013034Y001701D01*
X013034Y001700D02*
X012619Y001700D01*
X012620Y001699D02*
X013033Y001699D01*
X013033Y001698D02*
X012620Y001698D01*
X012621Y001697D02*
X013032Y001697D01*
X013032Y001696D02*
X012621Y001696D01*
X012622Y001695D02*
X013031Y001695D01*
X013031Y001694D02*
X012622Y001694D01*
X012623Y001693D02*
X013030Y001693D01*
X013030Y001692D02*
X012623Y001692D01*
X012624Y001691D02*
X013029Y001691D01*
X013029Y001690D02*
X012624Y001690D01*
X012625Y001689D02*
X013028Y001689D01*
X013028Y001688D02*
X012625Y001688D01*
X012626Y001687D02*
X013027Y001687D01*
X013027Y001686D02*
X012626Y001686D01*
X012626Y001685D02*
X013026Y001685D01*
X013026Y001684D02*
X012627Y001684D01*
X012627Y001683D02*
X013025Y001683D01*
X013025Y001682D02*
X012628Y001682D01*
X012628Y001681D02*
X013025Y001681D01*
X013024Y001680D02*
X012629Y001680D01*
X012629Y001679D02*
X013024Y001679D01*
X013023Y001678D02*
X012629Y001678D01*
X012630Y001677D02*
X013023Y001677D01*
X013022Y001676D02*
X012630Y001676D01*
X012631Y001675D02*
X013022Y001675D01*
X013022Y001674D02*
X012631Y001674D01*
X012632Y001673D02*
X013021Y001673D01*
X013021Y001672D02*
X012632Y001672D01*
X012632Y001671D02*
X013020Y001671D01*
X013020Y001670D02*
X012633Y001670D01*
X012633Y001669D02*
X013019Y001669D01*
X013019Y001668D02*
X012634Y001668D01*
X012634Y001667D02*
X013019Y001667D01*
X013018Y001666D02*
X012635Y001666D01*
X012635Y001665D02*
X013018Y001665D01*
X013017Y001664D02*
X012635Y001664D01*
X012636Y001663D02*
X013017Y001663D01*
X013016Y001662D02*
X012636Y001662D01*
X012637Y001661D02*
X013016Y001661D01*
X013016Y001660D02*
X012637Y001660D01*
X012638Y001659D02*
X013015Y001659D01*
X013015Y001658D02*
X012638Y001658D01*
X012638Y001657D02*
X013014Y001657D01*
X013014Y001656D02*
X012639Y001656D01*
X012639Y001655D02*
X013013Y001655D01*
X013013Y001654D02*
X012639Y001654D01*
X012640Y001653D02*
X013012Y001653D01*
X013012Y001652D02*
X012640Y001652D01*
X012640Y001651D02*
X013011Y001651D01*
X013011Y001650D02*
X012641Y001650D01*
X012641Y001649D02*
X013010Y001649D01*
X013010Y001648D02*
X012641Y001648D01*
X012642Y001647D02*
X013009Y001647D01*
X013009Y001646D02*
X012642Y001646D01*
X012642Y001645D02*
X013008Y001645D01*
X013008Y001644D02*
X012643Y001644D01*
X012643Y001643D02*
X013007Y001643D01*
X013007Y001642D02*
X012643Y001642D01*
X012644Y001641D02*
X013006Y001641D01*
X013006Y001640D02*
X012644Y001640D01*
X012644Y001639D02*
X013005Y001639D01*
X013005Y001638D02*
X012645Y001638D01*
X012645Y001637D02*
X013004Y001637D01*
X013004Y001636D02*
X012645Y001636D01*
D17*
X007856Y005736D02*
X006856Y004736D01*
X007856Y005736D02*
X007856Y006986D01*
X007856Y009236D01*
X007856Y010236D02*
X007856Y012486D01*
X008856Y012486D02*
X008856Y010986D01*
X010356Y009236D02*
X011856Y009236D01*
X012106Y008986D01*
X012106Y007677D01*
X012187Y007596D01*
X012187Y007655D01*
X011937Y007655D01*
X011356Y008236D02*
X010356Y008236D01*
X010356Y008736D02*
X011606Y008736D01*
X011106Y009736D02*
X004504Y009736D01*
X004309Y009541D01*
X004309Y005998D01*
X004013Y005702D01*
D18*
X004013Y005702D03*
X002356Y007236D03*
X002606Y007486D03*
X002356Y007736D03*
X002856Y007986D03*
X004899Y007376D03*
X005106Y008736D03*
X006106Y009486D03*
X007856Y009236D03*
X007856Y010236D03*
X008856Y010986D03*
X009356Y010986D03*
X010356Y010986D03*
X009606Y012736D03*
X010356Y009236D03*
X010356Y008736D03*
X010356Y008236D03*
X011356Y008236D03*
X011606Y008736D03*
X010606Y006236D03*
X010606Y005736D03*
X009106Y004236D03*
X008606Y004236D03*
X008606Y003486D03*
X009106Y003486D03*
X006856Y004736D03*
X002106Y009986D03*
X001856Y010486D03*
X013856Y012486D03*
D19*
X013996Y012330D02*
X014021Y012355D01*
X014021Y000813D01*
X001683Y000813D01*
X001683Y010363D01*
X001769Y010277D01*
X001942Y010277D01*
X002012Y010346D01*
X006164Y010346D01*
X006414Y010596D01*
X006496Y010678D01*
X006496Y011314D01*
X006594Y011354D01*
X006712Y011472D01*
X006776Y011627D01*
X006776Y011794D01*
X006712Y011948D01*
X006644Y012016D01*
X007068Y012016D01*
X007000Y011948D01*
X006936Y011794D01*
X006936Y011627D01*
X007000Y011472D01*
X007118Y011354D01*
X007272Y011290D01*
X007439Y011290D01*
X007594Y011354D01*
X007712Y011472D01*
X007776Y011627D01*
X007776Y011794D01*
X007712Y011948D01*
X007633Y012027D01*
X007660Y012013D01*
X007736Y011988D01*
X007816Y011976D01*
X007826Y011976D01*
X007826Y012456D01*
X007346Y012456D01*
X007346Y012446D01*
X007358Y012366D01*
X007383Y012290D01*
X007420Y012219D01*
X007467Y012154D01*
X007524Y012097D01*
X007528Y012093D01*
X007439Y012130D01*
X007326Y012130D01*
X007326Y012903D01*
X007273Y012956D01*
X006439Y012956D01*
X006386Y012903D01*
X006386Y012130D01*
X006272Y012130D01*
X006118Y012066D01*
X006000Y011948D01*
X005936Y011794D01*
X005936Y011627D01*
X006000Y011472D01*
X006118Y011354D01*
X006216Y011314D01*
X006216Y010794D01*
X006048Y010626D01*
X002012Y010626D01*
X001942Y010695D01*
X001769Y010695D01*
X001683Y010608D01*
X001683Y013151D01*
X012444Y013151D01*
X012401Y013046D01*
X012401Y012925D01*
X012447Y012813D01*
X012533Y012727D01*
X012645Y012681D01*
X012767Y012681D01*
X012879Y012727D01*
X012964Y012813D01*
X013011Y012925D01*
X013011Y013046D01*
X012968Y013151D01*
X013244Y013151D01*
X013201Y013046D01*
X013201Y012925D01*
X013247Y012813D01*
X013333Y012727D01*
X013445Y012681D01*
X013567Y012681D01*
X013679Y012727D01*
X013764Y012813D01*
X013811Y012925D01*
X013811Y013046D01*
X013768Y013151D01*
X014021Y013151D01*
X014021Y012616D01*
X013942Y012695D01*
X013769Y012695D01*
X013647Y012572D01*
X013647Y012399D01*
X013716Y012330D01*
X013716Y011044D01*
X012298Y009626D01*
X011208Y009626D01*
X011256Y009674D01*
X011256Y009688D01*
X011496Y009928D01*
X011496Y011314D01*
X011594Y011354D01*
X011712Y011472D01*
X011776Y011627D01*
X011776Y011794D01*
X011712Y011948D01*
X011594Y012066D01*
X011439Y012130D01*
X011272Y012130D01*
X011118Y012066D01*
X011000Y011948D01*
X010936Y011794D01*
X010936Y011627D01*
X011000Y011472D01*
X011118Y011354D01*
X011216Y011314D01*
X011216Y010044D01*
X011058Y009886D01*
X008204Y009886D01*
X008414Y010096D01*
X008496Y010178D01*
X008496Y011314D01*
X008594Y011354D01*
X008706Y011466D01*
X008706Y011131D01*
X008647Y011072D01*
X008647Y010899D01*
X008496Y010899D01*
X008496Y010957D02*
X008647Y010957D01*
X008647Y010899D02*
X008769Y010777D01*
X008942Y010777D01*
X009065Y010899D01*
X009065Y011072D01*
X009006Y011131D01*
X009006Y011466D01*
X009118Y011354D01*
X009216Y011314D01*
X009216Y011141D01*
X009147Y011072D01*
X009147Y010899D01*
X009065Y010899D01*
X009065Y010957D02*
X009147Y010957D01*
X009147Y010899D02*
X009269Y010777D01*
X009442Y010777D01*
X009565Y010899D01*
X009565Y011072D01*
X009496Y011141D01*
X009496Y011314D01*
X009594Y011354D01*
X009712Y011472D01*
X009776Y011627D01*
X009776Y011794D01*
X009712Y011948D01*
X009594Y012066D01*
X009496Y012107D01*
X009496Y012428D01*
X009595Y012527D01*
X009692Y012527D01*
X009815Y012649D01*
X009815Y012822D01*
X009692Y012945D01*
X009519Y012945D01*
X009397Y012822D01*
X009397Y012725D01*
X009304Y012632D01*
X009254Y012752D01*
X009122Y012884D01*
X008949Y012956D01*
X008762Y012956D01*
X008590Y012884D01*
X008457Y012752D01*
X008386Y012579D01*
X008386Y012392D01*
X008457Y012220D01*
X008590Y012087D01*
X008706Y012039D01*
X008706Y011954D01*
X008594Y012066D01*
X008439Y012130D01*
X008272Y012130D01*
X008183Y012093D01*
X008188Y012097D01*
X008245Y012154D01*
X008292Y012219D01*
X008329Y012290D01*
X008353Y012366D01*
X008366Y012446D01*
X008366Y012456D01*
X007886Y012456D01*
X007886Y012516D01*
X007826Y012516D01*
X007826Y012996D01*
X007816Y012996D01*
X007736Y012983D01*
X007660Y012958D01*
X007589Y012922D01*
X007524Y012875D01*
X007467Y012818D01*
X007420Y012753D01*
X007383Y012682D01*
X007358Y012605D01*
X007346Y012526D01*
X007346Y012516D01*
X007826Y012516D01*
X007826Y012456D01*
X007886Y012456D01*
X007886Y011976D01*
X007896Y011976D01*
X007975Y011988D01*
X008052Y012013D01*
X008079Y012027D01*
X008000Y011948D01*
X007936Y011794D01*
X007936Y011627D01*
X008000Y011472D01*
X008118Y011354D01*
X008216Y011314D01*
X008216Y010294D01*
X008048Y010126D01*
X002262Y010126D01*
X002192Y010195D01*
X002019Y010195D01*
X001897Y010072D01*
X001897Y009899D01*
X002019Y009777D01*
X002192Y009777D01*
X002262Y009846D01*
X004401Y009846D01*
X004247Y009691D01*
X004159Y009603D01*
X004159Y006060D01*
X004010Y005911D01*
X003965Y005911D01*
X003965Y006913D01*
X003912Y006966D01*
X003138Y006966D01*
X003085Y006913D01*
X003085Y005838D01*
X003138Y005786D01*
X003804Y005786D01*
X003804Y005616D01*
X003927Y005493D01*
X004100Y005493D01*
X004222Y005616D01*
X004222Y005699D01*
X004459Y005936D01*
X004459Y009479D01*
X004566Y009586D01*
X005910Y009586D01*
X005897Y009572D01*
X005897Y009399D01*
X006019Y009277D01*
X006192Y009277D01*
X006262Y009346D01*
X010170Y009346D01*
X010147Y009322D01*
X010147Y009149D01*
X010269Y009027D01*
X004459Y009027D01*
X004459Y009085D02*
X010211Y009085D01*
X010269Y009027D02*
X010442Y009027D01*
X010502Y009086D01*
X011794Y009086D01*
X011956Y008924D01*
X011956Y008186D01*
X011799Y008186D01*
X011747Y008133D01*
X011747Y007059D01*
X011799Y007006D01*
X012574Y007006D01*
X012627Y007059D01*
X012627Y008133D01*
X012574Y008186D01*
X012256Y008186D01*
X012256Y009048D01*
X012168Y009136D01*
X011958Y009346D01*
X012414Y009346D01*
X013914Y010846D01*
X013996Y010928D01*
X013996Y012330D01*
X013996Y012303D02*
X014021Y012303D01*
X014021Y012244D02*
X013996Y012244D01*
X013996Y012186D02*
X014021Y012186D01*
X014021Y012127D02*
X013996Y012127D01*
X013996Y012069D02*
X014021Y012069D01*
X014021Y012010D02*
X013996Y012010D01*
X013996Y011952D02*
X014021Y011952D01*
X014021Y011893D02*
X013996Y011893D01*
X013996Y011835D02*
X014021Y011835D01*
X014021Y011776D02*
X013996Y011776D01*
X013996Y011718D02*
X014021Y011718D01*
X014021Y011659D02*
X013996Y011659D01*
X013996Y011601D02*
X014021Y011601D01*
X014021Y011542D02*
X013996Y011542D01*
X013996Y011484D02*
X014021Y011484D01*
X014021Y011425D02*
X013996Y011425D01*
X013996Y011367D02*
X014021Y011367D01*
X014021Y011308D02*
X013996Y011308D01*
X013996Y011250D02*
X014021Y011250D01*
X014021Y011191D02*
X013996Y011191D01*
X013996Y011133D02*
X014021Y011133D01*
X014021Y011074D02*
X013996Y011074D01*
X013996Y011016D02*
X014021Y011016D01*
X014021Y010957D02*
X013996Y010957D01*
X014021Y010899D02*
X013967Y010899D01*
X014021Y010840D02*
X013908Y010840D01*
X013850Y010782D02*
X014021Y010782D01*
X014021Y010723D02*
X013791Y010723D01*
X013733Y010665D02*
X014021Y010665D01*
X014021Y010606D02*
X013674Y010606D01*
X013616Y010548D02*
X014021Y010548D01*
X014021Y010489D02*
X013557Y010489D01*
X013499Y010431D02*
X014021Y010431D01*
X014021Y010372D02*
X013440Y010372D01*
X013382Y010314D02*
X014021Y010314D01*
X014021Y010255D02*
X013323Y010255D01*
X013265Y010197D02*
X014021Y010197D01*
X014021Y010138D02*
X013206Y010138D01*
X013148Y010080D02*
X014021Y010080D01*
X014021Y010021D02*
X013089Y010021D01*
X013031Y009963D02*
X014021Y009963D01*
X014021Y009904D02*
X012972Y009904D01*
X012914Y009846D02*
X014021Y009846D01*
X014021Y009787D02*
X012855Y009787D01*
X012797Y009729D02*
X014021Y009729D01*
X014021Y009670D02*
X012738Y009670D01*
X012680Y009612D02*
X014021Y009612D01*
X014021Y009553D02*
X012621Y009553D01*
X012563Y009495D02*
X014021Y009495D01*
X014021Y009436D02*
X012504Y009436D01*
X012446Y009378D02*
X014021Y009378D01*
X014021Y009319D02*
X011984Y009319D01*
X012043Y009261D02*
X014021Y009261D01*
X014021Y009202D02*
X012101Y009202D01*
X012160Y009144D02*
X014021Y009144D01*
X014021Y009085D02*
X012219Y009085D01*
X012256Y009027D02*
X014021Y009027D01*
X014021Y008968D02*
X012256Y008968D01*
X012256Y008910D02*
X014021Y008910D01*
X014021Y008851D02*
X012256Y008851D01*
X012256Y008793D02*
X014021Y008793D01*
X014021Y008734D02*
X012256Y008734D01*
X012256Y008676D02*
X014021Y008676D01*
X014021Y008617D02*
X012256Y008617D01*
X012256Y008559D02*
X014021Y008559D01*
X014021Y008500D02*
X012256Y008500D01*
X012256Y008442D02*
X014021Y008442D01*
X014021Y008383D02*
X012256Y008383D01*
X012256Y008325D02*
X014021Y008325D01*
X014021Y008266D02*
X012256Y008266D01*
X012256Y008208D02*
X014021Y008208D01*
X014021Y008149D02*
X012611Y008149D01*
X012627Y008091D02*
X014021Y008091D01*
X014021Y008032D02*
X012627Y008032D01*
X012627Y007974D02*
X014021Y007974D01*
X014021Y007915D02*
X012627Y007915D01*
X012627Y007857D02*
X014021Y007857D01*
X014021Y007798D02*
X012627Y007798D01*
X012627Y007740D02*
X014021Y007740D01*
X014021Y007681D02*
X012627Y007681D01*
X012627Y007623D02*
X014021Y007623D01*
X014021Y007564D02*
X012627Y007564D01*
X012627Y007506D02*
X014021Y007506D01*
X014021Y007447D02*
X012627Y007447D01*
X012627Y007389D02*
X014021Y007389D01*
X014021Y007330D02*
X012627Y007330D01*
X012627Y007272D02*
X014021Y007272D01*
X014021Y007213D02*
X012627Y007213D01*
X012627Y007155D02*
X014021Y007155D01*
X014021Y007096D02*
X012627Y007096D01*
X012606Y007038D02*
X014021Y007038D01*
X014021Y006979D02*
X007886Y006979D01*
X007886Y006956D02*
X007886Y007016D01*
X007826Y007016D01*
X007826Y008691D01*
X006797Y008691D01*
X006649Y008678D01*
X006502Y008652D01*
X006359Y008613D01*
X006219Y008562D01*
X006084Y008499D01*
X005955Y008425D01*
X005833Y008340D01*
X005719Y008244D01*
X005614Y008139D01*
X005518Y008025D01*
X005432Y007903D01*
X005358Y007774D01*
X005295Y007639D01*
X005244Y007499D01*
X005206Y007355D01*
X005180Y007209D01*
X005167Y007060D01*
X005167Y007016D01*
X007826Y007016D01*
X007826Y006956D01*
X005167Y006956D01*
X005167Y006911D01*
X005180Y006763D01*
X005206Y006616D01*
X005244Y006473D01*
X005295Y006333D01*
X005358Y006198D01*
X005432Y006069D01*
X005518Y005947D01*
X005614Y005833D01*
X005719Y005728D01*
X005833Y005632D01*
X005955Y005547D01*
X006084Y005472D01*
X006219Y005409D01*
X006359Y005358D01*
X006502Y005320D01*
X006649Y005294D01*
X006797Y005281D01*
X007826Y005281D01*
X007826Y006956D01*
X007886Y006956D01*
X010545Y006956D01*
X010545Y006911D01*
X010532Y006763D01*
X010506Y006616D01*
X010468Y006473D01*
X010422Y006348D01*
X010519Y006445D01*
X010692Y006445D01*
X010762Y006376D01*
X011164Y006376D01*
X011246Y006294D01*
X011496Y006044D01*
X011496Y003178D01*
X011414Y003096D01*
X011164Y002846D01*
X007914Y002846D01*
X007640Y002572D01*
X007712Y002499D01*
X007776Y002345D01*
X007776Y002178D01*
X007712Y002024D01*
X007594Y001905D01*
X007523Y001876D01*
X008048Y001876D01*
X008098Y001926D01*
X008000Y002024D01*
X007936Y002178D01*
X007936Y002345D01*
X008000Y002499D01*
X008118Y002617D01*
X008272Y002681D01*
X008439Y002681D01*
X008594Y002617D01*
X008712Y002499D01*
X008776Y002345D01*
X008776Y002178D01*
X008712Y002024D01*
X008594Y001905D01*
X008439Y001841D01*
X008409Y001841D01*
X008194Y001626D01*
X009548Y001626D01*
X009984Y002062D01*
X009936Y002178D01*
X009936Y002345D01*
X010000Y002499D01*
X010118Y002617D01*
X010272Y002681D01*
X010439Y002681D01*
X010594Y002617D01*
X010712Y002499D01*
X010776Y002345D01*
X010776Y002178D01*
X010712Y002024D01*
X010594Y001905D01*
X010439Y001841D01*
X010272Y001841D01*
X010193Y001874D01*
X009746Y001428D01*
X009664Y001346D01*
X002798Y001346D01*
X001716Y002428D01*
X001716Y007794D01*
X001966Y008044D01*
X001966Y008044D01*
X002048Y008126D01*
X002664Y008126D01*
X002682Y008108D01*
X002769Y008195D01*
X002942Y008195D01*
X003065Y008072D01*
X003065Y007899D01*
X002996Y007830D01*
X002996Y003544D01*
X003664Y002876D01*
X005664Y002876D01*
X005914Y002626D01*
X005996Y002544D01*
X005996Y002490D01*
X006000Y002499D01*
X006118Y002617D01*
X006272Y002681D01*
X006439Y002681D01*
X006555Y002633D01*
X007298Y003376D01*
X008420Y003376D01*
X008397Y003399D01*
X008397Y003572D01*
X008519Y003695D01*
X008692Y003695D01*
X008762Y003626D01*
X008950Y003626D01*
X009019Y003695D01*
X009192Y003695D01*
X009315Y003572D01*
X009315Y003399D01*
X009292Y003376D01*
X010798Y003376D01*
X010966Y003544D01*
X010966Y005428D01*
X010798Y005596D01*
X010762Y005596D01*
X010692Y005527D01*
X010519Y005527D01*
X010397Y005649D01*
X010397Y005822D01*
X010519Y005945D01*
X010692Y005945D01*
X010762Y005876D01*
X010914Y005876D01*
X010996Y005794D01*
X011216Y005574D01*
X011216Y005928D01*
X011048Y006096D01*
X010762Y006096D01*
X010692Y006027D01*
X010519Y006027D01*
X010397Y006149D01*
X010397Y006290D01*
X010354Y006198D01*
X010279Y006069D01*
X010194Y005947D01*
X010098Y005833D01*
X009993Y005728D01*
X009879Y005632D01*
X009757Y005547D01*
X009628Y005472D01*
X009493Y005409D01*
X009353Y005358D01*
X009209Y005320D01*
X009063Y005294D01*
X008915Y005281D01*
X007886Y005281D01*
X007886Y006956D01*
X007886Y006921D02*
X007826Y006921D01*
X007826Y006979D02*
X004459Y006979D01*
X004459Y006921D02*
X005167Y006921D01*
X005171Y006862D02*
X004459Y006862D01*
X004459Y006804D02*
X005176Y006804D01*
X005183Y006745D02*
X004459Y006745D01*
X004459Y006687D02*
X005193Y006687D01*
X005204Y006628D02*
X004459Y006628D01*
X004459Y006570D02*
X005218Y006570D01*
X005234Y006511D02*
X004459Y006511D01*
X004459Y006453D02*
X005251Y006453D01*
X005273Y006394D02*
X004459Y006394D01*
X004459Y006336D02*
X005294Y006336D01*
X005321Y006277D02*
X004459Y006277D01*
X004459Y006219D02*
X005348Y006219D01*
X005380Y006160D02*
X004459Y006160D01*
X004459Y006102D02*
X005413Y006102D01*
X005450Y006043D02*
X004459Y006043D01*
X004459Y005985D02*
X005491Y005985D01*
X005535Y005926D02*
X004450Y005926D01*
X004391Y005868D02*
X005584Y005868D01*
X005637Y005809D02*
X004333Y005809D01*
X004274Y005751D02*
X005696Y005751D01*
X005761Y005692D02*
X004222Y005692D01*
X004222Y005634D02*
X005831Y005634D01*
X005914Y005575D02*
X004182Y005575D01*
X004124Y005517D02*
X006006Y005517D01*
X006113Y005458D02*
X002996Y005458D01*
X002996Y005400D02*
X006245Y005400D01*
X006422Y005341D02*
X002996Y005341D01*
X002996Y005283D02*
X006776Y005283D01*
X007826Y005283D02*
X007886Y005283D01*
X007886Y005341D02*
X007826Y005341D01*
X007826Y005400D02*
X007886Y005400D01*
X007886Y005458D02*
X007826Y005458D01*
X007826Y005517D02*
X007886Y005517D01*
X007886Y005575D02*
X007826Y005575D01*
X007826Y005634D02*
X007886Y005634D01*
X007886Y005692D02*
X007826Y005692D01*
X007826Y005751D02*
X007886Y005751D01*
X007886Y005809D02*
X007826Y005809D01*
X007826Y005868D02*
X007886Y005868D01*
X007886Y005926D02*
X007826Y005926D01*
X007826Y005985D02*
X007886Y005985D01*
X007886Y006043D02*
X007826Y006043D01*
X007826Y006102D02*
X007886Y006102D01*
X007886Y006160D02*
X007826Y006160D01*
X007826Y006219D02*
X007886Y006219D01*
X007886Y006277D02*
X007826Y006277D01*
X007826Y006336D02*
X007886Y006336D01*
X007886Y006394D02*
X007826Y006394D01*
X007826Y006453D02*
X007886Y006453D01*
X007886Y006511D02*
X007826Y006511D01*
X007826Y006570D02*
X007886Y006570D01*
X007886Y006628D02*
X007826Y006628D01*
X007826Y006687D02*
X007886Y006687D01*
X007886Y006745D02*
X007826Y006745D01*
X007826Y006804D02*
X007886Y006804D01*
X007886Y006862D02*
X007826Y006862D01*
X007886Y007016D02*
X010545Y007016D01*
X010545Y007060D01*
X010532Y007209D01*
X010506Y007355D01*
X010468Y007499D01*
X010417Y007639D01*
X010354Y007774D01*
X010279Y007903D01*
X010194Y008025D01*
X010098Y008139D01*
X009993Y008244D01*
X009879Y008340D01*
X009757Y008425D01*
X009628Y008499D01*
X009493Y008562D01*
X009353Y008613D01*
X009209Y008652D01*
X009063Y008678D01*
X008915Y008691D01*
X007886Y008691D01*
X007886Y007016D01*
X007886Y007038D02*
X007826Y007038D01*
X007826Y007096D02*
X007886Y007096D01*
X007886Y007155D02*
X007826Y007155D01*
X007826Y007213D02*
X007886Y007213D01*
X007886Y007272D02*
X007826Y007272D01*
X007826Y007330D02*
X007886Y007330D01*
X007886Y007389D02*
X007826Y007389D01*
X007826Y007447D02*
X007886Y007447D01*
X007886Y007506D02*
X007826Y007506D01*
X007826Y007564D02*
X007886Y007564D01*
X007886Y007623D02*
X007826Y007623D01*
X007826Y007681D02*
X007886Y007681D01*
X007886Y007740D02*
X007826Y007740D01*
X007826Y007798D02*
X007886Y007798D01*
X007886Y007857D02*
X007826Y007857D01*
X007826Y007915D02*
X007886Y007915D01*
X007886Y007974D02*
X007826Y007974D01*
X007826Y008032D02*
X007886Y008032D01*
X007886Y008091D02*
X007826Y008091D01*
X007826Y008149D02*
X007886Y008149D01*
X007886Y008208D02*
X007826Y008208D01*
X007826Y008266D02*
X007886Y008266D01*
X007886Y008325D02*
X007826Y008325D01*
X007826Y008383D02*
X007886Y008383D01*
X007886Y008442D02*
X007826Y008442D01*
X007826Y008500D02*
X007886Y008500D01*
X007886Y008559D02*
X007826Y008559D01*
X007826Y008617D02*
X007886Y008617D01*
X007886Y008676D02*
X007826Y008676D01*
X006639Y008676D02*
X005315Y008676D01*
X005315Y008649D02*
X005246Y008580D01*
X005246Y007524D01*
X005108Y007387D01*
X005108Y007289D01*
X004986Y007167D01*
X004813Y007167D01*
X004690Y007289D01*
X004690Y007462D01*
X004813Y007585D01*
X004910Y007585D01*
X004966Y007640D01*
X004966Y008580D01*
X004897Y008649D01*
X004897Y008822D01*
X005019Y008945D01*
X005192Y008945D01*
X005315Y008822D01*
X005315Y008649D01*
X005283Y008617D02*
X006374Y008617D01*
X006211Y008559D02*
X005246Y008559D01*
X005246Y008500D02*
X006086Y008500D01*
X005984Y008442D02*
X005246Y008442D01*
X005246Y008383D02*
X005895Y008383D01*
X005815Y008325D02*
X005246Y008325D01*
X005246Y008266D02*
X005746Y008266D01*
X005683Y008208D02*
X005246Y008208D01*
X005246Y008149D02*
X005624Y008149D01*
X005573Y008091D02*
X005246Y008091D01*
X005246Y008032D02*
X005524Y008032D01*
X005482Y007974D02*
X005246Y007974D01*
X005246Y007915D02*
X005441Y007915D01*
X005406Y007857D02*
X005246Y007857D01*
X005246Y007798D02*
X005372Y007798D01*
X005342Y007740D02*
X005246Y007740D01*
X005246Y007681D02*
X005315Y007681D01*
X005289Y007623D02*
X005246Y007623D01*
X005246Y007564D02*
X005268Y007564D01*
X005247Y007506D02*
X005227Y007506D01*
X005230Y007447D02*
X005169Y007447D01*
X005215Y007389D02*
X005110Y007389D01*
X005108Y007330D02*
X005201Y007330D01*
X005191Y007272D02*
X005091Y007272D01*
X005033Y007213D02*
X005181Y007213D01*
X005175Y007155D02*
X004459Y007155D01*
X004459Y007213D02*
X004766Y007213D01*
X004707Y007272D02*
X004459Y007272D01*
X004459Y007330D02*
X004690Y007330D01*
X004690Y007389D02*
X004459Y007389D01*
X004459Y007447D02*
X004690Y007447D01*
X004734Y007506D02*
X004459Y007506D01*
X004459Y007564D02*
X004792Y007564D01*
X004948Y007623D02*
X004459Y007623D01*
X004459Y007681D02*
X004966Y007681D01*
X004966Y007740D02*
X004459Y007740D01*
X004459Y007798D02*
X004966Y007798D01*
X004966Y007857D02*
X004459Y007857D01*
X004459Y007915D02*
X004966Y007915D01*
X004966Y007974D02*
X004459Y007974D01*
X004459Y008032D02*
X004966Y008032D01*
X004966Y008091D02*
X004459Y008091D01*
X004459Y008149D02*
X004966Y008149D01*
X004966Y008208D02*
X004459Y008208D01*
X004459Y008266D02*
X004966Y008266D01*
X004966Y008325D02*
X004459Y008325D01*
X004459Y008383D02*
X004966Y008383D01*
X004966Y008442D02*
X004459Y008442D01*
X004459Y008500D02*
X004966Y008500D01*
X004966Y008559D02*
X004459Y008559D01*
X004459Y008617D02*
X004929Y008617D01*
X004897Y008676D02*
X004459Y008676D01*
X004459Y008734D02*
X004897Y008734D01*
X004897Y008793D02*
X004459Y008793D01*
X004459Y008851D02*
X004926Y008851D01*
X004984Y008910D02*
X004459Y008910D01*
X004459Y008968D02*
X011911Y008968D01*
X011956Y008910D02*
X011728Y008910D01*
X011692Y008945D02*
X011519Y008945D01*
X011460Y008886D01*
X010502Y008886D01*
X010442Y008945D01*
X010269Y008945D01*
X010147Y008822D01*
X010147Y008649D01*
X010269Y008527D01*
X010442Y008527D01*
X010502Y008586D01*
X011460Y008586D01*
X011519Y008527D01*
X011692Y008527D01*
X011815Y008649D01*
X011815Y008822D01*
X011692Y008945D01*
X011786Y008851D02*
X011956Y008851D01*
X011956Y008793D02*
X011815Y008793D01*
X011815Y008734D02*
X011956Y008734D01*
X011956Y008676D02*
X011815Y008676D01*
X011783Y008617D02*
X011956Y008617D01*
X011956Y008559D02*
X011725Y008559D01*
X011487Y008559D02*
X010475Y008559D01*
X010442Y008445D02*
X010269Y008445D01*
X010147Y008322D01*
X010147Y008149D01*
X010269Y008027D01*
X010442Y008027D01*
X010502Y008086D01*
X011210Y008086D01*
X011269Y008027D01*
X011442Y008027D01*
X011565Y008149D01*
X011565Y008322D01*
X011442Y008445D01*
X011269Y008445D01*
X011210Y008386D01*
X010502Y008386D01*
X010442Y008445D01*
X010446Y008442D02*
X011266Y008442D01*
X011446Y008442D02*
X011956Y008442D01*
X011956Y008500D02*
X009626Y008500D01*
X009728Y008442D02*
X010266Y008442D01*
X010208Y008383D02*
X009817Y008383D01*
X009897Y008325D02*
X010149Y008325D01*
X010147Y008266D02*
X009966Y008266D01*
X010029Y008208D02*
X010147Y008208D01*
X010147Y008149D02*
X010088Y008149D01*
X010138Y008091D02*
X010205Y008091D01*
X010187Y008032D02*
X010264Y008032D01*
X010230Y007974D02*
X011747Y007974D01*
X011747Y008032D02*
X011448Y008032D01*
X011507Y008091D02*
X011747Y008091D01*
X011763Y008149D02*
X011565Y008149D01*
X011565Y008208D02*
X011956Y008208D01*
X011956Y008266D02*
X011565Y008266D01*
X011563Y008325D02*
X011956Y008325D01*
X011956Y008383D02*
X011504Y008383D01*
X011264Y008032D02*
X010448Y008032D01*
X010270Y007915D02*
X011747Y007915D01*
X011747Y007857D02*
X010306Y007857D01*
X010340Y007798D02*
X011747Y007798D01*
X011747Y007740D02*
X010370Y007740D01*
X010397Y007681D02*
X011747Y007681D01*
X011747Y007623D02*
X010423Y007623D01*
X010444Y007564D02*
X011747Y007564D01*
X011747Y007506D02*
X010465Y007506D01*
X010481Y007447D02*
X011747Y007447D01*
X011747Y007389D02*
X010497Y007389D01*
X010511Y007330D02*
X011747Y007330D01*
X011747Y007272D02*
X010521Y007272D01*
X010531Y007213D02*
X011747Y007213D01*
X011747Y007155D02*
X010537Y007155D01*
X010542Y007096D02*
X011747Y007096D01*
X011768Y007038D02*
X010545Y007038D01*
X010545Y006921D02*
X011755Y006921D01*
X011747Y006913D02*
X011799Y006966D01*
X012574Y006966D01*
X012627Y006913D01*
X012627Y005838D01*
X012574Y005786D01*
X011799Y005786D01*
X011747Y005838D01*
X011747Y006913D01*
X011747Y006862D02*
X010541Y006862D01*
X010536Y006804D02*
X011747Y006804D01*
X011747Y006745D02*
X010529Y006745D01*
X010519Y006687D02*
X011747Y006687D01*
X011747Y006628D02*
X010508Y006628D01*
X010494Y006570D02*
X011747Y006570D01*
X011747Y006511D02*
X010478Y006511D01*
X010460Y006453D02*
X011747Y006453D01*
X011747Y006394D02*
X010743Y006394D01*
X010469Y006394D02*
X010439Y006394D01*
X010397Y006277D02*
X010391Y006277D01*
X010397Y006219D02*
X010364Y006219D01*
X010332Y006160D02*
X010397Y006160D01*
X010444Y006102D02*
X010298Y006102D01*
X010261Y006043D02*
X010503Y006043D01*
X010501Y005926D02*
X010177Y005926D01*
X010220Y005985D02*
X011159Y005985D01*
X011216Y005926D02*
X010711Y005926D01*
X010709Y006043D02*
X011100Y006043D01*
X011216Y005868D02*
X010922Y005868D01*
X010980Y005809D02*
X011216Y005809D01*
X011216Y005751D02*
X011039Y005751D01*
X011097Y005692D02*
X011216Y005692D01*
X011216Y005634D02*
X011156Y005634D01*
X011214Y005575D02*
X011216Y005575D01*
X011496Y005575D02*
X014021Y005575D01*
X014021Y005517D02*
X011496Y005517D01*
X011496Y005458D02*
X014021Y005458D01*
X014021Y005400D02*
X011496Y005400D01*
X011496Y005341D02*
X014021Y005341D01*
X014021Y005283D02*
X011496Y005283D01*
X011496Y005224D02*
X014021Y005224D01*
X014021Y005166D02*
X011496Y005166D01*
X011496Y005107D02*
X014021Y005107D01*
X014021Y005049D02*
X011496Y005049D01*
X011496Y004990D02*
X014021Y004990D01*
X014021Y004932D02*
X011496Y004932D01*
X011496Y004873D02*
X014021Y004873D01*
X014021Y004815D02*
X011496Y004815D01*
X011496Y004756D02*
X014021Y004756D01*
X014021Y004698D02*
X011496Y004698D01*
X011496Y004639D02*
X014021Y004639D01*
X014021Y004581D02*
X011496Y004581D01*
X011496Y004522D02*
X014021Y004522D01*
X014021Y004464D02*
X011496Y004464D01*
X011496Y004405D02*
X014021Y004405D01*
X014021Y004347D02*
X011496Y004347D01*
X011496Y004288D02*
X014021Y004288D01*
X014021Y004230D02*
X011496Y004230D01*
X011496Y004171D02*
X014021Y004171D01*
X014021Y004113D02*
X011496Y004113D01*
X011496Y004054D02*
X014021Y004054D01*
X014021Y003996D02*
X011496Y003996D01*
X011496Y003937D02*
X014021Y003937D01*
X014021Y003879D02*
X011496Y003879D01*
X011496Y003820D02*
X014021Y003820D01*
X014021Y003762D02*
X011496Y003762D01*
X011496Y003703D02*
X014021Y003703D01*
X014021Y003645D02*
X011496Y003645D01*
X011496Y003586D02*
X014021Y003586D01*
X014021Y003528D02*
X011496Y003528D01*
X011496Y003469D02*
X014021Y003469D01*
X014021Y003411D02*
X011496Y003411D01*
X011496Y003352D02*
X014021Y003352D01*
X014021Y003294D02*
X011496Y003294D01*
X011496Y003235D02*
X014021Y003235D01*
X014021Y003177D02*
X011495Y003177D01*
X011436Y003118D02*
X014021Y003118D01*
X014021Y003060D02*
X011378Y003060D01*
X011319Y003001D02*
X014021Y003001D01*
X014021Y002943D02*
X011261Y002943D01*
X011202Y002884D02*
X014021Y002884D01*
X014021Y002826D02*
X007894Y002826D01*
X007835Y002767D02*
X014021Y002767D01*
X014021Y002709D02*
X007777Y002709D01*
X007718Y002650D02*
X008197Y002650D01*
X008092Y002592D02*
X007660Y002592D01*
X007678Y002533D02*
X008034Y002533D01*
X007990Y002475D02*
X007722Y002475D01*
X007746Y002416D02*
X007965Y002416D01*
X007941Y002358D02*
X007771Y002358D01*
X007776Y002299D02*
X007936Y002299D01*
X007936Y002241D02*
X007776Y002241D01*
X007776Y002182D02*
X007936Y002182D01*
X007958Y002124D02*
X007754Y002124D01*
X007729Y002065D02*
X007983Y002065D01*
X008017Y002007D02*
X007695Y002007D01*
X007637Y001948D02*
X008075Y001948D01*
X008062Y001890D02*
X007556Y001890D01*
X008224Y001656D02*
X009578Y001656D01*
X009636Y001714D02*
X008282Y001714D01*
X008341Y001773D02*
X009695Y001773D01*
X009753Y001831D02*
X008399Y001831D01*
X008556Y001890D02*
X009155Y001890D01*
X009118Y001905D02*
X009272Y001841D01*
X009439Y001841D01*
X009594Y001905D01*
X009712Y002024D01*
X009776Y002178D01*
X009776Y002345D01*
X009712Y002499D01*
X009594Y002617D01*
X009439Y002681D01*
X009272Y002681D01*
X009118Y002617D01*
X009000Y002499D01*
X008936Y002345D01*
X008936Y002178D01*
X009000Y002024D01*
X009118Y001905D01*
X009075Y001948D02*
X008637Y001948D01*
X008695Y002007D02*
X009017Y002007D01*
X008983Y002065D02*
X008729Y002065D01*
X008754Y002124D02*
X008958Y002124D01*
X008936Y002182D02*
X008776Y002182D01*
X008776Y002241D02*
X008936Y002241D01*
X008936Y002299D02*
X008776Y002299D01*
X008771Y002358D02*
X008941Y002358D01*
X008965Y002416D02*
X008746Y002416D01*
X008722Y002475D02*
X008990Y002475D01*
X009034Y002533D02*
X008678Y002533D01*
X008619Y002592D02*
X009092Y002592D01*
X009197Y002650D02*
X008514Y002650D01*
X008397Y003411D02*
X003129Y003411D01*
X003070Y003469D02*
X008397Y003469D01*
X008397Y003528D02*
X003012Y003528D01*
X002996Y003586D02*
X008411Y003586D01*
X008469Y003645D02*
X002996Y003645D01*
X002996Y003703D02*
X010966Y003703D01*
X010966Y003645D02*
X009243Y003645D01*
X009301Y003586D02*
X010966Y003586D01*
X010950Y003528D02*
X009315Y003528D01*
X009315Y003469D02*
X010891Y003469D01*
X010833Y003411D02*
X009315Y003411D01*
X008969Y003645D02*
X008743Y003645D01*
X008692Y004027D02*
X008519Y004027D01*
X008397Y004149D01*
X008397Y004322D01*
X008519Y004445D01*
X008692Y004445D01*
X008762Y004376D01*
X008950Y004376D01*
X009019Y004445D01*
X009192Y004445D01*
X009315Y004322D01*
X009315Y004149D01*
X009192Y004027D01*
X009019Y004027D01*
X008950Y004096D01*
X008762Y004096D01*
X008692Y004027D01*
X008720Y004054D02*
X008992Y004054D01*
X009220Y004054D02*
X010966Y004054D01*
X010966Y003996D02*
X002996Y003996D01*
X002996Y004054D02*
X008492Y004054D01*
X008433Y004113D02*
X002996Y004113D01*
X002996Y004171D02*
X008397Y004171D01*
X008397Y004230D02*
X002996Y004230D01*
X002996Y004288D02*
X008397Y004288D01*
X008421Y004347D02*
X002996Y004347D01*
X002996Y004405D02*
X008480Y004405D01*
X008732Y004405D02*
X008980Y004405D01*
X009232Y004405D02*
X010966Y004405D01*
X010966Y004347D02*
X009291Y004347D01*
X009315Y004288D02*
X010966Y004288D01*
X010966Y004230D02*
X009315Y004230D01*
X009315Y004171D02*
X010966Y004171D01*
X010966Y004113D02*
X009279Y004113D01*
X008935Y005283D02*
X010966Y005283D01*
X010966Y005341D02*
X009290Y005341D01*
X009467Y005400D02*
X010966Y005400D01*
X010935Y005458D02*
X009598Y005458D01*
X009705Y005517D02*
X010877Y005517D01*
X010818Y005575D02*
X010741Y005575D01*
X010471Y005575D02*
X009798Y005575D01*
X009881Y005634D02*
X010412Y005634D01*
X010397Y005692D02*
X009951Y005692D01*
X010016Y005751D02*
X010397Y005751D01*
X010397Y005809D02*
X010075Y005809D01*
X010128Y005868D02*
X010442Y005868D01*
X010966Y005224D02*
X002996Y005224D01*
X002996Y005166D02*
X010966Y005166D01*
X010966Y005107D02*
X002996Y005107D01*
X002996Y005049D02*
X010966Y005049D01*
X010966Y004990D02*
X002996Y004990D01*
X002996Y004932D02*
X010966Y004932D01*
X010966Y004873D02*
X002996Y004873D01*
X002996Y004815D02*
X010966Y004815D01*
X010966Y004756D02*
X002996Y004756D01*
X002996Y004698D02*
X010966Y004698D01*
X010966Y004639D02*
X002996Y004639D01*
X002996Y004581D02*
X010966Y004581D01*
X010966Y004522D02*
X002996Y004522D01*
X002996Y004464D02*
X010966Y004464D01*
X010966Y003937D02*
X002996Y003937D01*
X002996Y003879D02*
X010966Y003879D01*
X010966Y003820D02*
X002996Y003820D01*
X002996Y003762D02*
X010966Y003762D01*
X011272Y002681D02*
X011118Y002617D01*
X011000Y002499D01*
X010936Y002345D01*
X010936Y002178D01*
X011000Y002024D01*
X011118Y001905D01*
X011272Y001841D01*
X011439Y001841D01*
X011594Y001905D01*
X011712Y002024D01*
X011776Y002178D01*
X011776Y002345D01*
X011712Y002499D01*
X011594Y002617D01*
X011439Y002681D01*
X011272Y002681D01*
X011197Y002650D02*
X010514Y002650D01*
X010619Y002592D02*
X011092Y002592D01*
X011034Y002533D02*
X010678Y002533D01*
X010722Y002475D02*
X010990Y002475D01*
X010965Y002416D02*
X010746Y002416D01*
X010771Y002358D02*
X010941Y002358D01*
X010936Y002299D02*
X010776Y002299D01*
X010776Y002241D02*
X010936Y002241D01*
X010936Y002182D02*
X010776Y002182D01*
X010754Y002124D02*
X010958Y002124D01*
X010983Y002065D02*
X010729Y002065D01*
X010695Y002007D02*
X011017Y002007D01*
X011075Y001948D02*
X010637Y001948D01*
X010556Y001890D02*
X011155Y001890D01*
X011556Y001890D02*
X012583Y001890D01*
X012581Y001886D02*
X012580Y001883D01*
X012577Y001881D01*
X012572Y001862D01*
X012568Y001853D01*
X012568Y001851D01*
X012568Y001849D01*
X012560Y001827D01*
X012557Y001826D01*
X012548Y001796D01*
X012536Y001767D01*
X012537Y001764D01*
X012530Y001742D01*
X012516Y001711D01*
X012518Y001707D01*
X012517Y001703D01*
X012532Y001673D01*
X012544Y001642D01*
X012547Y001641D01*
X012553Y001627D01*
X012555Y001621D01*
X012555Y001598D01*
X012567Y001587D01*
X012572Y001572D01*
X012592Y001561D01*
X012608Y001545D01*
X012624Y001545D01*
X012638Y001538D01*
X012660Y001545D01*
X012982Y001545D01*
X012997Y001538D01*
X013018Y001545D01*
X013041Y001545D01*
X013052Y001557D01*
X013067Y001562D01*
X013078Y001582D01*
X013094Y001598D01*
X013094Y001613D01*
X013097Y001621D01*
X013107Y001642D01*
X013109Y001642D01*
X013121Y001673D01*
X013136Y001703D01*
X013135Y001707D01*
X013136Y001711D01*
X013123Y001742D01*
X013116Y001764D01*
X013117Y001767D01*
X013104Y001796D01*
X013096Y001826D01*
X013090Y001829D01*
X013082Y001846D01*
X013085Y001853D01*
X013073Y001881D01*
X013066Y001910D01*
X013060Y001914D01*
X013058Y001920D01*
X013058Y001944D01*
X013048Y001954D01*
X013044Y001968D01*
X013023Y001980D01*
X013005Y001997D01*
X012991Y001997D01*
X012979Y002004D01*
X012956Y001997D01*
X012697Y001997D01*
X012674Y002004D01*
X012661Y001997D01*
X012647Y001997D01*
X012630Y001980D01*
X012608Y001968D01*
X012605Y001954D01*
X012595Y001944D01*
X012595Y001920D01*
X012594Y001919D01*
X012594Y001918D01*
X012581Y001886D01*
X012561Y001831D02*
X010149Y001831D01*
X010091Y001773D02*
X012539Y001773D01*
X012518Y001714D02*
X010032Y001714D01*
X009974Y001656D02*
X012539Y001656D01*
X012556Y001597D02*
X009915Y001597D01*
X009857Y001539D02*
X012637Y001539D01*
X012640Y001539D02*
X012995Y001539D01*
X012998Y001539D02*
X014021Y001539D01*
X014021Y001597D02*
X013093Y001597D01*
X013114Y001656D02*
X014021Y001656D01*
X014021Y001714D02*
X013135Y001714D01*
X013114Y001773D02*
X014021Y001773D01*
X014021Y001831D02*
X013089Y001831D01*
X013071Y001890D02*
X014021Y001890D01*
X014021Y001948D02*
X013054Y001948D01*
X012599Y001948D02*
X011637Y001948D01*
X011695Y002007D02*
X014021Y002007D01*
X014021Y002065D02*
X011729Y002065D01*
X011754Y002124D02*
X014021Y002124D01*
X014021Y002182D02*
X011776Y002182D01*
X011776Y002241D02*
X014021Y002241D01*
X014021Y002299D02*
X011776Y002299D01*
X011771Y002358D02*
X014021Y002358D01*
X014021Y002416D02*
X011746Y002416D01*
X011722Y002475D02*
X014021Y002475D01*
X014021Y002533D02*
X011678Y002533D01*
X011619Y002592D02*
X014021Y002592D01*
X014021Y002650D02*
X011514Y002650D01*
X010197Y002650D02*
X009514Y002650D01*
X009619Y002592D02*
X010092Y002592D01*
X010034Y002533D02*
X009678Y002533D01*
X009722Y002475D02*
X009990Y002475D01*
X009965Y002416D02*
X009746Y002416D01*
X009771Y002358D02*
X009941Y002358D01*
X009936Y002299D02*
X009776Y002299D01*
X009776Y002241D02*
X009936Y002241D01*
X009936Y002182D02*
X009776Y002182D01*
X009754Y002124D02*
X009958Y002124D01*
X009983Y002065D02*
X009729Y002065D01*
X009695Y002007D02*
X009929Y002007D01*
X009870Y001948D02*
X009637Y001948D01*
X009556Y001890D02*
X009812Y001890D01*
X009798Y001480D02*
X014021Y001480D01*
X014021Y001422D02*
X009740Y001422D01*
X009681Y001363D02*
X014021Y001363D01*
X014021Y001305D02*
X001683Y001305D01*
X001683Y001363D02*
X002780Y001363D01*
X002722Y001422D02*
X001683Y001422D01*
X001683Y001480D02*
X002663Y001480D01*
X002605Y001539D02*
X001683Y001539D01*
X001683Y001597D02*
X002546Y001597D01*
X002488Y001656D02*
X001683Y001656D01*
X001683Y001714D02*
X002429Y001714D01*
X002371Y001773D02*
X001683Y001773D01*
X001683Y001831D02*
X002312Y001831D01*
X002254Y001890D02*
X001683Y001890D01*
X001683Y001948D02*
X002195Y001948D01*
X002137Y002007D02*
X001683Y002007D01*
X001683Y002065D02*
X002078Y002065D01*
X002020Y002124D02*
X001683Y002124D01*
X001683Y002182D02*
X001961Y002182D01*
X001903Y002241D02*
X001683Y002241D01*
X001683Y002299D02*
X001844Y002299D01*
X001786Y002358D02*
X001683Y002358D01*
X001683Y002416D02*
X001727Y002416D01*
X001716Y002475D02*
X001683Y002475D01*
X001683Y002533D02*
X001716Y002533D01*
X001716Y002592D02*
X001683Y002592D01*
X001683Y002650D02*
X001716Y002650D01*
X001716Y002709D02*
X001683Y002709D01*
X001683Y002767D02*
X001716Y002767D01*
X001716Y002826D02*
X001683Y002826D01*
X001683Y002884D02*
X001716Y002884D01*
X001716Y002943D02*
X001683Y002943D01*
X001683Y003001D02*
X001716Y003001D01*
X001716Y003060D02*
X001683Y003060D01*
X001683Y003118D02*
X001716Y003118D01*
X001716Y003177D02*
X001683Y003177D01*
X001683Y003235D02*
X001716Y003235D01*
X001716Y003294D02*
X001683Y003294D01*
X001683Y003352D02*
X001716Y003352D01*
X001716Y003411D02*
X001683Y003411D01*
X001683Y003469D02*
X001716Y003469D01*
X001716Y003528D02*
X001683Y003528D01*
X001683Y003586D02*
X001716Y003586D01*
X001716Y003645D02*
X001683Y003645D01*
X001683Y003703D02*
X001716Y003703D01*
X001716Y003762D02*
X001683Y003762D01*
X001683Y003820D02*
X001716Y003820D01*
X001716Y003879D02*
X001683Y003879D01*
X001683Y003937D02*
X001716Y003937D01*
X001716Y003996D02*
X001683Y003996D01*
X001683Y004054D02*
X001716Y004054D01*
X001716Y004113D02*
X001683Y004113D01*
X001683Y004171D02*
X001716Y004171D01*
X001716Y004230D02*
X001683Y004230D01*
X001683Y004288D02*
X001716Y004288D01*
X001716Y004347D02*
X001683Y004347D01*
X001683Y004405D02*
X001716Y004405D01*
X001716Y004464D02*
X001683Y004464D01*
X001683Y004522D02*
X001716Y004522D01*
X001716Y004581D02*
X001683Y004581D01*
X001683Y004639D02*
X001716Y004639D01*
X001716Y004698D02*
X001683Y004698D01*
X001683Y004756D02*
X001716Y004756D01*
X001716Y004815D02*
X001683Y004815D01*
X001683Y004873D02*
X001716Y004873D01*
X001716Y004932D02*
X001683Y004932D01*
X001683Y004990D02*
X001716Y004990D01*
X001716Y005049D02*
X001683Y005049D01*
X001683Y005107D02*
X001716Y005107D01*
X001716Y005166D02*
X001683Y005166D01*
X001683Y005224D02*
X001716Y005224D01*
X001716Y005283D02*
X001683Y005283D01*
X001683Y005341D02*
X001716Y005341D01*
X001716Y005400D02*
X001683Y005400D01*
X001683Y005458D02*
X001716Y005458D01*
X001716Y005517D02*
X001683Y005517D01*
X001683Y005575D02*
X001716Y005575D01*
X001716Y005634D02*
X001683Y005634D01*
X001683Y005692D02*
X001716Y005692D01*
X001716Y005751D02*
X001683Y005751D01*
X001683Y005809D02*
X001716Y005809D01*
X001716Y005868D02*
X001683Y005868D01*
X001683Y005926D02*
X001716Y005926D01*
X001716Y005985D02*
X001683Y005985D01*
X001683Y006043D02*
X001716Y006043D01*
X001716Y006102D02*
X001683Y006102D01*
X001683Y006160D02*
X001716Y006160D01*
X001716Y006219D02*
X001683Y006219D01*
X001683Y006277D02*
X001716Y006277D01*
X001716Y006336D02*
X001683Y006336D01*
X001683Y006394D02*
X001716Y006394D01*
X001716Y006453D02*
X001683Y006453D01*
X001683Y006511D02*
X001716Y006511D01*
X001716Y006570D02*
X001683Y006570D01*
X001683Y006628D02*
X001716Y006628D01*
X001716Y006687D02*
X001683Y006687D01*
X001683Y006745D02*
X001716Y006745D01*
X001716Y006804D02*
X001683Y006804D01*
X001683Y006862D02*
X001716Y006862D01*
X001716Y006921D02*
X001683Y006921D01*
X001683Y006979D02*
X001716Y006979D01*
X001716Y007038D02*
X001683Y007038D01*
X001683Y007096D02*
X001716Y007096D01*
X001716Y007155D02*
X001683Y007155D01*
X001683Y007213D02*
X001716Y007213D01*
X001716Y007272D02*
X001683Y007272D01*
X001683Y007330D02*
X001716Y007330D01*
X001716Y007389D02*
X001683Y007389D01*
X001683Y007447D02*
X001716Y007447D01*
X001716Y007506D02*
X001683Y007506D01*
X001683Y007564D02*
X001716Y007564D01*
X001716Y007623D02*
X001683Y007623D01*
X001683Y007681D02*
X001716Y007681D01*
X001716Y007740D02*
X001683Y007740D01*
X001683Y007798D02*
X001720Y007798D01*
X001683Y007857D02*
X001779Y007857D01*
X001837Y007915D02*
X001683Y007915D01*
X001683Y007974D02*
X001896Y007974D01*
X001954Y008032D02*
X001683Y008032D01*
X001683Y008091D02*
X002013Y008091D01*
X001683Y008149D02*
X002724Y008149D01*
X002988Y008149D02*
X003101Y008149D01*
X003085Y008133D02*
X003085Y007059D01*
X003138Y007006D01*
X003912Y007006D01*
X003965Y007059D01*
X003965Y008133D01*
X003912Y008186D01*
X003138Y008186D01*
X003085Y008133D01*
X003085Y008091D02*
X003047Y008091D01*
X003065Y008032D02*
X003085Y008032D01*
X003085Y007974D02*
X003065Y007974D01*
X003065Y007915D02*
X003085Y007915D01*
X003085Y007857D02*
X003023Y007857D01*
X002996Y007798D02*
X003085Y007798D01*
X003085Y007740D02*
X002996Y007740D01*
X002996Y007681D02*
X003085Y007681D01*
X003085Y007623D02*
X002996Y007623D01*
X002996Y007564D02*
X003085Y007564D01*
X003085Y007506D02*
X002996Y007506D01*
X002996Y007447D02*
X003085Y007447D01*
X003085Y007389D02*
X002996Y007389D01*
X002996Y007330D02*
X003085Y007330D01*
X003085Y007272D02*
X002996Y007272D01*
X002996Y007213D02*
X003085Y007213D01*
X003085Y007155D02*
X002996Y007155D01*
X002996Y007096D02*
X003085Y007096D01*
X003106Y007038D02*
X002996Y007038D01*
X002996Y006979D02*
X004159Y006979D01*
X004159Y006921D02*
X003957Y006921D01*
X003965Y006862D02*
X004159Y006862D01*
X004159Y006804D02*
X003965Y006804D01*
X003965Y006745D02*
X004159Y006745D01*
X004159Y006687D02*
X003965Y006687D01*
X003965Y006628D02*
X004159Y006628D01*
X004159Y006570D02*
X003965Y006570D01*
X003965Y006511D02*
X004159Y006511D01*
X004159Y006453D02*
X003965Y006453D01*
X003965Y006394D02*
X004159Y006394D01*
X004159Y006336D02*
X003965Y006336D01*
X003965Y006277D02*
X004159Y006277D01*
X004159Y006219D02*
X003965Y006219D01*
X003965Y006160D02*
X004159Y006160D01*
X004159Y006102D02*
X003965Y006102D01*
X003965Y006043D02*
X004142Y006043D01*
X004084Y005985D02*
X003965Y005985D01*
X003965Y005926D02*
X004025Y005926D01*
X003804Y005751D02*
X002996Y005751D01*
X002996Y005809D02*
X003114Y005809D01*
X003085Y005868D02*
X002996Y005868D01*
X002996Y005926D02*
X003085Y005926D01*
X003085Y005985D02*
X002996Y005985D01*
X002996Y006043D02*
X003085Y006043D01*
X003085Y006102D02*
X002996Y006102D01*
X002996Y006160D02*
X003085Y006160D01*
X003085Y006219D02*
X002996Y006219D01*
X002996Y006277D02*
X003085Y006277D01*
X003085Y006336D02*
X002996Y006336D01*
X002996Y006394D02*
X003085Y006394D01*
X003085Y006453D02*
X002996Y006453D01*
X002996Y006511D02*
X003085Y006511D01*
X003085Y006570D02*
X002996Y006570D01*
X002996Y006628D02*
X003085Y006628D01*
X003085Y006687D02*
X002996Y006687D01*
X002996Y006745D02*
X003085Y006745D01*
X003085Y006804D02*
X002996Y006804D01*
X002996Y006862D02*
X003085Y006862D01*
X003093Y006921D02*
X002996Y006921D01*
X003944Y007038D02*
X004159Y007038D01*
X004159Y007096D02*
X003965Y007096D01*
X003965Y007155D02*
X004159Y007155D01*
X004159Y007213D02*
X003965Y007213D01*
X003965Y007272D02*
X004159Y007272D01*
X004159Y007330D02*
X003965Y007330D01*
X003965Y007389D02*
X004159Y007389D01*
X004159Y007447D02*
X003965Y007447D01*
X003965Y007506D02*
X004159Y007506D01*
X004159Y007564D02*
X003965Y007564D01*
X003965Y007623D02*
X004159Y007623D01*
X004159Y007681D02*
X003965Y007681D01*
X003965Y007740D02*
X004159Y007740D01*
X004159Y007798D02*
X003965Y007798D01*
X003965Y007857D02*
X004159Y007857D01*
X004159Y007915D02*
X003965Y007915D01*
X003965Y007974D02*
X004159Y007974D01*
X004159Y008032D02*
X003965Y008032D01*
X003965Y008091D02*
X004159Y008091D01*
X004159Y008149D02*
X003949Y008149D01*
X004159Y008208D02*
X001683Y008208D01*
X001683Y008266D02*
X004159Y008266D01*
X004159Y008325D02*
X001683Y008325D01*
X001683Y008383D02*
X004159Y008383D01*
X004159Y008442D02*
X001683Y008442D01*
X001683Y008500D02*
X004159Y008500D01*
X004159Y008559D02*
X001683Y008559D01*
X001683Y008617D02*
X004159Y008617D01*
X004159Y008676D02*
X001683Y008676D01*
X001683Y008734D02*
X004159Y008734D01*
X004159Y008793D02*
X001683Y008793D01*
X001683Y008851D02*
X004159Y008851D01*
X004159Y008910D02*
X001683Y008910D01*
X001683Y008968D02*
X004159Y008968D01*
X004159Y009027D02*
X001683Y009027D01*
X001683Y009085D02*
X004159Y009085D01*
X004159Y009144D02*
X001683Y009144D01*
X001683Y009202D02*
X004159Y009202D01*
X004159Y009261D02*
X001683Y009261D01*
X001683Y009319D02*
X004159Y009319D01*
X004159Y009378D02*
X001683Y009378D01*
X001683Y009436D02*
X004159Y009436D01*
X004159Y009495D02*
X001683Y009495D01*
X001683Y009553D02*
X004159Y009553D01*
X004167Y009612D02*
X001683Y009612D01*
X001683Y009670D02*
X004226Y009670D01*
X004284Y009729D02*
X001683Y009729D01*
X001683Y009787D02*
X002009Y009787D01*
X001950Y009846D02*
X001683Y009846D01*
X001683Y009904D02*
X001897Y009904D01*
X001897Y009963D02*
X001683Y009963D01*
X001683Y010021D02*
X001897Y010021D01*
X001904Y010080D02*
X001683Y010080D01*
X001683Y010138D02*
X001963Y010138D01*
X001980Y010314D02*
X008216Y010314D01*
X008216Y010372D02*
X006190Y010372D01*
X006249Y010431D02*
X008216Y010431D01*
X008216Y010489D02*
X006307Y010489D01*
X006366Y010548D02*
X008216Y010548D01*
X008216Y010606D02*
X006424Y010606D01*
X006483Y010665D02*
X008216Y010665D01*
X008216Y010723D02*
X006496Y010723D01*
X006496Y010782D02*
X008216Y010782D01*
X008216Y010840D02*
X006496Y010840D01*
X006496Y010899D02*
X008216Y010899D01*
X008216Y010957D02*
X006496Y010957D01*
X006496Y011016D02*
X008216Y011016D01*
X008216Y011074D02*
X006496Y011074D01*
X006496Y011133D02*
X008216Y011133D01*
X008216Y011191D02*
X006496Y011191D01*
X006496Y011250D02*
X008216Y011250D01*
X008216Y011308D02*
X007483Y011308D01*
X007607Y011367D02*
X008105Y011367D01*
X008047Y011425D02*
X007665Y011425D01*
X007717Y011484D02*
X007995Y011484D01*
X007971Y011542D02*
X007741Y011542D01*
X007765Y011601D02*
X007947Y011601D01*
X007936Y011659D02*
X007776Y011659D01*
X007776Y011718D02*
X007936Y011718D01*
X007936Y011776D02*
X007776Y011776D01*
X007759Y011835D02*
X007953Y011835D01*
X007977Y011893D02*
X007735Y011893D01*
X007708Y011952D02*
X008004Y011952D01*
X008043Y012010D02*
X008062Y012010D01*
X007886Y012010D02*
X007826Y012010D01*
X007826Y012069D02*
X007886Y012069D01*
X007886Y012127D02*
X007826Y012127D01*
X007826Y012186D02*
X007886Y012186D01*
X007886Y012244D02*
X007826Y012244D01*
X007826Y012303D02*
X007886Y012303D01*
X007886Y012361D02*
X007826Y012361D01*
X007826Y012420D02*
X007886Y012420D01*
X007886Y012478D02*
X008386Y012478D01*
X008366Y012516D02*
X008366Y012526D01*
X008353Y012605D01*
X008329Y012682D01*
X008292Y012753D01*
X008245Y012818D01*
X008188Y012875D01*
X008123Y012922D01*
X008052Y012958D01*
X007975Y012983D01*
X007896Y012996D01*
X007886Y012996D01*
X007886Y012516D01*
X008366Y012516D01*
X008364Y012537D02*
X008386Y012537D01*
X008393Y012595D02*
X008355Y012595D01*
X008338Y012654D02*
X008417Y012654D01*
X008441Y012712D02*
X008313Y012712D01*
X008279Y012771D02*
X008476Y012771D01*
X008535Y012829D02*
X008234Y012829D01*
X008170Y012888D02*
X008598Y012888D01*
X008740Y012946D02*
X008075Y012946D01*
X007886Y012946D02*
X007826Y012946D01*
X007826Y012888D02*
X007886Y012888D01*
X007886Y012829D02*
X007826Y012829D01*
X007826Y012771D02*
X007886Y012771D01*
X007886Y012712D02*
X007826Y012712D01*
X007826Y012654D02*
X007886Y012654D01*
X007886Y012595D02*
X007826Y012595D01*
X007826Y012537D02*
X007886Y012537D01*
X007826Y012478D02*
X007326Y012478D01*
X007326Y012420D02*
X007350Y012420D01*
X007360Y012361D02*
X007326Y012361D01*
X007326Y012303D02*
X007379Y012303D01*
X007407Y012244D02*
X007326Y012244D01*
X007326Y012186D02*
X007443Y012186D01*
X007446Y012127D02*
X007493Y012127D01*
X007650Y012010D02*
X007669Y012010D01*
X007348Y012537D02*
X007326Y012537D01*
X007326Y012595D02*
X007357Y012595D01*
X007374Y012654D02*
X007326Y012654D01*
X007326Y012712D02*
X007399Y012712D01*
X007433Y012771D02*
X007326Y012771D01*
X007326Y012829D02*
X007478Y012829D01*
X007542Y012888D02*
X007326Y012888D01*
X007283Y012946D02*
X007636Y012946D01*
X008362Y012420D02*
X008386Y012420D01*
X008399Y012361D02*
X008352Y012361D01*
X008333Y012303D02*
X008423Y012303D01*
X008447Y012244D02*
X008305Y012244D01*
X008268Y012186D02*
X008491Y012186D01*
X008446Y012127D02*
X008550Y012127D01*
X008588Y012069D02*
X008634Y012069D01*
X008650Y012010D02*
X008706Y012010D01*
X008265Y012127D02*
X008219Y012127D01*
X008665Y011425D02*
X008706Y011425D01*
X008706Y011367D02*
X008607Y011367D01*
X008706Y011308D02*
X008496Y011308D01*
X008496Y011250D02*
X008706Y011250D01*
X008706Y011191D02*
X008496Y011191D01*
X008496Y011133D02*
X008706Y011133D01*
X008649Y011074D02*
X008496Y011074D01*
X008496Y011016D02*
X008647Y011016D01*
X008706Y010840D02*
X008496Y010840D01*
X008496Y010782D02*
X008764Y010782D01*
X008496Y010723D02*
X011216Y010723D01*
X011216Y010665D02*
X008496Y010665D01*
X008496Y010606D02*
X011216Y010606D01*
X011216Y010548D02*
X008496Y010548D01*
X008496Y010489D02*
X011216Y010489D01*
X011216Y010431D02*
X008496Y010431D01*
X008496Y010372D02*
X011216Y010372D01*
X011216Y010314D02*
X008496Y010314D01*
X008496Y010255D02*
X011216Y010255D01*
X011216Y010197D02*
X008496Y010197D01*
X008456Y010138D02*
X011216Y010138D01*
X011216Y010080D02*
X008398Y010080D01*
X008339Y010021D02*
X011193Y010021D01*
X011135Y009963D02*
X008281Y009963D01*
X008222Y009904D02*
X011076Y009904D01*
X011297Y009729D02*
X012401Y009729D01*
X012459Y009787D02*
X011355Y009787D01*
X011414Y009846D02*
X012518Y009846D01*
X012576Y009904D02*
X011472Y009904D01*
X011496Y009963D02*
X012635Y009963D01*
X012693Y010021D02*
X011496Y010021D01*
X011496Y010080D02*
X012752Y010080D01*
X012810Y010138D02*
X011496Y010138D01*
X011496Y010197D02*
X012869Y010197D01*
X012927Y010255D02*
X011496Y010255D01*
X011496Y010314D02*
X012986Y010314D01*
X013044Y010372D02*
X011496Y010372D01*
X011496Y010431D02*
X013103Y010431D01*
X013161Y010489D02*
X011496Y010489D01*
X011496Y010548D02*
X013220Y010548D01*
X013278Y010606D02*
X011496Y010606D01*
X011496Y010665D02*
X013337Y010665D01*
X013395Y010723D02*
X013269Y010723D01*
X013279Y010727D02*
X013364Y010813D01*
X013411Y010925D01*
X013411Y011046D01*
X013364Y011159D01*
X013279Y011244D01*
X013167Y011291D01*
X013045Y011291D01*
X012933Y011244D01*
X012847Y011159D01*
X012801Y011046D01*
X012801Y010925D01*
X012847Y010813D01*
X012933Y010727D01*
X013045Y010681D01*
X013167Y010681D01*
X013279Y010727D01*
X013333Y010782D02*
X013454Y010782D01*
X013512Y010840D02*
X013376Y010840D01*
X013400Y010899D02*
X013571Y010899D01*
X013629Y010957D02*
X013411Y010957D01*
X013411Y011016D02*
X013688Y011016D01*
X013716Y011074D02*
X013399Y011074D01*
X013375Y011133D02*
X013716Y011133D01*
X013716Y011191D02*
X013332Y011191D01*
X013265Y011250D02*
X013716Y011250D01*
X013716Y011308D02*
X011496Y011308D01*
X011496Y011250D02*
X012946Y011250D01*
X012880Y011191D02*
X011496Y011191D01*
X011496Y011133D02*
X012837Y011133D01*
X012812Y011074D02*
X011496Y011074D01*
X011496Y011016D02*
X012801Y011016D01*
X012801Y010957D02*
X011496Y010957D01*
X011496Y010899D02*
X012812Y010899D01*
X012836Y010840D02*
X011496Y010840D01*
X011496Y010782D02*
X012879Y010782D01*
X012943Y010723D02*
X011496Y010723D01*
X011216Y010782D02*
X010448Y010782D01*
X010442Y010777D02*
X010565Y010899D01*
X010565Y011072D01*
X010496Y011141D01*
X010496Y011314D01*
X010594Y011354D01*
X010712Y011472D01*
X010776Y011627D01*
X010776Y011794D01*
X010712Y011948D01*
X010594Y012066D01*
X010439Y012130D01*
X010272Y012130D01*
X010118Y012066D01*
X010000Y011948D01*
X009936Y011794D01*
X009936Y011627D01*
X010000Y011472D01*
X010118Y011354D01*
X010216Y011314D01*
X010216Y011141D01*
X010147Y011072D01*
X010147Y010899D01*
X009565Y010899D01*
X009565Y010957D02*
X010147Y010957D01*
X010147Y010899D02*
X010269Y010777D01*
X010442Y010777D01*
X010506Y010840D02*
X011216Y010840D01*
X011216Y010899D02*
X010565Y010899D01*
X010565Y010957D02*
X011216Y010957D01*
X011216Y011016D02*
X010565Y011016D01*
X010563Y011074D02*
X011216Y011074D01*
X011216Y011133D02*
X010505Y011133D01*
X010496Y011191D02*
X011216Y011191D01*
X011216Y011250D02*
X010496Y011250D01*
X010496Y011308D02*
X011216Y011308D01*
X011105Y011367D02*
X010607Y011367D01*
X010665Y011425D02*
X011047Y011425D01*
X010995Y011484D02*
X010717Y011484D01*
X010741Y011542D02*
X010971Y011542D01*
X010947Y011601D02*
X010765Y011601D01*
X010776Y011659D02*
X010936Y011659D01*
X010936Y011718D02*
X010776Y011718D01*
X010776Y011776D02*
X010936Y011776D01*
X010953Y011835D02*
X010759Y011835D01*
X010735Y011893D02*
X010977Y011893D01*
X011004Y011952D02*
X010708Y011952D01*
X010650Y012010D02*
X011062Y012010D01*
X011124Y012069D02*
X010588Y012069D01*
X010446Y012127D02*
X011265Y012127D01*
X011446Y012127D02*
X013716Y012127D01*
X013716Y012069D02*
X011588Y012069D01*
X011650Y012010D02*
X013716Y012010D01*
X013716Y011952D02*
X011708Y011952D01*
X011735Y011893D02*
X013716Y011893D01*
X013716Y011835D02*
X011759Y011835D01*
X011776Y011776D02*
X013716Y011776D01*
X013716Y011718D02*
X011776Y011718D01*
X011776Y011659D02*
X013716Y011659D01*
X013716Y011601D02*
X011765Y011601D01*
X011741Y011542D02*
X013716Y011542D01*
X013716Y011484D02*
X011717Y011484D01*
X011665Y011425D02*
X013716Y011425D01*
X013716Y011367D02*
X011607Y011367D01*
X010264Y010782D02*
X009448Y010782D01*
X009506Y010840D02*
X010206Y010840D01*
X010147Y011016D02*
X009565Y011016D01*
X009563Y011074D02*
X010149Y011074D01*
X010207Y011133D02*
X009505Y011133D01*
X009496Y011191D02*
X010216Y011191D01*
X010216Y011250D02*
X009496Y011250D01*
X009496Y011308D02*
X010216Y011308D01*
X010105Y011367D02*
X009607Y011367D01*
X009665Y011425D02*
X010047Y011425D01*
X009995Y011484D02*
X009717Y011484D01*
X009741Y011542D02*
X009971Y011542D01*
X009947Y011601D02*
X009765Y011601D01*
X009776Y011659D02*
X009936Y011659D01*
X009936Y011718D02*
X009776Y011718D01*
X009776Y011776D02*
X009936Y011776D01*
X009953Y011835D02*
X009759Y011835D01*
X009735Y011893D02*
X009977Y011893D01*
X010004Y011952D02*
X009708Y011952D01*
X009650Y012010D02*
X010062Y012010D01*
X010124Y012069D02*
X009588Y012069D01*
X009496Y012127D02*
X010265Y012127D01*
X009761Y012595D02*
X013670Y012595D01*
X013647Y012537D02*
X009703Y012537D01*
X009815Y012654D02*
X013728Y012654D01*
X013643Y012712D02*
X014021Y012712D01*
X014021Y012654D02*
X013984Y012654D01*
X014021Y012771D02*
X013722Y012771D01*
X013771Y012829D02*
X014021Y012829D01*
X014021Y012888D02*
X013795Y012888D01*
X013811Y012946D02*
X014021Y012946D01*
X014021Y013005D02*
X013811Y013005D01*
X013804Y013063D02*
X014021Y013063D01*
X014021Y013122D02*
X013780Y013122D01*
X013369Y012712D02*
X012843Y012712D01*
X012922Y012771D02*
X013290Y012771D01*
X013241Y012829D02*
X012971Y012829D01*
X012995Y012888D02*
X013216Y012888D01*
X013201Y012946D02*
X013011Y012946D01*
X013011Y013005D02*
X013201Y013005D01*
X013208Y013063D02*
X013004Y013063D01*
X012980Y013122D02*
X013232Y013122D01*
X013647Y012478D02*
X009546Y012478D01*
X009496Y012420D02*
X013647Y012420D01*
X013685Y012361D02*
X009496Y012361D01*
X009496Y012303D02*
X013716Y012303D01*
X013716Y012244D02*
X009496Y012244D01*
X009496Y012186D02*
X013716Y012186D01*
X012569Y012712D02*
X009815Y012712D01*
X009815Y012771D02*
X012490Y012771D01*
X012441Y012829D02*
X009808Y012829D01*
X009750Y012888D02*
X012416Y012888D01*
X012401Y012946D02*
X008972Y012946D01*
X009113Y012888D02*
X009462Y012888D01*
X009404Y012829D02*
X009177Y012829D01*
X009236Y012771D02*
X009397Y012771D01*
X009384Y012712D02*
X009271Y012712D01*
X009295Y012654D02*
X009326Y012654D01*
X009047Y011425D02*
X009006Y011425D01*
X009006Y011367D02*
X009105Y011367D01*
X009006Y011308D02*
X009216Y011308D01*
X009216Y011250D02*
X009006Y011250D01*
X009006Y011191D02*
X009216Y011191D01*
X009207Y011133D02*
X009006Y011133D01*
X009063Y011074D02*
X009149Y011074D01*
X009147Y011016D02*
X009065Y011016D01*
X009006Y010840D02*
X009206Y010840D01*
X009264Y010782D02*
X008948Y010782D01*
X008177Y010255D02*
X001683Y010255D01*
X001683Y010197D02*
X008119Y010197D01*
X008060Y010138D02*
X002249Y010138D01*
X002203Y009787D02*
X004343Y009787D01*
X004533Y009553D02*
X005897Y009553D01*
X005897Y009495D02*
X004475Y009495D01*
X004459Y009436D02*
X005897Y009436D01*
X005918Y009378D02*
X004459Y009378D01*
X004459Y009319D02*
X005977Y009319D01*
X006235Y009319D02*
X010147Y009319D01*
X010147Y009261D02*
X004459Y009261D01*
X004459Y009202D02*
X010147Y009202D01*
X010152Y009144D02*
X004459Y009144D01*
X005228Y008910D02*
X010234Y008910D01*
X010176Y008851D02*
X005286Y008851D01*
X005315Y008793D02*
X010147Y008793D01*
X010147Y008734D02*
X005315Y008734D01*
X005170Y007096D02*
X004459Y007096D01*
X004459Y007038D02*
X005167Y007038D01*
X003804Y005692D02*
X002996Y005692D01*
X002996Y005634D02*
X003804Y005634D01*
X003845Y005575D02*
X002996Y005575D01*
X002996Y005517D02*
X003903Y005517D01*
X003187Y003352D02*
X007274Y003352D01*
X007216Y003294D02*
X003246Y003294D01*
X003304Y003235D02*
X007157Y003235D01*
X007099Y003177D02*
X003363Y003177D01*
X003421Y003118D02*
X007040Y003118D01*
X006982Y003060D02*
X003480Y003060D01*
X003538Y003001D02*
X006923Y003001D01*
X006865Y002943D02*
X003597Y002943D01*
X003655Y002884D02*
X006806Y002884D01*
X006748Y002826D02*
X005714Y002826D01*
X005772Y002767D02*
X006689Y002767D01*
X006631Y002709D02*
X005831Y002709D01*
X005889Y002650D02*
X006197Y002650D01*
X006092Y002592D02*
X005948Y002592D01*
X005996Y002533D02*
X006034Y002533D01*
X006514Y002650D02*
X006572Y002650D01*
X011204Y006336D02*
X011747Y006336D01*
X011747Y006277D02*
X011262Y006277D01*
X011321Y006219D02*
X011747Y006219D01*
X011747Y006160D02*
X011379Y006160D01*
X011438Y006102D02*
X011747Y006102D01*
X011747Y006043D02*
X011496Y006043D01*
X011496Y005985D02*
X011747Y005985D01*
X011747Y005926D02*
X011496Y005926D01*
X011496Y005868D02*
X011747Y005868D01*
X011776Y005809D02*
X011496Y005809D01*
X011496Y005751D02*
X014021Y005751D01*
X014021Y005809D02*
X012598Y005809D01*
X012627Y005868D02*
X014021Y005868D01*
X014021Y005926D02*
X012627Y005926D01*
X012627Y005985D02*
X014021Y005985D01*
X014021Y006043D02*
X012627Y006043D01*
X012627Y006102D02*
X014021Y006102D01*
X014021Y006160D02*
X012627Y006160D01*
X012627Y006219D02*
X014021Y006219D01*
X014021Y006277D02*
X012627Y006277D01*
X012627Y006336D02*
X014021Y006336D01*
X014021Y006394D02*
X012627Y006394D01*
X012627Y006453D02*
X014021Y006453D01*
X014021Y006511D02*
X012627Y006511D01*
X012627Y006570D02*
X014021Y006570D01*
X014021Y006628D02*
X012627Y006628D01*
X012627Y006687D02*
X014021Y006687D01*
X014021Y006745D02*
X012627Y006745D01*
X012627Y006804D02*
X014021Y006804D01*
X014021Y006862D02*
X012627Y006862D01*
X012619Y006921D02*
X014021Y006921D01*
X014021Y005692D02*
X011496Y005692D01*
X011496Y005634D02*
X014021Y005634D01*
X011484Y008910D02*
X010478Y008910D01*
X010443Y009027D02*
X011853Y009027D01*
X011794Y009085D02*
X010501Y009085D01*
X010147Y008676D02*
X009073Y008676D01*
X009338Y008617D02*
X010179Y008617D01*
X010237Y008559D02*
X009501Y008559D01*
X011253Y009670D02*
X012342Y009670D01*
X012401Y013005D02*
X001683Y013005D01*
X001683Y013063D02*
X012408Y013063D01*
X012432Y013122D02*
X001683Y013122D01*
X001683Y012946D02*
X006429Y012946D01*
X006386Y012888D02*
X001683Y012888D01*
X001683Y012829D02*
X006386Y012829D01*
X006386Y012771D02*
X001683Y012771D01*
X001683Y012712D02*
X006386Y012712D01*
X006386Y012654D02*
X001683Y012654D01*
X001683Y012595D02*
X006386Y012595D01*
X006386Y012537D02*
X001683Y012537D01*
X001683Y012478D02*
X006386Y012478D01*
X006386Y012420D02*
X001683Y012420D01*
X001683Y012361D02*
X006386Y012361D01*
X006386Y012303D02*
X001683Y012303D01*
X001683Y012244D02*
X006386Y012244D01*
X006386Y012186D02*
X001683Y012186D01*
X001683Y012127D02*
X004265Y012127D01*
X004272Y012130D02*
X004118Y012066D01*
X004000Y011948D01*
X003936Y011794D01*
X003936Y011627D01*
X004000Y011472D01*
X004118Y011354D01*
X004272Y011290D01*
X004439Y011290D01*
X004594Y011354D01*
X004712Y011472D01*
X004776Y011627D01*
X004776Y011794D01*
X004712Y011948D01*
X004594Y012066D01*
X004439Y012130D01*
X004272Y012130D01*
X004124Y012069D02*
X001683Y012069D01*
X001683Y012010D02*
X004062Y012010D01*
X004004Y011952D02*
X001683Y011952D01*
X001683Y011893D02*
X003977Y011893D01*
X003953Y011835D02*
X001683Y011835D01*
X001683Y011776D02*
X003936Y011776D01*
X003936Y011718D02*
X001683Y011718D01*
X001683Y011659D02*
X003936Y011659D01*
X003947Y011601D02*
X001683Y011601D01*
X001683Y011542D02*
X003971Y011542D01*
X003995Y011484D02*
X001683Y011484D01*
X001683Y011425D02*
X004047Y011425D01*
X004105Y011367D02*
X001683Y011367D01*
X001683Y011308D02*
X004229Y011308D01*
X004483Y011308D02*
X005229Y011308D01*
X005272Y011290D02*
X005439Y011290D01*
X005594Y011354D01*
X005712Y011472D01*
X005776Y011627D01*
X005776Y011794D01*
X005712Y011948D01*
X005594Y012066D01*
X005439Y012130D01*
X005272Y012130D01*
X005118Y012066D01*
X005000Y011948D01*
X004936Y011794D01*
X004936Y011627D01*
X005000Y011472D01*
X005118Y011354D01*
X005272Y011290D01*
X005105Y011367D02*
X004607Y011367D01*
X004665Y011425D02*
X005047Y011425D01*
X004995Y011484D02*
X004717Y011484D01*
X004741Y011542D02*
X004971Y011542D01*
X004947Y011601D02*
X004765Y011601D01*
X004776Y011659D02*
X004936Y011659D01*
X004936Y011718D02*
X004776Y011718D01*
X004776Y011776D02*
X004936Y011776D01*
X004953Y011835D02*
X004759Y011835D01*
X004735Y011893D02*
X004977Y011893D01*
X005004Y011952D02*
X004708Y011952D01*
X004650Y012010D02*
X005062Y012010D01*
X005124Y012069D02*
X004588Y012069D01*
X004446Y012127D02*
X005265Y012127D01*
X005446Y012127D02*
X006265Y012127D01*
X006124Y012069D02*
X005588Y012069D01*
X005650Y012010D02*
X006062Y012010D01*
X006004Y011952D02*
X005708Y011952D01*
X005735Y011893D02*
X005977Y011893D01*
X005953Y011835D02*
X005759Y011835D01*
X005776Y011776D02*
X005936Y011776D01*
X005936Y011718D02*
X005776Y011718D01*
X005776Y011659D02*
X005936Y011659D01*
X005947Y011601D02*
X005765Y011601D01*
X005741Y011542D02*
X005971Y011542D01*
X005995Y011484D02*
X005717Y011484D01*
X005665Y011425D02*
X006047Y011425D01*
X006105Y011367D02*
X005607Y011367D01*
X005483Y011308D02*
X006216Y011308D01*
X006216Y011250D02*
X001683Y011250D01*
X001683Y011191D02*
X006216Y011191D01*
X006216Y011133D02*
X001683Y011133D01*
X001683Y011074D02*
X006216Y011074D01*
X006216Y011016D02*
X001683Y011016D01*
X001683Y010957D02*
X006216Y010957D01*
X006216Y010899D02*
X001683Y010899D01*
X001683Y010840D02*
X006216Y010840D01*
X006204Y010782D02*
X001683Y010782D01*
X001683Y010723D02*
X006145Y010723D01*
X006087Y010665D02*
X001973Y010665D01*
X001739Y010665D02*
X001683Y010665D01*
X001683Y010314D02*
X001732Y010314D01*
X006496Y011308D02*
X007229Y011308D01*
X007105Y011367D02*
X006607Y011367D01*
X006665Y011425D02*
X007047Y011425D01*
X006995Y011484D02*
X006717Y011484D01*
X006741Y011542D02*
X006971Y011542D01*
X006947Y011601D02*
X006765Y011601D01*
X006776Y011659D02*
X006936Y011659D01*
X006936Y011718D02*
X006776Y011718D01*
X006776Y011776D02*
X006936Y011776D01*
X006953Y011835D02*
X006759Y011835D01*
X006735Y011893D02*
X006977Y011893D01*
X007004Y011952D02*
X006708Y011952D01*
X006650Y012010D02*
X007062Y012010D01*
X001683Y001246D02*
X014021Y001246D01*
X014021Y001188D02*
X001683Y001188D01*
X001683Y001129D02*
X014021Y001129D01*
X014021Y001071D02*
X001683Y001071D01*
X001683Y001012D02*
X014021Y001012D01*
X014021Y000954D02*
X001683Y000954D01*
X001683Y000895D02*
X014021Y000895D01*
X014021Y000837D02*
X001683Y000837D01*
D20*
X002856Y001486D02*
X001856Y002486D01*
X001856Y007736D01*
X002106Y007986D01*
X002606Y007986D01*
X002606Y007486D01*
X002356Y007736D02*
X002106Y007486D01*
X002106Y002736D01*
X003106Y001736D01*
X004830Y001736D01*
X005356Y002261D01*
X005606Y002736D02*
X005856Y002486D01*
X005856Y001986D01*
X006106Y001736D01*
X008106Y001736D01*
X008356Y001986D01*
X008356Y002261D01*
X007856Y002986D02*
X011106Y002986D01*
X011356Y003236D01*
X011356Y005986D01*
X011106Y006236D01*
X010606Y006236D01*
X010606Y005736D02*
X010856Y005736D01*
X011106Y005486D01*
X011106Y003486D01*
X010856Y003236D01*
X007356Y003236D01*
X006381Y002261D01*
X006356Y002261D01*
X005606Y002736D02*
X003606Y002736D01*
X002856Y003486D01*
X002856Y003986D01*
X002856Y007986D01*
X002356Y007236D02*
X002356Y002986D01*
X003106Y002236D01*
X004330Y002236D01*
X004356Y002261D01*
X002856Y001486D02*
X009606Y001486D01*
X010356Y002236D01*
X010356Y002261D01*
X009106Y003486D02*
X008606Y003486D01*
X008606Y004236D02*
X009106Y004236D01*
X007856Y002986D02*
X007356Y002486D01*
X007356Y002261D01*
X004899Y007376D02*
X005106Y007582D01*
X005106Y008736D01*
X006106Y009486D02*
X012356Y009486D01*
X013856Y010986D01*
X013856Y012486D01*
X011356Y011710D02*
X011356Y009986D01*
X011106Y009736D01*
X010356Y010986D02*
X010356Y011710D01*
X009356Y011710D02*
X009356Y010986D01*
X009356Y011710D02*
X009356Y012486D01*
X009606Y012736D01*
X008356Y011710D02*
X008356Y010236D01*
X008106Y009986D01*
X002106Y009986D01*
X001856Y010486D02*
X006106Y010486D01*
X006356Y010736D01*
X006356Y011710D01*
M02*
