G75*
G70*
%OFA0B0*%
%FSLAX24Y24*%
%IPPOS*%
%LPD*%
%AMOC8*
5,1,8,0,0,1.08239X$1,22.5*
%
%ADD10C,0.0000*%
%ADD11C,0.0660*%
%ADD12R,0.0700X0.1000*%
%ADD13C,0.3150*%
%ADD14R,0.0760X0.0760*%
%ADD15C,0.0760*%
%ADD16C,0.0310*%
%ADD17C,0.0001*%
%ADD18C,0.0100*%
%ADD19C,0.0238*%
D10*
X001553Y000683D02*
X001553Y013281D01*
X014151Y013281D01*
X014151Y000683D01*
X001553Y000683D01*
X012614Y001710D02*
X012626Y001738D01*
X012633Y001765D01*
X012645Y001793D01*
X012653Y001820D01*
X012665Y001852D01*
X012677Y001880D01*
X012685Y001907D01*
X012937Y001907D01*
X012968Y001907D01*
X012976Y001880D01*
X012988Y001852D01*
X012996Y001820D01*
X013007Y001793D01*
X013019Y001765D01*
X013027Y001738D01*
X013039Y001710D01*
X013027Y001687D01*
X013015Y001659D01*
X013004Y001635D01*
X012645Y001635D01*
X012637Y001659D01*
X012626Y001687D01*
X012614Y001710D01*
X012931Y010637D02*
X012933Y010663D01*
X012939Y010689D01*
X012948Y010713D01*
X012961Y010736D01*
X012978Y010756D01*
X012997Y010774D01*
X013019Y010789D01*
X013042Y010800D01*
X013067Y010808D01*
X013093Y010812D01*
X013119Y010812D01*
X013145Y010808D01*
X013170Y010800D01*
X013194Y010789D01*
X013215Y010774D01*
X013234Y010756D01*
X013251Y010736D01*
X013264Y010713D01*
X013273Y010689D01*
X013279Y010663D01*
X013281Y010637D01*
X013279Y010611D01*
X013273Y010585D01*
X013264Y010561D01*
X013251Y010538D01*
X013234Y010518D01*
X013215Y010500D01*
X013193Y010485D01*
X013170Y010474D01*
X013145Y010466D01*
X013119Y010462D01*
X013093Y010462D01*
X013067Y010466D01*
X013042Y010474D01*
X013018Y010485D01*
X012997Y010500D01*
X012978Y010518D01*
X012961Y010538D01*
X012948Y010561D01*
X012939Y010585D01*
X012933Y010611D01*
X012931Y010637D01*
X012531Y012637D02*
X012533Y012663D01*
X012539Y012689D01*
X012548Y012713D01*
X012561Y012736D01*
X012578Y012756D01*
X012597Y012774D01*
X012619Y012789D01*
X012642Y012800D01*
X012667Y012808D01*
X012693Y012812D01*
X012719Y012812D01*
X012745Y012808D01*
X012770Y012800D01*
X012794Y012789D01*
X012815Y012774D01*
X012834Y012756D01*
X012851Y012736D01*
X012864Y012713D01*
X012873Y012689D01*
X012879Y012663D01*
X012881Y012637D01*
X012879Y012611D01*
X012873Y012585D01*
X012864Y012561D01*
X012851Y012538D01*
X012834Y012518D01*
X012815Y012500D01*
X012793Y012485D01*
X012770Y012474D01*
X012745Y012466D01*
X012719Y012462D01*
X012693Y012462D01*
X012667Y012466D01*
X012642Y012474D01*
X012618Y012485D01*
X012597Y012500D01*
X012578Y012518D01*
X012561Y012538D01*
X012548Y012561D01*
X012539Y012585D01*
X012533Y012611D01*
X012531Y012637D01*
X013331Y012637D02*
X013333Y012663D01*
X013339Y012689D01*
X013348Y012713D01*
X013361Y012736D01*
X013378Y012756D01*
X013397Y012774D01*
X013419Y012789D01*
X013442Y012800D01*
X013467Y012808D01*
X013493Y012812D01*
X013519Y012812D01*
X013545Y012808D01*
X013570Y012800D01*
X013594Y012789D01*
X013615Y012774D01*
X013634Y012756D01*
X013651Y012736D01*
X013664Y012713D01*
X013673Y012689D01*
X013679Y012663D01*
X013681Y012637D01*
X013679Y012611D01*
X013673Y012585D01*
X013664Y012561D01*
X013651Y012538D01*
X013634Y012518D01*
X013615Y012500D01*
X013593Y012485D01*
X013570Y012474D01*
X013545Y012466D01*
X013519Y012462D01*
X013493Y012462D01*
X013467Y012466D01*
X013442Y012474D01*
X013418Y012485D01*
X013397Y012500D01*
X013378Y012518D01*
X013361Y012538D01*
X013348Y012561D01*
X013339Y012585D01*
X013333Y012611D01*
X013331Y012637D01*
D11*
X011356Y011710D03*
X010356Y011710D03*
X009356Y011710D03*
X008356Y011710D03*
X007356Y011710D03*
X006356Y011710D03*
X005356Y011710D03*
X004356Y011710D03*
X004356Y002261D03*
X005356Y002261D03*
X006356Y002261D03*
X007356Y002261D03*
X008356Y002261D03*
X009356Y002261D03*
X010356Y002261D03*
X011356Y002261D03*
D12*
X012187Y006376D03*
X012187Y007596D03*
X003525Y007596D03*
X003525Y006376D03*
D13*
X006872Y006986D02*
X008840Y006986D01*
D14*
X006856Y012486D03*
D15*
X007856Y012486D03*
X008856Y012486D03*
D16*
X012856Y012137D03*
X013356Y012137D03*
X013356Y011637D03*
X013356Y011137D03*
X012856Y011137D03*
X012856Y011637D03*
D17*
X012968Y001906D02*
X012684Y001906D01*
X012684Y001905D02*
X012969Y001905D01*
X012969Y001904D02*
X012684Y001904D01*
X012684Y001903D02*
X012969Y001903D01*
X012969Y001902D02*
X012683Y001902D01*
X012683Y001901D02*
X012970Y001901D01*
X012970Y001900D02*
X012683Y001900D01*
X012682Y001899D02*
X012970Y001899D01*
X012971Y001898D02*
X012682Y001898D01*
X012682Y001897D02*
X012971Y001897D01*
X012971Y001896D02*
X012682Y001896D01*
X012681Y001895D02*
X012971Y001895D01*
X012972Y001894D02*
X012681Y001894D01*
X012681Y001893D02*
X012972Y001893D01*
X012972Y001892D02*
X012680Y001892D01*
X012680Y001891D02*
X012973Y001891D01*
X012973Y001890D02*
X012680Y001890D01*
X012680Y001889D02*
X012973Y001889D01*
X012973Y001888D02*
X012679Y001888D01*
X012679Y001887D02*
X012974Y001887D01*
X012974Y001886D02*
X012679Y001886D01*
X012678Y001885D02*
X012974Y001885D01*
X012975Y001884D02*
X012678Y001884D01*
X012678Y001883D02*
X012975Y001883D01*
X012975Y001882D02*
X012678Y001882D01*
X012677Y001881D02*
X012975Y001881D01*
X012976Y001880D02*
X012677Y001880D01*
X012677Y001879D02*
X012976Y001879D01*
X012976Y001878D02*
X012676Y001878D01*
X012676Y001877D02*
X012977Y001877D01*
X012977Y001876D02*
X012675Y001876D01*
X012675Y001875D02*
X012978Y001875D01*
X012978Y001874D02*
X012675Y001874D01*
X012674Y001873D02*
X012979Y001873D01*
X012979Y001872D02*
X012674Y001872D01*
X012673Y001871D02*
X012979Y001871D01*
X012980Y001870D02*
X012673Y001870D01*
X012672Y001869D02*
X012980Y001869D01*
X012981Y001868D02*
X012672Y001868D01*
X012672Y001867D02*
X012981Y001867D01*
X012982Y001866D02*
X012671Y001866D01*
X012671Y001865D02*
X012982Y001865D01*
X012982Y001864D02*
X012670Y001864D01*
X012670Y001863D02*
X012983Y001863D01*
X012983Y001862D02*
X012669Y001862D01*
X012669Y001861D02*
X012984Y001861D01*
X012984Y001860D02*
X012669Y001860D01*
X012668Y001859D02*
X012985Y001859D01*
X012985Y001858D02*
X012668Y001858D01*
X012667Y001857D02*
X012985Y001857D01*
X012986Y001856D02*
X012667Y001856D01*
X012666Y001855D02*
X012986Y001855D01*
X012987Y001854D02*
X012666Y001854D01*
X012666Y001853D02*
X012987Y001853D01*
X012988Y001852D02*
X012665Y001852D01*
X012665Y001851D02*
X012988Y001851D01*
X012988Y001850D02*
X012664Y001850D01*
X012664Y001849D02*
X012988Y001849D01*
X012989Y001848D02*
X012664Y001848D01*
X012663Y001847D02*
X012989Y001847D01*
X012989Y001846D02*
X012663Y001846D01*
X012663Y001845D02*
X012989Y001845D01*
X012990Y001844D02*
X012662Y001844D01*
X012662Y001843D02*
X012990Y001843D01*
X012990Y001842D02*
X012661Y001842D01*
X012661Y001841D02*
X012990Y001841D01*
X012991Y001840D02*
X012661Y001840D01*
X012660Y001839D02*
X012991Y001839D01*
X012991Y001838D02*
X012660Y001838D01*
X012660Y001837D02*
X012991Y001837D01*
X012992Y001836D02*
X012659Y001836D01*
X012659Y001835D02*
X012992Y001835D01*
X012992Y001834D02*
X012658Y001834D01*
X012658Y001833D02*
X012992Y001833D01*
X012993Y001833D02*
X012658Y001833D01*
X012657Y001832D02*
X012993Y001832D01*
X012993Y001831D02*
X012657Y001831D01*
X012657Y001830D02*
X012993Y001830D01*
X012994Y001829D02*
X012656Y001829D01*
X012656Y001828D02*
X012994Y001828D01*
X012994Y001827D02*
X012655Y001827D01*
X012655Y001826D02*
X012994Y001826D01*
X012995Y001825D02*
X012655Y001825D01*
X012654Y001824D02*
X012995Y001824D01*
X012995Y001823D02*
X012654Y001823D01*
X012654Y001822D02*
X012995Y001822D01*
X012996Y001821D02*
X012653Y001821D01*
X012653Y001820D02*
X012996Y001820D01*
X012997Y001819D02*
X012653Y001819D01*
X012652Y001818D02*
X012997Y001818D01*
X012997Y001817D02*
X012652Y001817D01*
X012652Y001816D02*
X012998Y001816D01*
X012998Y001815D02*
X012651Y001815D01*
X012651Y001814D02*
X012999Y001814D01*
X012999Y001813D02*
X012651Y001813D01*
X012651Y001812D02*
X013000Y001812D01*
X013000Y001811D02*
X012650Y001811D01*
X012650Y001810D02*
X013000Y001810D01*
X013001Y001809D02*
X012650Y001809D01*
X012649Y001808D02*
X013001Y001808D01*
X013002Y001807D02*
X012649Y001807D01*
X012649Y001806D02*
X013002Y001806D01*
X013003Y001805D02*
X012649Y001805D01*
X012648Y001804D02*
X013003Y001804D01*
X013003Y001803D02*
X012648Y001803D01*
X012648Y001802D02*
X013004Y001802D01*
X013004Y001801D02*
X012647Y001801D01*
X012647Y001800D02*
X013005Y001800D01*
X013005Y001799D02*
X012647Y001799D01*
X012647Y001798D02*
X013005Y001798D01*
X013006Y001797D02*
X012646Y001797D01*
X012646Y001796D02*
X013006Y001796D01*
X013007Y001795D02*
X012646Y001795D01*
X012645Y001794D02*
X013007Y001794D01*
X013008Y001793D02*
X012645Y001793D01*
X012645Y001792D02*
X013008Y001792D01*
X013008Y001791D02*
X012644Y001791D01*
X012644Y001790D02*
X013009Y001790D01*
X013009Y001789D02*
X012643Y001789D01*
X012643Y001788D02*
X013010Y001788D01*
X013010Y001787D02*
X012643Y001787D01*
X012642Y001786D02*
X013011Y001786D01*
X013011Y001785D02*
X012642Y001785D01*
X012641Y001784D02*
X013011Y001784D01*
X013012Y001783D02*
X012641Y001783D01*
X012640Y001782D02*
X013012Y001782D01*
X013013Y001781D02*
X012640Y001781D01*
X012640Y001780D02*
X013013Y001780D01*
X013014Y001779D02*
X012639Y001779D01*
X012639Y001778D02*
X013014Y001778D01*
X013014Y001777D02*
X012638Y001777D01*
X012638Y001776D02*
X013015Y001776D01*
X013015Y001775D02*
X012637Y001775D01*
X012637Y001774D02*
X013016Y001774D01*
X013016Y001773D02*
X012637Y001773D01*
X012636Y001772D02*
X013017Y001772D01*
X013017Y001771D02*
X012636Y001771D01*
X012635Y001770D02*
X013017Y001770D01*
X013018Y001769D02*
X012635Y001769D01*
X012634Y001768D02*
X013018Y001768D01*
X013019Y001767D02*
X012634Y001767D01*
X012634Y001766D02*
X013019Y001766D01*
X013020Y001765D02*
X012633Y001765D01*
X012633Y001764D02*
X013020Y001764D01*
X013020Y001763D02*
X012633Y001763D01*
X012632Y001762D02*
X013020Y001762D01*
X013021Y001761D02*
X012632Y001761D01*
X012632Y001760D02*
X013021Y001760D01*
X013021Y001759D02*
X012632Y001759D01*
X012631Y001758D02*
X013022Y001758D01*
X013022Y001757D02*
X012631Y001757D01*
X012631Y001756D02*
X013022Y001756D01*
X013022Y001755D02*
X012630Y001755D01*
X012630Y001754D02*
X013023Y001754D01*
X013023Y001753D02*
X012630Y001753D01*
X012630Y001752D02*
X013023Y001752D01*
X013024Y001751D02*
X012629Y001751D01*
X012629Y001750D02*
X013024Y001750D01*
X013024Y001749D02*
X012629Y001749D01*
X012628Y001748D02*
X013024Y001748D01*
X013025Y001747D02*
X012628Y001747D01*
X012628Y001746D02*
X013025Y001746D01*
X013025Y001745D02*
X012628Y001745D01*
X012627Y001744D02*
X013026Y001744D01*
X013026Y001743D02*
X012627Y001743D01*
X012627Y001742D02*
X013026Y001742D01*
X013026Y001741D02*
X012626Y001741D01*
X012626Y001740D02*
X013027Y001740D01*
X013027Y001739D02*
X012626Y001739D01*
X012626Y001738D02*
X013027Y001738D01*
X013028Y001737D02*
X012625Y001737D01*
X012625Y001736D02*
X013028Y001736D01*
X013029Y001735D02*
X012624Y001735D01*
X012624Y001734D02*
X013029Y001734D01*
X013029Y001733D02*
X012623Y001733D01*
X012623Y001732D02*
X013030Y001732D01*
X013030Y001731D02*
X012623Y001731D01*
X012622Y001730D02*
X013031Y001730D01*
X013031Y001729D02*
X012622Y001729D01*
X012621Y001728D02*
X013032Y001728D01*
X013032Y001727D02*
X012621Y001727D01*
X012620Y001726D02*
X013032Y001726D01*
X013033Y001725D02*
X012620Y001725D01*
X012620Y001724D02*
X013033Y001724D01*
X013034Y001723D02*
X012619Y001723D01*
X012619Y001722D02*
X013034Y001722D01*
X013035Y001721D02*
X012618Y001721D01*
X012618Y001720D02*
X013035Y001720D01*
X013035Y001719D02*
X012617Y001719D01*
X012617Y001718D02*
X013036Y001718D01*
X013036Y001717D02*
X012617Y001717D01*
X012616Y001716D02*
X013037Y001716D01*
X013037Y001715D02*
X012616Y001715D01*
X012615Y001714D02*
X013038Y001714D01*
X013038Y001713D02*
X012615Y001713D01*
X012614Y001712D02*
X013038Y001712D01*
X013039Y001711D02*
X012614Y001711D01*
X012614Y001710D02*
X013039Y001710D01*
X013038Y001709D02*
X012615Y001709D01*
X012615Y001708D02*
X013038Y001708D01*
X013037Y001707D02*
X012616Y001707D01*
X012616Y001706D02*
X013037Y001706D01*
X013036Y001705D02*
X012617Y001705D01*
X012617Y001704D02*
X013036Y001704D01*
X013035Y001703D02*
X012618Y001703D01*
X012618Y001702D02*
X013035Y001702D01*
X013034Y001701D02*
X012619Y001701D01*
X012619Y001700D02*
X013034Y001700D01*
X013033Y001699D02*
X012620Y001699D01*
X012620Y001698D02*
X013033Y001698D01*
X013032Y001697D02*
X012621Y001697D01*
X012621Y001696D02*
X013032Y001696D01*
X013031Y001695D02*
X012622Y001695D01*
X012622Y001694D02*
X013031Y001694D01*
X013030Y001693D02*
X012623Y001693D01*
X012623Y001692D02*
X013030Y001692D01*
X013029Y001691D02*
X012624Y001691D01*
X012624Y001690D02*
X013029Y001690D01*
X013028Y001689D02*
X012625Y001689D01*
X012625Y001688D02*
X013028Y001688D01*
X013027Y001687D02*
X012626Y001687D01*
X012626Y001686D02*
X013027Y001686D01*
X013026Y001685D02*
X012626Y001685D01*
X012627Y001684D02*
X013026Y001684D01*
X013025Y001683D02*
X012627Y001683D01*
X012628Y001682D02*
X013025Y001682D01*
X013025Y001681D02*
X012628Y001681D01*
X012629Y001680D02*
X013024Y001680D01*
X013024Y001679D02*
X012629Y001679D01*
X012629Y001678D02*
X013023Y001678D01*
X013023Y001677D02*
X012630Y001677D01*
X012630Y001676D02*
X013022Y001676D01*
X013022Y001675D02*
X012631Y001675D01*
X012631Y001674D02*
X013022Y001674D01*
X013021Y001673D02*
X012632Y001673D01*
X012632Y001672D02*
X013021Y001672D01*
X013020Y001671D02*
X012632Y001671D01*
X012633Y001670D02*
X013020Y001670D01*
X013019Y001669D02*
X012633Y001669D01*
X012634Y001668D02*
X013019Y001668D01*
X013019Y001667D02*
X012634Y001667D01*
X012635Y001666D02*
X013018Y001666D01*
X013018Y001665D02*
X012635Y001665D01*
X012635Y001664D02*
X013017Y001664D01*
X013017Y001663D02*
X012636Y001663D01*
X012636Y001662D02*
X013016Y001662D01*
X013016Y001661D02*
X012637Y001661D01*
X012637Y001660D02*
X013016Y001660D01*
X013015Y001659D02*
X012638Y001659D01*
X012638Y001658D02*
X013015Y001658D01*
X013014Y001657D02*
X012638Y001657D01*
X012639Y001656D02*
X013014Y001656D01*
X013013Y001655D02*
X012639Y001655D01*
X012639Y001654D02*
X013013Y001654D01*
X013012Y001653D02*
X012640Y001653D01*
X012640Y001652D02*
X013012Y001652D01*
X013011Y001651D02*
X012640Y001651D01*
X012641Y001650D02*
X013011Y001650D01*
X013010Y001649D02*
X012641Y001649D01*
X012641Y001648D02*
X013010Y001648D01*
X013009Y001647D02*
X012642Y001647D01*
X012642Y001646D02*
X013009Y001646D01*
X013008Y001645D02*
X012642Y001645D01*
X012643Y001644D02*
X013008Y001644D01*
X013007Y001643D02*
X012643Y001643D01*
X012643Y001642D02*
X013007Y001642D01*
X013006Y001641D02*
X012644Y001641D01*
X012644Y001640D02*
X013006Y001640D01*
X013005Y001639D02*
X012644Y001639D01*
X012645Y001638D02*
X013005Y001638D01*
X013004Y001637D02*
X012645Y001637D01*
X012645Y001636D02*
X013004Y001636D01*
D18*
X013094Y001570D02*
X013082Y001545D01*
X013063Y001539D01*
X013049Y001525D01*
X013021Y001525D01*
X012995Y001517D01*
X012978Y001525D01*
X012663Y001525D01*
X012637Y001517D01*
X012619Y001525D01*
X012600Y001525D01*
X012580Y001545D01*
X012555Y001557D01*
X012549Y001576D01*
X012535Y001590D01*
X012535Y001618D01*
X012534Y001620D01*
X012532Y001626D01*
X012529Y001627D01*
X012513Y001665D01*
X012495Y001702D01*
X012497Y001707D01*
X012495Y001712D01*
X012511Y001749D01*
X012516Y001764D01*
X012514Y001767D01*
X012530Y001802D01*
X012540Y001839D01*
X012543Y001841D01*
X012547Y001851D01*
X012546Y001853D01*
X012553Y001869D01*
X012560Y001895D01*
X012564Y001897D01*
X012575Y001924D01*
X012575Y001953D01*
X012587Y001965D01*
X012591Y001981D01*
X012618Y001996D01*
X012639Y002017D01*
X012656Y002017D01*
X012671Y002025D01*
X012700Y002017D01*
X012953Y002017D01*
X012982Y002025D01*
X012997Y002017D01*
X013014Y002017D01*
X013035Y001996D01*
X013061Y001981D01*
X013066Y001965D01*
X013078Y001953D01*
X013078Y001926D01*
X013083Y001923D01*
X013092Y001887D01*
X013107Y001853D01*
X013104Y001847D01*
X013106Y001843D01*
X013113Y001839D01*
X013123Y001802D01*
X013138Y001767D01*
X013137Y001764D01*
X013142Y001749D01*
X013158Y001712D01*
X013156Y001707D01*
X013158Y001702D01*
X013139Y001665D01*
X013134Y001651D01*
X013134Y001651D01*
X013132Y001645D01*
X013124Y001627D01*
X013122Y001626D01*
X013115Y001613D01*
X013114Y001609D01*
X013114Y001590D01*
X013099Y001576D01*
X013099Y001574D01*
X013097Y001573D01*
X013094Y001570D01*
X013093Y001569D02*
X014001Y001569D01*
X014001Y001471D02*
X001703Y001471D01*
X001703Y001569D02*
X012551Y001569D01*
X012512Y001668D02*
X010612Y001668D01*
X010604Y001659D02*
X010915Y001971D01*
X010975Y002031D01*
X010983Y002012D01*
X011107Y001888D01*
X011268Y001821D01*
X011443Y001821D01*
X011605Y001888D01*
X011729Y002012D01*
X011796Y002174D01*
X011796Y002349D01*
X011729Y002511D01*
X011605Y002634D01*
X011443Y002701D01*
X011268Y002701D01*
X011107Y002634D01*
X011009Y002537D01*
X011009Y005076D01*
X011225Y005292D01*
X011319Y005386D01*
X011319Y006925D01*
X011370Y006976D01*
X011520Y006826D01*
X011727Y006826D01*
X011727Y005830D01*
X011791Y005766D01*
X012582Y005766D01*
X012647Y005830D01*
X012647Y006826D01*
X012661Y006826D01*
X012754Y006920D01*
X013818Y007984D01*
X013818Y011401D01*
X013724Y011495D01*
X013621Y011599D01*
X013621Y011690D01*
X013581Y011788D01*
X013506Y011862D01*
X013497Y011866D01*
X013500Y011867D01*
X013550Y011900D01*
X013593Y011943D01*
X013626Y011993D01*
X013649Y012048D01*
X013661Y012107D01*
X013661Y012110D01*
X013383Y012110D01*
X013383Y011902D01*
X013328Y011902D01*
X013328Y012110D01*
X013121Y012110D01*
X013121Y012165D01*
X013328Y012165D01*
X013328Y012110D01*
X013383Y012110D01*
X013383Y012165D01*
X013383Y012336D01*
X013328Y012359D01*
X013328Y012165D01*
X013383Y012165D01*
X013661Y012165D01*
X013661Y012167D01*
X013649Y012226D01*
X013626Y012282D01*
X013598Y012324D01*
X013690Y012362D01*
X013781Y012453D01*
X013831Y012573D01*
X013831Y012702D01*
X013781Y012821D01*
X013690Y012913D01*
X013571Y012962D01*
X013441Y012962D01*
X013322Y012913D01*
X013230Y012821D01*
X013181Y012702D01*
X013181Y012573D01*
X013230Y012453D01*
X013257Y012427D01*
X013211Y012408D01*
X013161Y012374D01*
X013119Y012332D01*
X013086Y012282D01*
X013084Y012279D01*
X013081Y012288D01*
X013006Y012362D01*
X012924Y012396D01*
X012981Y012453D01*
X013031Y012573D01*
X013031Y012702D01*
X012981Y012821D01*
X012890Y012913D01*
X012771Y012962D01*
X012641Y012962D01*
X012522Y012913D01*
X012430Y012821D01*
X012381Y012702D01*
X012381Y012573D01*
X012430Y012453D01*
X012517Y012366D01*
X012404Y012366D01*
X012270Y012232D01*
X012270Y012043D01*
X012404Y011908D01*
X012594Y011908D01*
X012652Y011966D01*
X012706Y011913D01*
X012767Y011887D01*
X012706Y011862D01*
X012631Y011788D01*
X012591Y011690D01*
X012591Y011599D01*
X011516Y010524D01*
X011516Y011300D01*
X011605Y011337D01*
X011729Y011461D01*
X011796Y011623D01*
X011796Y011798D01*
X011729Y011959D01*
X011605Y012083D01*
X011443Y012150D01*
X011268Y012150D01*
X011107Y012083D01*
X010983Y011959D01*
X010916Y011798D01*
X010916Y011623D01*
X010983Y011461D01*
X011107Y011337D01*
X011196Y011300D01*
X011196Y010529D01*
X010381Y009714D01*
X010381Y007763D01*
X010372Y007783D01*
X010296Y007913D01*
X010210Y008037D01*
X010113Y008152D01*
X010007Y008259D01*
X009891Y008356D01*
X009768Y008442D01*
X009637Y008517D01*
X009501Y008581D01*
X009359Y008632D01*
X009214Y008671D01*
X009066Y008698D01*
X008915Y008711D01*
X007906Y008711D01*
X007906Y007036D01*
X007806Y007036D01*
X007806Y008711D01*
X006796Y008711D01*
X006646Y008698D01*
X006498Y008671D01*
X006353Y008632D01*
X006211Y008581D01*
X006074Y008517D01*
X005944Y008442D01*
X005821Y008356D01*
X005705Y008259D01*
X005599Y008152D01*
X005502Y008037D01*
X005416Y007913D01*
X005341Y007784D01*
X005341Y008123D01*
X005373Y008155D01*
X005471Y008155D01*
X005605Y008289D01*
X005605Y008479D01*
X005471Y008613D01*
X005281Y008613D01*
X005178Y008510D01*
X005178Y010306D01*
X006179Y011307D01*
X006268Y011270D01*
X006443Y011270D01*
X006605Y011337D01*
X006729Y011461D01*
X006796Y011623D01*
X006796Y011798D01*
X006729Y011959D01*
X006693Y011996D01*
X007019Y011996D01*
X006983Y011959D01*
X006916Y011798D01*
X006916Y011623D01*
X006983Y011461D01*
X007107Y011337D01*
X007196Y011300D01*
X007196Y010400D01*
X007127Y010331D01*
X007127Y010141D01*
X007261Y010007D01*
X007451Y010007D01*
X007585Y010141D01*
X007585Y010331D01*
X007516Y010400D01*
X007516Y011300D01*
X007605Y011337D01*
X007729Y011461D01*
X007796Y011623D01*
X007796Y011798D01*
X007729Y011959D01*
X007714Y011975D01*
X007732Y011969D01*
X007806Y011957D01*
X007806Y012436D01*
X007346Y012436D01*
X007346Y012536D01*
X007806Y012536D01*
X007806Y013015D01*
X007732Y013003D01*
X007652Y012977D01*
X007578Y012939D01*
X007511Y012890D01*
X007452Y012831D01*
X007403Y012764D01*
X007365Y012689D01*
X007346Y012631D01*
X007346Y012911D01*
X007281Y012976D01*
X006430Y012976D01*
X006366Y012911D01*
X006366Y012150D01*
X006268Y012150D01*
X006107Y012083D01*
X005983Y011959D01*
X005916Y011798D01*
X005916Y011623D01*
X005953Y011533D01*
X004952Y010532D01*
X004858Y010439D01*
X004858Y005660D01*
X004516Y006002D01*
X004858Y006002D01*
X004858Y006100D02*
X004516Y006100D01*
X004516Y006002D02*
X004516Y011300D01*
X004605Y011337D01*
X004729Y011461D01*
X004796Y011623D01*
X004796Y011798D01*
X004729Y011959D01*
X004605Y012083D01*
X004443Y012150D01*
X004268Y012150D01*
X004107Y012083D01*
X003983Y011959D01*
X003916Y011798D01*
X003916Y011623D01*
X003983Y011461D01*
X004107Y011337D01*
X004196Y011300D01*
X004196Y005869D01*
X005731Y004334D01*
X005731Y004293D01*
X005865Y004159D01*
X006055Y004159D01*
X006189Y004293D01*
X006189Y004483D01*
X006055Y004617D01*
X005900Y004617D01*
X005515Y005002D01*
X005634Y005120D01*
X005634Y005207D01*
X007557Y003284D01*
X007650Y003190D01*
X009201Y003190D01*
X009953Y002438D01*
X009916Y002349D01*
X009916Y002174D01*
X009983Y002012D01*
X010016Y001979D01*
X009865Y001979D01*
X009759Y002085D01*
X009796Y002174D01*
X009796Y002349D01*
X009729Y002511D01*
X009605Y002634D01*
X009443Y002701D01*
X009268Y002701D01*
X009107Y002634D01*
X008983Y002511D01*
X008916Y002349D01*
X008916Y002174D01*
X008983Y002012D01*
X009107Y001888D01*
X009268Y001821D01*
X009443Y001821D01*
X009533Y001858D01*
X009638Y001753D01*
X009732Y001659D01*
X010604Y001659D01*
X010711Y001766D02*
X012515Y001766D01*
X012551Y001865D02*
X011548Y001865D01*
X011680Y001963D02*
X012585Y001963D01*
X013067Y001963D02*
X014001Y001963D01*
X014001Y001865D02*
X013102Y001865D01*
X013138Y001766D02*
X014001Y001766D01*
X014001Y001668D02*
X013141Y001668D01*
X014001Y001372D02*
X001703Y001372D01*
X001703Y001274D02*
X014001Y001274D01*
X014001Y001175D02*
X001703Y001175D01*
X001703Y001077D02*
X014001Y001077D01*
X014001Y000978D02*
X001703Y000978D01*
X001703Y000880D02*
X014001Y000880D01*
X014001Y000833D02*
X001703Y000833D01*
X001703Y013131D01*
X014001Y013131D01*
X014001Y000833D01*
X014001Y002062D02*
X011749Y002062D01*
X011790Y002160D02*
X014001Y002160D01*
X014001Y002259D02*
X011796Y002259D01*
X011792Y002357D02*
X014001Y002357D01*
X014001Y002456D02*
X011752Y002456D01*
X011685Y002554D02*
X014001Y002554D01*
X014001Y002653D02*
X011561Y002653D01*
X011151Y002653D02*
X011009Y002653D01*
X011009Y002751D02*
X014001Y002751D01*
X014001Y002850D02*
X011009Y002850D01*
X011009Y002948D02*
X014001Y002948D01*
X014001Y003047D02*
X011009Y003047D01*
X011009Y003145D02*
X014001Y003145D01*
X014001Y003244D02*
X011009Y003244D01*
X011009Y003342D02*
X014001Y003342D01*
X014001Y003441D02*
X011009Y003441D01*
X011009Y003539D02*
X014001Y003539D01*
X014001Y003638D02*
X011009Y003638D01*
X011009Y003736D02*
X014001Y003736D01*
X014001Y003835D02*
X011009Y003835D01*
X011009Y003933D02*
X014001Y003933D01*
X014001Y004032D02*
X011009Y004032D01*
X011009Y004130D02*
X014001Y004130D01*
X014001Y004229D02*
X011009Y004229D01*
X011009Y004327D02*
X014001Y004327D01*
X014001Y004426D02*
X011009Y004426D01*
X011009Y004524D02*
X014001Y004524D01*
X014001Y004623D02*
X011009Y004623D01*
X011009Y004721D02*
X014001Y004721D01*
X014001Y004820D02*
X011009Y004820D01*
X011009Y004918D02*
X014001Y004918D01*
X014001Y005017D02*
X011009Y005017D01*
X011049Y005115D02*
X014001Y005115D01*
X014001Y005214D02*
X011147Y005214D01*
X011246Y005312D02*
X014001Y005312D01*
X014001Y005411D02*
X011319Y005411D01*
X011319Y005509D02*
X014001Y005509D01*
X014001Y005608D02*
X011319Y005608D01*
X011319Y005706D02*
X014001Y005706D01*
X014001Y005805D02*
X012621Y005805D01*
X012647Y005903D02*
X014001Y005903D01*
X014001Y006002D02*
X012647Y006002D01*
X012647Y006100D02*
X014001Y006100D01*
X014001Y006199D02*
X012647Y006199D01*
X012647Y006297D02*
X014001Y006297D01*
X014001Y006396D02*
X012647Y006396D01*
X012647Y006494D02*
X014001Y006494D01*
X014001Y006593D02*
X012647Y006593D01*
X012647Y006691D02*
X014001Y006691D01*
X014001Y006790D02*
X012647Y006790D01*
X012723Y006888D02*
X014001Y006888D01*
X014001Y006987D02*
X012821Y006987D01*
X012920Y007085D02*
X014001Y007085D01*
X014001Y007184D02*
X013018Y007184D01*
X013117Y007282D02*
X014001Y007282D01*
X014001Y007381D02*
X013215Y007381D01*
X013314Y007479D02*
X014001Y007479D01*
X014001Y007578D02*
X013412Y007578D01*
X013511Y007676D02*
X014001Y007676D01*
X014001Y007775D02*
X013609Y007775D01*
X013708Y007873D02*
X014001Y007873D01*
X014001Y007972D02*
X013806Y007972D01*
X013818Y008070D02*
X014001Y008070D01*
X014001Y008169D02*
X013818Y008169D01*
X013818Y008267D02*
X014001Y008267D01*
X014001Y008366D02*
X013818Y008366D01*
X013818Y008464D02*
X014001Y008464D01*
X014001Y008563D02*
X013818Y008563D01*
X013818Y008661D02*
X014001Y008661D01*
X014001Y008760D02*
X013818Y008760D01*
X013818Y008858D02*
X014001Y008858D01*
X014001Y008957D02*
X013818Y008957D01*
X013818Y009055D02*
X014001Y009055D01*
X014001Y009154D02*
X013818Y009154D01*
X013818Y009252D02*
X014001Y009252D01*
X014001Y009351D02*
X013818Y009351D01*
X013818Y009449D02*
X014001Y009449D01*
X014001Y009548D02*
X013818Y009548D01*
X013818Y009646D02*
X014001Y009646D01*
X014001Y009745D02*
X013818Y009745D01*
X013818Y009843D02*
X014001Y009843D01*
X014001Y009942D02*
X013818Y009942D01*
X013818Y010040D02*
X014001Y010040D01*
X014001Y010139D02*
X013818Y010139D01*
X013818Y010237D02*
X014001Y010237D01*
X014001Y010336D02*
X013818Y010336D01*
X013818Y010434D02*
X014001Y010434D01*
X014001Y010533D02*
X013818Y010533D01*
X013818Y010631D02*
X014001Y010631D01*
X014001Y010730D02*
X013818Y010730D01*
X013818Y010828D02*
X014001Y010828D01*
X014001Y010927D02*
X013818Y010927D01*
X013818Y011025D02*
X014001Y011025D01*
X014001Y011124D02*
X013818Y011124D01*
X013818Y011222D02*
X014001Y011222D01*
X014001Y011321D02*
X013818Y011321D01*
X013800Y011419D02*
X014001Y011419D01*
X014001Y011518D02*
X013702Y011518D01*
X013621Y011616D02*
X014001Y011616D01*
X014001Y011715D02*
X013611Y011715D01*
X013555Y011813D02*
X014001Y011813D01*
X014001Y011912D02*
X013562Y011912D01*
X013633Y012010D02*
X014001Y012010D01*
X014001Y012109D02*
X013661Y012109D01*
X013653Y012207D02*
X014001Y012207D01*
X014001Y012306D02*
X013610Y012306D01*
X013732Y012404D02*
X014001Y012404D01*
X014001Y012503D02*
X013802Y012503D01*
X013831Y012601D02*
X014001Y012601D01*
X014001Y012700D02*
X013831Y012700D01*
X013791Y012798D02*
X014001Y012798D01*
X014001Y012897D02*
X013706Y012897D01*
X014001Y012995D02*
X008003Y012995D01*
X007980Y013003D02*
X007906Y013015D01*
X007906Y012536D01*
X007806Y012536D01*
X007806Y012436D01*
X007906Y012436D01*
X008366Y012436D01*
X008366Y012536D01*
X007906Y012536D01*
X007906Y012436D01*
X007906Y011957D01*
X007980Y011969D01*
X007998Y011975D01*
X007983Y011959D01*
X007916Y011798D01*
X007916Y011623D01*
X007983Y011461D01*
X008107Y011337D01*
X008268Y011270D01*
X008443Y011270D01*
X008605Y011337D01*
X008729Y011461D01*
X008796Y011623D01*
X008796Y011798D01*
X008729Y011959D01*
X008646Y012042D01*
X008758Y011996D01*
X008953Y011996D01*
X009066Y012042D01*
X008983Y011959D01*
X008916Y011798D01*
X008916Y011623D01*
X008983Y011461D01*
X009107Y011337D01*
X009268Y011270D01*
X009443Y011270D01*
X009533Y011307D01*
X010057Y010783D01*
X010213Y010783D01*
X010282Y010714D01*
X010471Y010714D01*
X010606Y010848D01*
X010606Y011038D01*
X010471Y011172D01*
X010282Y011172D01*
X010213Y011103D01*
X010189Y011103D01*
X009759Y011533D01*
X009796Y011623D01*
X009796Y011798D01*
X009729Y011959D01*
X009605Y012083D01*
X009443Y012150D01*
X009268Y012150D01*
X009174Y012111D01*
X009271Y012208D01*
X009346Y012388D01*
X009346Y012583D01*
X009271Y012763D01*
X009133Y012901D01*
X008953Y012976D01*
X008758Y012976D01*
X008578Y012901D01*
X008441Y012763D01*
X008374Y012603D01*
X008373Y012610D01*
X008347Y012689D01*
X008309Y012764D01*
X008260Y012831D01*
X008201Y012890D01*
X008134Y012939D01*
X008059Y012977D01*
X007980Y013003D01*
X007906Y012995D02*
X007806Y012995D01*
X007709Y012995D02*
X001703Y012995D01*
X001703Y012897D02*
X006366Y012897D01*
X006366Y012798D02*
X001703Y012798D01*
X001703Y012700D02*
X006366Y012700D01*
X006366Y012601D02*
X001703Y012601D01*
X001703Y012503D02*
X006366Y012503D01*
X006366Y012404D02*
X001703Y012404D01*
X001703Y012306D02*
X006366Y012306D01*
X006366Y012207D02*
X001703Y012207D01*
X001703Y012109D02*
X004168Y012109D01*
X004034Y012010D02*
X001703Y012010D01*
X001703Y011912D02*
X003963Y011912D01*
X003922Y011813D02*
X001703Y011813D01*
X001703Y011715D02*
X003916Y011715D01*
X003919Y011616D02*
X001703Y011616D01*
X001703Y011518D02*
X003959Y011518D01*
X004025Y011419D02*
X001703Y011419D01*
X001703Y011321D02*
X004146Y011321D01*
X004196Y011222D02*
X001703Y011222D01*
X001703Y011124D02*
X004196Y011124D01*
X004196Y011025D02*
X001703Y011025D01*
X001703Y010927D02*
X004196Y010927D01*
X004196Y010828D02*
X001703Y010828D01*
X001703Y010730D02*
X004196Y010730D01*
X004196Y010631D02*
X001703Y010631D01*
X001703Y010533D02*
X004196Y010533D01*
X004196Y010434D02*
X001703Y010434D01*
X001703Y010336D02*
X004196Y010336D01*
X004196Y010237D02*
X001703Y010237D01*
X001703Y010139D02*
X004196Y010139D01*
X004196Y010040D02*
X001703Y010040D01*
X001703Y009942D02*
X004196Y009942D01*
X004196Y009843D02*
X001703Y009843D01*
X001703Y009745D02*
X004196Y009745D01*
X004196Y009646D02*
X001703Y009646D01*
X001703Y009548D02*
X004196Y009548D01*
X004196Y009449D02*
X001703Y009449D01*
X001703Y009351D02*
X004196Y009351D01*
X004196Y009252D02*
X001703Y009252D01*
X001703Y009154D02*
X004196Y009154D01*
X004196Y009055D02*
X001703Y009055D01*
X001703Y008957D02*
X004196Y008957D01*
X004196Y008858D02*
X001703Y008858D01*
X001703Y008760D02*
X004196Y008760D01*
X004196Y008661D02*
X001703Y008661D01*
X001703Y008563D02*
X004196Y008563D01*
X004196Y008464D02*
X001703Y008464D01*
X001703Y008366D02*
X004196Y008366D01*
X004196Y008267D02*
X001703Y008267D01*
X001703Y008169D02*
X003092Y008169D01*
X003065Y008142D02*
X003065Y007050D01*
X003130Y006986D01*
X003921Y006986D01*
X003985Y007050D01*
X003985Y008142D01*
X003921Y008206D01*
X003130Y008206D01*
X003065Y008142D01*
X003065Y008070D02*
X001703Y008070D01*
X001703Y007972D02*
X003065Y007972D01*
X003065Y007873D02*
X001703Y007873D01*
X001703Y007775D02*
X003065Y007775D01*
X003065Y007676D02*
X001703Y007676D01*
X001703Y007578D02*
X003065Y007578D01*
X003065Y007479D02*
X001703Y007479D01*
X001703Y007381D02*
X003065Y007381D01*
X003065Y007282D02*
X001703Y007282D01*
X001703Y007184D02*
X003065Y007184D01*
X003065Y007085D02*
X001703Y007085D01*
X001703Y006987D02*
X003129Y006987D01*
X003130Y006986D02*
X003065Y006921D01*
X003065Y005830D01*
X003130Y005766D01*
X003921Y005766D01*
X003985Y005830D01*
X003985Y006921D01*
X003921Y006986D01*
X003130Y006986D01*
X003065Y006888D02*
X001703Y006888D01*
X001703Y006790D02*
X003065Y006790D01*
X003065Y006691D02*
X001703Y006691D01*
X001703Y006593D02*
X003065Y006593D01*
X003065Y006494D02*
X001703Y006494D01*
X001703Y006396D02*
X003065Y006396D01*
X003065Y006297D02*
X001703Y006297D01*
X001703Y006199D02*
X003065Y006199D01*
X003065Y006100D02*
X001703Y006100D01*
X001703Y006002D02*
X003065Y006002D01*
X003065Y005903D02*
X001703Y005903D01*
X001703Y005805D02*
X003090Y005805D01*
X003960Y005805D02*
X004260Y005805D01*
X004196Y005903D02*
X003985Y005903D01*
X003985Y006002D02*
X004196Y006002D01*
X004196Y006100D02*
X003985Y006100D01*
X003985Y006199D02*
X004196Y006199D01*
X004196Y006297D02*
X003985Y006297D01*
X003985Y006396D02*
X004196Y006396D01*
X004196Y006494D02*
X003985Y006494D01*
X003985Y006593D02*
X004196Y006593D01*
X004196Y006691D02*
X003985Y006691D01*
X003985Y006790D02*
X004196Y006790D01*
X004196Y006888D02*
X003985Y006888D01*
X003922Y006987D02*
X004196Y006987D01*
X004196Y007085D02*
X003985Y007085D01*
X003985Y007184D02*
X004196Y007184D01*
X004196Y007282D02*
X003985Y007282D01*
X003985Y007381D02*
X004196Y007381D01*
X004196Y007479D02*
X003985Y007479D01*
X003985Y007578D02*
X004196Y007578D01*
X004196Y007676D02*
X003985Y007676D01*
X003985Y007775D02*
X004196Y007775D01*
X004196Y007873D02*
X003985Y007873D01*
X003985Y007972D02*
X004196Y007972D01*
X004196Y008070D02*
X003985Y008070D01*
X003958Y008169D02*
X004196Y008169D01*
X004516Y008169D02*
X004858Y008169D01*
X004858Y008267D02*
X004516Y008267D01*
X004516Y008366D02*
X004858Y008366D01*
X004858Y008464D02*
X004516Y008464D01*
X004516Y008563D02*
X004858Y008563D01*
X004858Y008661D02*
X004516Y008661D01*
X004516Y008760D02*
X004858Y008760D01*
X004858Y008858D02*
X004516Y008858D01*
X004516Y008957D02*
X004858Y008957D01*
X004858Y009055D02*
X004516Y009055D01*
X004516Y009154D02*
X004858Y009154D01*
X004858Y009252D02*
X004516Y009252D01*
X004516Y009351D02*
X004858Y009351D01*
X004858Y009449D02*
X004516Y009449D01*
X004516Y009548D02*
X004858Y009548D01*
X004858Y009646D02*
X004516Y009646D01*
X004516Y009745D02*
X004858Y009745D01*
X004858Y009843D02*
X004516Y009843D01*
X004516Y009942D02*
X004858Y009942D01*
X004858Y010040D02*
X004516Y010040D01*
X004516Y010139D02*
X004858Y010139D01*
X004858Y010237D02*
X004516Y010237D01*
X004516Y010336D02*
X004858Y010336D01*
X004858Y010434D02*
X004516Y010434D01*
X004516Y010533D02*
X004952Y010533D01*
X005051Y010631D02*
X004516Y010631D01*
X004516Y010730D02*
X005149Y010730D01*
X005248Y010828D02*
X004516Y010828D01*
X004516Y010927D02*
X005346Y010927D01*
X005445Y011025D02*
X004516Y011025D01*
X004516Y011124D02*
X005543Y011124D01*
X005642Y011222D02*
X004516Y011222D01*
X004566Y011321D02*
X005146Y011321D01*
X005107Y011337D02*
X005268Y011270D01*
X005443Y011270D01*
X005605Y011337D01*
X005729Y011461D01*
X005796Y011623D01*
X005796Y011798D01*
X005729Y011959D01*
X005605Y012083D01*
X005443Y012150D01*
X005268Y012150D01*
X005107Y012083D01*
X004983Y011959D01*
X004916Y011798D01*
X004916Y011623D01*
X004983Y011461D01*
X005107Y011337D01*
X005025Y011419D02*
X004687Y011419D01*
X004752Y011518D02*
X004959Y011518D01*
X004919Y011616D02*
X004793Y011616D01*
X004796Y011715D02*
X004916Y011715D01*
X004922Y011813D02*
X004789Y011813D01*
X004749Y011912D02*
X004963Y011912D01*
X005034Y012010D02*
X004678Y012010D01*
X004543Y012109D02*
X005168Y012109D01*
X005543Y012109D02*
X006168Y012109D01*
X006034Y012010D02*
X005678Y012010D01*
X005749Y011912D02*
X005963Y011912D01*
X005922Y011813D02*
X005789Y011813D01*
X005796Y011715D02*
X005916Y011715D01*
X005919Y011616D02*
X005793Y011616D01*
X005752Y011518D02*
X005937Y011518D01*
X005839Y011419D02*
X005687Y011419D01*
X005740Y011321D02*
X005566Y011321D01*
X005897Y011025D02*
X007196Y011025D01*
X007196Y010927D02*
X005799Y010927D01*
X005700Y010828D02*
X007196Y010828D01*
X007196Y010730D02*
X005602Y010730D01*
X005503Y010631D02*
X007196Y010631D01*
X007196Y010533D02*
X005405Y010533D01*
X005306Y010434D02*
X007196Y010434D01*
X007132Y010336D02*
X005208Y010336D01*
X005178Y010237D02*
X007127Y010237D01*
X007129Y010139D02*
X005178Y010139D01*
X005178Y010040D02*
X007227Y010040D01*
X007356Y010236D02*
X007356Y011710D01*
X007687Y011419D02*
X008025Y011419D01*
X007959Y011518D02*
X007752Y011518D01*
X007793Y011616D02*
X007919Y011616D01*
X007916Y011715D02*
X007796Y011715D01*
X007789Y011813D02*
X007922Y011813D01*
X007963Y011912D02*
X007749Y011912D01*
X007806Y012010D02*
X007906Y012010D01*
X007906Y012109D02*
X007806Y012109D01*
X007806Y012207D02*
X007906Y012207D01*
X007906Y012306D02*
X007806Y012306D01*
X007806Y012404D02*
X007906Y012404D01*
X007856Y012486D02*
X007856Y009883D01*
X007856Y006986D01*
X007806Y006936D02*
X007906Y006936D01*
X007906Y005261D01*
X008915Y005261D01*
X009066Y005274D01*
X009214Y005300D01*
X009359Y005339D01*
X009501Y005391D01*
X009637Y005454D01*
X009768Y005530D01*
X009891Y005616D01*
X010007Y005713D01*
X010113Y005819D01*
X010210Y005935D01*
X010296Y006058D01*
X010372Y006189D01*
X010381Y006209D01*
X010381Y005168D01*
X010365Y005152D01*
X010268Y005152D01*
X010133Y005018D01*
X010133Y004828D01*
X010268Y004694D01*
X010457Y004694D01*
X010591Y004828D01*
X010591Y004926D01*
X010607Y004941D01*
X010689Y005023D01*
X010689Y002550D01*
X010605Y002634D01*
X010443Y002701D01*
X010268Y002701D01*
X010179Y002664D01*
X009427Y003417D01*
X009333Y003510D01*
X007783Y003510D01*
X005341Y005952D01*
X005341Y006187D01*
X005416Y006058D01*
X005502Y005935D01*
X005599Y005819D01*
X005705Y005713D01*
X005821Y005616D01*
X005944Y005530D01*
X006074Y005454D01*
X006211Y005391D01*
X006353Y005339D01*
X006498Y005300D01*
X006646Y005274D01*
X006796Y005261D01*
X007806Y005261D01*
X007806Y006936D01*
X007806Y006888D02*
X007906Y006888D01*
X007906Y006790D02*
X007806Y006790D01*
X007806Y006691D02*
X007906Y006691D01*
X007906Y006593D02*
X007806Y006593D01*
X007806Y006494D02*
X007906Y006494D01*
X007906Y006396D02*
X007806Y006396D01*
X007806Y006297D02*
X007906Y006297D01*
X007906Y006199D02*
X007806Y006199D01*
X007806Y006100D02*
X007906Y006100D01*
X007906Y006002D02*
X007806Y006002D01*
X007806Y005903D02*
X007906Y005903D01*
X007906Y005805D02*
X007806Y005805D01*
X007806Y005706D02*
X007906Y005706D01*
X007906Y005608D02*
X007806Y005608D01*
X007806Y005509D02*
X007906Y005509D01*
X007906Y005411D02*
X007806Y005411D01*
X007806Y005312D02*
X007906Y005312D01*
X006966Y004327D02*
X010689Y004327D01*
X010689Y004229D02*
X007064Y004229D01*
X007163Y004130D02*
X010689Y004130D01*
X010689Y004032D02*
X007261Y004032D01*
X007360Y003933D02*
X010689Y003933D01*
X010689Y003835D02*
X007458Y003835D01*
X007557Y003736D02*
X010689Y003736D01*
X010689Y003638D02*
X007655Y003638D01*
X007754Y003539D02*
X010689Y003539D01*
X010689Y003441D02*
X009403Y003441D01*
X009501Y003342D02*
X010689Y003342D01*
X010689Y003244D02*
X009600Y003244D01*
X009698Y003145D02*
X010689Y003145D01*
X010689Y003047D02*
X009797Y003047D01*
X009895Y002948D02*
X010689Y002948D01*
X010689Y002850D02*
X009994Y002850D01*
X010092Y002751D02*
X010689Y002751D01*
X010689Y002653D02*
X010561Y002653D01*
X010685Y002554D02*
X010689Y002554D01*
X010356Y002261D02*
X009267Y003350D01*
X007717Y003350D01*
X005181Y005886D01*
X005181Y008189D01*
X005376Y008384D01*
X005605Y008366D02*
X005835Y008366D01*
X005716Y008267D02*
X005583Y008267D01*
X005615Y008169D02*
X005485Y008169D01*
X005530Y008070D02*
X005341Y008070D01*
X005341Y007972D02*
X005456Y007972D01*
X005392Y007873D02*
X005341Y007873D01*
X004858Y007873D02*
X004516Y007873D01*
X004516Y007775D02*
X004858Y007775D01*
X004858Y007676D02*
X004516Y007676D01*
X004516Y007578D02*
X004858Y007578D01*
X004858Y007479D02*
X004516Y007479D01*
X004516Y007381D02*
X004858Y007381D01*
X004858Y007282D02*
X004516Y007282D01*
X004516Y007184D02*
X004858Y007184D01*
X004858Y007085D02*
X004516Y007085D01*
X004516Y006987D02*
X004858Y006987D01*
X004858Y006888D02*
X004516Y006888D01*
X004516Y006790D02*
X004858Y006790D01*
X004858Y006691D02*
X004516Y006691D01*
X004516Y006593D02*
X004858Y006593D01*
X004858Y006494D02*
X004516Y006494D01*
X004516Y006396D02*
X004858Y006396D01*
X004858Y006297D02*
X004516Y006297D01*
X004516Y006199D02*
X004858Y006199D01*
X004858Y005903D02*
X004614Y005903D01*
X004713Y005805D02*
X004858Y005805D01*
X004858Y005706D02*
X004811Y005706D01*
X005018Y005602D02*
X005405Y005215D01*
X005629Y005115D02*
X005725Y005115D01*
X005824Y005017D02*
X005530Y005017D01*
X005599Y004918D02*
X005922Y004918D01*
X006021Y004820D02*
X005698Y004820D01*
X005796Y004721D02*
X006119Y004721D01*
X006218Y004623D02*
X005895Y004623D01*
X005903Y004388D02*
X005960Y004388D01*
X005903Y004388D02*
X004356Y005935D01*
X004356Y011710D01*
X005018Y010372D02*
X005018Y005602D01*
X004753Y005312D02*
X001703Y005312D01*
X001703Y005214D02*
X004851Y005214D01*
X004950Y005115D02*
X001703Y005115D01*
X001703Y005017D02*
X005048Y005017D01*
X005147Y004918D02*
X001703Y004918D01*
X001703Y004820D02*
X005245Y004820D01*
X005344Y004721D02*
X001703Y004721D01*
X001703Y004623D02*
X005442Y004623D01*
X005541Y004524D02*
X001703Y004524D01*
X001703Y004426D02*
X005639Y004426D01*
X005731Y004327D02*
X001703Y004327D01*
X001703Y004229D02*
X005795Y004229D01*
X006124Y004229D02*
X006612Y004229D01*
X006513Y004327D02*
X006189Y004327D01*
X006189Y004426D02*
X006415Y004426D01*
X006316Y004524D02*
X006148Y004524D01*
X006473Y004820D02*
X010142Y004820D01*
X010133Y004918D02*
X006375Y004918D01*
X006276Y005017D02*
X010133Y005017D01*
X010231Y005115D02*
X006178Y005115D01*
X006079Y005214D02*
X010381Y005214D01*
X010381Y005312D02*
X009259Y005312D01*
X009544Y005411D02*
X010381Y005411D01*
X010381Y005509D02*
X009732Y005509D01*
X009879Y005608D02*
X010381Y005608D01*
X010381Y005706D02*
X009999Y005706D01*
X010098Y005805D02*
X010381Y005805D01*
X010381Y005903D02*
X010183Y005903D01*
X010257Y006002D02*
X010381Y006002D01*
X010381Y006100D02*
X010321Y006100D01*
X010376Y006199D02*
X010381Y006199D01*
X010918Y005579D02*
X010918Y007518D01*
X011431Y008031D01*
X010870Y008430D02*
X011050Y008610D01*
X011050Y009332D01*
X012856Y011137D01*
X013356Y011137D02*
X013356Y011025D01*
X013462Y010919D01*
X013462Y010278D01*
X012469Y009285D01*
X012647Y009107D01*
X012647Y007596D01*
X012187Y007596D01*
X012594Y006986D02*
X011587Y006986D01*
X011153Y007419D01*
X011159Y007089D02*
X011159Y005452D01*
X010849Y005142D01*
X010849Y002131D01*
X010537Y001819D01*
X009798Y001819D01*
X009356Y002261D01*
X009032Y001963D02*
X008680Y001963D01*
X008729Y002012D02*
X008796Y002174D01*
X008796Y002349D01*
X008729Y002511D01*
X008605Y002634D01*
X008443Y002701D01*
X008268Y002701D01*
X008107Y002634D01*
X007983Y002511D01*
X007916Y002349D01*
X007916Y002174D01*
X007983Y002012D01*
X008107Y001888D01*
X008268Y001821D01*
X008443Y001821D01*
X008605Y001888D01*
X008729Y002012D01*
X008749Y002062D02*
X008962Y002062D01*
X008922Y002160D02*
X008790Y002160D01*
X008796Y002259D02*
X008916Y002259D01*
X008919Y002357D02*
X008792Y002357D01*
X008752Y002456D02*
X008960Y002456D01*
X009027Y002554D02*
X008685Y002554D01*
X008561Y002653D02*
X009151Y002653D01*
X009443Y002948D02*
X001703Y002948D01*
X001703Y002850D02*
X009541Y002850D01*
X009640Y002751D02*
X001703Y002751D01*
X001703Y002653D02*
X004151Y002653D01*
X004107Y002634D02*
X003983Y002511D01*
X003916Y002349D01*
X003916Y002174D01*
X003983Y002012D01*
X004107Y001888D01*
X004268Y001821D01*
X004443Y001821D01*
X004605Y001888D01*
X004729Y002012D01*
X004796Y002174D01*
X004796Y002349D01*
X004729Y002511D01*
X004605Y002634D01*
X004443Y002701D01*
X004268Y002701D01*
X004107Y002634D01*
X004027Y002554D02*
X001703Y002554D01*
X001703Y002456D02*
X003960Y002456D01*
X003919Y002357D02*
X001703Y002357D01*
X001703Y002259D02*
X003916Y002259D01*
X003922Y002160D02*
X001703Y002160D01*
X001703Y002062D02*
X003962Y002062D01*
X004032Y001963D02*
X001703Y001963D01*
X001703Y001865D02*
X004164Y001865D01*
X004548Y001865D02*
X005164Y001865D01*
X005107Y001888D02*
X005268Y001821D01*
X005443Y001821D01*
X005605Y001888D01*
X005729Y002012D01*
X005796Y002174D01*
X005796Y002349D01*
X005729Y002511D01*
X005605Y002634D01*
X005443Y002701D01*
X005268Y002701D01*
X005107Y002634D01*
X004983Y002511D01*
X004916Y002349D01*
X004916Y002174D01*
X004983Y002012D01*
X005107Y001888D01*
X005032Y001963D02*
X004680Y001963D01*
X004749Y002062D02*
X004962Y002062D01*
X004922Y002160D02*
X004790Y002160D01*
X004796Y002259D02*
X004916Y002259D01*
X004919Y002357D02*
X004792Y002357D01*
X004752Y002456D02*
X004960Y002456D01*
X005027Y002554D02*
X004685Y002554D01*
X004561Y002653D02*
X005151Y002653D01*
X005561Y002653D02*
X006151Y002653D01*
X006107Y002634D02*
X005983Y002511D01*
X005916Y002349D01*
X005916Y002174D01*
X005983Y002012D01*
X006107Y001888D01*
X006268Y001821D01*
X006443Y001821D01*
X006605Y001888D01*
X006729Y002012D01*
X006796Y002174D01*
X006796Y002349D01*
X006729Y002511D01*
X006605Y002634D01*
X006443Y002701D01*
X006268Y002701D01*
X006107Y002634D01*
X006027Y002554D02*
X005685Y002554D01*
X005752Y002456D02*
X005960Y002456D01*
X005919Y002357D02*
X005792Y002357D01*
X005796Y002259D02*
X005916Y002259D01*
X005922Y002160D02*
X005790Y002160D01*
X005749Y002062D02*
X005962Y002062D01*
X006032Y001963D02*
X005680Y001963D01*
X005548Y001865D02*
X006164Y001865D01*
X006548Y001865D02*
X007164Y001865D01*
X007107Y001888D02*
X007268Y001821D01*
X007443Y001821D01*
X007605Y001888D01*
X007729Y002012D01*
X007796Y002174D01*
X007796Y002349D01*
X007729Y002511D01*
X007605Y002634D01*
X007443Y002701D01*
X007268Y002701D01*
X007107Y002634D01*
X006983Y002511D01*
X006916Y002349D01*
X006916Y002174D01*
X006983Y002012D01*
X007107Y001888D01*
X007032Y001963D02*
X006680Y001963D01*
X006749Y002062D02*
X006962Y002062D01*
X006922Y002160D02*
X006790Y002160D01*
X006796Y002259D02*
X006916Y002259D01*
X006919Y002357D02*
X006792Y002357D01*
X006752Y002456D02*
X006960Y002456D01*
X007027Y002554D02*
X006685Y002554D01*
X006561Y002653D02*
X007151Y002653D01*
X007561Y002653D02*
X008151Y002653D01*
X008027Y002554D02*
X007685Y002554D01*
X007752Y002456D02*
X007960Y002456D01*
X007919Y002357D02*
X007792Y002357D01*
X007796Y002259D02*
X007916Y002259D01*
X007922Y002160D02*
X007790Y002160D01*
X007749Y002062D02*
X007962Y002062D01*
X008032Y001963D02*
X007680Y001963D01*
X007548Y001865D02*
X008164Y001865D01*
X008548Y001865D02*
X009164Y001865D01*
X009625Y001766D02*
X001703Y001766D01*
X001703Y001668D02*
X009723Y001668D01*
X009782Y002062D02*
X009962Y002062D01*
X009922Y002160D02*
X009790Y002160D01*
X009796Y002259D02*
X009916Y002259D01*
X009919Y002357D02*
X009792Y002357D01*
X009752Y002456D02*
X009935Y002456D01*
X009837Y002554D02*
X009685Y002554D01*
X009738Y002653D02*
X009561Y002653D01*
X009344Y003047D02*
X001703Y003047D01*
X001703Y003145D02*
X009246Y003145D01*
X010689Y004426D02*
X006867Y004426D01*
X006769Y004524D02*
X010689Y004524D01*
X010689Y004623D02*
X006670Y004623D01*
X006572Y004721D02*
X010240Y004721D01*
X010362Y004923D02*
X010541Y005101D01*
X010541Y009647D01*
X011356Y010462D01*
X011356Y011710D01*
X011678Y012010D02*
X012302Y012010D01*
X012270Y012109D02*
X011543Y012109D01*
X011749Y011912D02*
X012401Y011912D01*
X012598Y011912D02*
X012708Y011912D01*
X012657Y011813D02*
X011789Y011813D01*
X011796Y011715D02*
X012601Y011715D01*
X012591Y011616D02*
X011793Y011616D01*
X011752Y011518D02*
X012510Y011518D01*
X012412Y011419D02*
X011687Y011419D01*
X011566Y011321D02*
X012313Y011321D01*
X012215Y011222D02*
X011516Y011222D01*
X011516Y011124D02*
X012116Y011124D01*
X012018Y011025D02*
X011516Y011025D01*
X011516Y010927D02*
X011919Y010927D01*
X011821Y010828D02*
X011516Y010828D01*
X011516Y010730D02*
X011722Y010730D01*
X011624Y010631D02*
X011516Y010631D01*
X011516Y010533D02*
X011525Y010533D01*
X011196Y010533D02*
X007516Y010533D01*
X007516Y010631D02*
X011196Y010631D01*
X011196Y010730D02*
X010487Y010730D01*
X010586Y010828D02*
X011196Y010828D01*
X011196Y010927D02*
X010606Y010927D01*
X010606Y011025D02*
X011196Y011025D01*
X011196Y011124D02*
X010520Y011124D01*
X010443Y011270D02*
X010268Y011270D01*
X010107Y011337D01*
X009983Y011461D01*
X009916Y011623D01*
X009916Y011798D01*
X009983Y011959D01*
X010107Y012083D01*
X010268Y012150D01*
X010443Y012150D01*
X010605Y012083D01*
X010729Y011959D01*
X010796Y011798D01*
X010796Y011623D01*
X010729Y011461D01*
X010605Y011337D01*
X010443Y011270D01*
X010566Y011321D02*
X011146Y011321D01*
X011196Y011222D02*
X010070Y011222D01*
X010146Y011321D02*
X009972Y011321D01*
X010025Y011419D02*
X009873Y011419D01*
X009959Y011518D02*
X009775Y011518D01*
X009793Y011616D02*
X009919Y011616D01*
X009916Y011715D02*
X009796Y011715D01*
X009789Y011813D02*
X009922Y011813D01*
X009963Y011912D02*
X009749Y011912D01*
X009678Y012010D02*
X010034Y012010D01*
X010168Y012109D02*
X009543Y012109D01*
X009270Y012207D02*
X012270Y012207D01*
X012344Y012306D02*
X009312Y012306D01*
X009346Y012404D02*
X012479Y012404D01*
X012410Y012503D02*
X009346Y012503D01*
X009338Y012601D02*
X012381Y012601D01*
X012381Y012700D02*
X009298Y012700D01*
X009236Y012798D02*
X012421Y012798D01*
X012506Y012897D02*
X009138Y012897D01*
X008574Y012897D02*
X008192Y012897D01*
X008284Y012798D02*
X008475Y012798D01*
X008414Y012700D02*
X008342Y012700D01*
X008366Y012503D02*
X007906Y012503D01*
X007856Y012486D02*
X008415Y013045D01*
X012855Y013045D01*
X013161Y012739D01*
X013161Y012332D01*
X013356Y012137D01*
X013383Y012109D02*
X013328Y012109D01*
X013328Y012207D02*
X013383Y012207D01*
X013383Y012306D02*
X013328Y012306D01*
X013206Y012404D02*
X012932Y012404D01*
X013002Y012503D02*
X013210Y012503D01*
X013181Y012601D02*
X013031Y012601D01*
X013031Y012700D02*
X013181Y012700D01*
X013221Y012798D02*
X012991Y012798D01*
X012906Y012897D02*
X013306Y012897D01*
X013102Y012306D02*
X013062Y012306D01*
X012856Y012137D02*
X012499Y012137D01*
X012856Y011637D02*
X010796Y009577D01*
X010796Y008839D01*
X010381Y008858D02*
X005178Y008858D01*
X005178Y008760D02*
X010381Y008760D01*
X010381Y008661D02*
X009251Y008661D01*
X009539Y008563D02*
X010381Y008563D01*
X010381Y008464D02*
X009729Y008464D01*
X009876Y008366D02*
X010381Y008366D01*
X010381Y008267D02*
X009996Y008267D01*
X010096Y008169D02*
X010381Y008169D01*
X010381Y008070D02*
X010182Y008070D01*
X010255Y007972D02*
X010381Y007972D01*
X010381Y007873D02*
X010319Y007873D01*
X010375Y007775D02*
X010381Y007775D01*
X011319Y006888D02*
X011458Y006888D01*
X011319Y006790D02*
X011727Y006790D01*
X011727Y006691D02*
X011319Y006691D01*
X011319Y006593D02*
X011727Y006593D01*
X011727Y006494D02*
X011319Y006494D01*
X011319Y006396D02*
X011727Y006396D01*
X011727Y006297D02*
X011319Y006297D01*
X011319Y006199D02*
X011727Y006199D01*
X011727Y006100D02*
X011319Y006100D01*
X011319Y006002D02*
X011727Y006002D01*
X011727Y005903D02*
X011319Y005903D01*
X011319Y005805D02*
X011752Y005805D01*
X010689Y005017D02*
X010683Y005017D01*
X010689Y004918D02*
X010591Y004918D01*
X010583Y004820D02*
X010689Y004820D01*
X010689Y004721D02*
X010485Y004721D01*
X011009Y002554D02*
X011027Y002554D01*
X011032Y001963D02*
X010908Y001963D01*
X010809Y001865D02*
X011164Y001865D01*
X007597Y003244D02*
X001703Y003244D01*
X001703Y003342D02*
X007498Y003342D01*
X007557Y003284D02*
X007557Y003284D01*
X007400Y003441D02*
X001703Y003441D01*
X001703Y003539D02*
X007301Y003539D01*
X007203Y003638D02*
X001703Y003638D01*
X001703Y003736D02*
X007104Y003736D01*
X007006Y003835D02*
X001703Y003835D01*
X001703Y003933D02*
X006907Y003933D01*
X006809Y004032D02*
X001703Y004032D01*
X001703Y004130D02*
X006710Y004130D01*
X006453Y005312D02*
X005981Y005312D01*
X005882Y005411D02*
X006168Y005411D01*
X005979Y005509D02*
X005784Y005509D01*
X005833Y005608D02*
X005685Y005608D01*
X005713Y005706D02*
X005587Y005706D01*
X005613Y005805D02*
X005488Y005805D01*
X005528Y005903D02*
X005390Y005903D01*
X005341Y006002D02*
X005455Y006002D01*
X005391Y006100D02*
X005341Y006100D01*
X004654Y005411D02*
X001703Y005411D01*
X001703Y005509D02*
X004556Y005509D01*
X004457Y005608D02*
X001703Y005608D01*
X001703Y005706D02*
X004359Y005706D01*
X004516Y007972D02*
X004858Y007972D01*
X004858Y008070D02*
X004516Y008070D01*
X005178Y008563D02*
X005231Y008563D01*
X005178Y008661D02*
X006461Y008661D01*
X006172Y008563D02*
X005522Y008563D01*
X005605Y008464D02*
X005983Y008464D01*
X005178Y008957D02*
X010381Y008957D01*
X010381Y009055D02*
X005178Y009055D01*
X005178Y009154D02*
X010381Y009154D01*
X010381Y009252D02*
X005178Y009252D01*
X005178Y009351D02*
X010381Y009351D01*
X010381Y009449D02*
X005178Y009449D01*
X005178Y009548D02*
X010381Y009548D01*
X010381Y009646D02*
X005178Y009646D01*
X005178Y009745D02*
X010412Y009745D01*
X010511Y009843D02*
X005178Y009843D01*
X005178Y009942D02*
X010609Y009942D01*
X010708Y010040D02*
X007484Y010040D01*
X007583Y010139D02*
X010806Y010139D01*
X010905Y010237D02*
X007585Y010237D01*
X007580Y010336D02*
X011003Y010336D01*
X011102Y010434D02*
X007516Y010434D01*
X007516Y010730D02*
X010266Y010730D01*
X010376Y010943D02*
X010123Y010943D01*
X009356Y011710D01*
X009034Y012010D02*
X008988Y012010D01*
X008963Y011912D02*
X008749Y011912D01*
X008723Y012010D02*
X008678Y012010D01*
X008789Y011813D02*
X008922Y011813D01*
X008916Y011715D02*
X008796Y011715D01*
X008793Y011616D02*
X008919Y011616D01*
X008959Y011518D02*
X008752Y011518D01*
X008687Y011419D02*
X009025Y011419D01*
X009146Y011321D02*
X008566Y011321D01*
X008146Y011321D02*
X007566Y011321D01*
X007516Y011222D02*
X009618Y011222D01*
X009716Y011124D02*
X007516Y011124D01*
X007516Y011025D02*
X009815Y011025D01*
X009913Y010927D02*
X007516Y010927D01*
X007516Y010828D02*
X010012Y010828D01*
X010169Y011124D02*
X010233Y011124D01*
X010687Y011419D02*
X011025Y011419D01*
X010959Y011518D02*
X010752Y011518D01*
X010793Y011616D02*
X010919Y011616D01*
X010916Y011715D02*
X010796Y011715D01*
X010789Y011813D02*
X010922Y011813D01*
X010963Y011912D02*
X010749Y011912D01*
X010678Y012010D02*
X011034Y012010D01*
X011168Y012109D02*
X010543Y012109D01*
X007906Y012601D02*
X007806Y012601D01*
X007806Y012503D02*
X007346Y012503D01*
X007346Y012700D02*
X007370Y012700D01*
X007346Y012798D02*
X007428Y012798D01*
X007346Y012897D02*
X007520Y012897D01*
X007806Y012897D02*
X007906Y012897D01*
X007906Y012798D02*
X007806Y012798D01*
X007806Y012700D02*
X007906Y012700D01*
X006963Y011912D02*
X006749Y011912D01*
X006789Y011813D02*
X006922Y011813D01*
X006916Y011715D02*
X006796Y011715D01*
X006793Y011616D02*
X006919Y011616D01*
X006959Y011518D02*
X006752Y011518D01*
X006687Y011419D02*
X007025Y011419D01*
X007146Y011321D02*
X006566Y011321D01*
X006356Y011710D02*
X005018Y010372D01*
X005996Y011124D02*
X007196Y011124D01*
X007196Y011222D02*
X006094Y011222D01*
X007806Y008661D02*
X007906Y008661D01*
X007906Y008563D02*
X007806Y008563D01*
X007806Y008464D02*
X007906Y008464D01*
X007906Y008366D02*
X007806Y008366D01*
X007806Y008267D02*
X007906Y008267D01*
X007906Y008169D02*
X007806Y008169D01*
X007806Y008070D02*
X007906Y008070D01*
X007906Y007972D02*
X007806Y007972D01*
X007806Y007873D02*
X007906Y007873D01*
X007906Y007775D02*
X007806Y007775D01*
X007806Y007676D02*
X007906Y007676D01*
X007906Y007578D02*
X007806Y007578D01*
X007806Y007479D02*
X007906Y007479D01*
X007906Y007381D02*
X007806Y007381D01*
X007806Y007282D02*
X007906Y007282D01*
X007906Y007184D02*
X007806Y007184D01*
X007806Y007085D02*
X007906Y007085D01*
X011502Y009267D02*
X011520Y009285D01*
X012469Y009285D01*
X013658Y008050D02*
X012594Y006986D01*
X013658Y008050D02*
X013658Y011335D01*
X013356Y011637D01*
X013328Y011912D02*
X013383Y011912D01*
X013383Y012010D02*
X013328Y012010D01*
X013427Y011165D02*
X013356Y011137D01*
X014001Y013094D02*
X001703Y013094D01*
D19*
X005376Y008384D03*
X007356Y010236D03*
X007856Y009883D03*
X010376Y010943D03*
X011502Y009267D03*
X010796Y008839D03*
X010870Y008430D03*
X011431Y008031D03*
X011153Y007419D03*
X011159Y007089D03*
X010918Y005579D03*
X010362Y004923D03*
X005960Y004388D03*
X005405Y005215D03*
X012499Y012137D03*
M02*
