G75*
G70*
%OFA0B0*%
%FSLAX24Y24*%
%IPPOS*%
%LPD*%
%AMOC8*
5,1,8,0,0,1.08239X$1,22.5*
%
%ADD10C,0.0000*%
%ADD11C,0.0660*%
%ADD12C,0.0515*%
%ADD13C,0.0310*%
%ADD14C,0.0001*%
%ADD15C,0.0768*%
%ADD16R,0.0760X0.0760*%
%ADD17C,0.0760*%
%ADD18C,0.0060*%
%ADD19C,0.0100*%
%ADD20C,0.0238*%
D10*
X000129Y001553D02*
X012727Y001553D01*
X012727Y014151D01*
X000129Y014151D01*
X000129Y001553D01*
X010971Y002661D02*
X010983Y002689D01*
X010991Y002716D01*
X011003Y002744D01*
X011011Y002771D01*
X011023Y002803D01*
X011034Y002830D01*
X011042Y002858D01*
X011294Y002858D01*
X011326Y002858D01*
X011334Y002830D01*
X011345Y002803D01*
X011353Y002771D01*
X011365Y002744D01*
X011377Y002716D01*
X011385Y002689D01*
X011397Y002661D01*
X011385Y002637D01*
X011373Y002610D01*
X011361Y002586D01*
X011003Y002586D01*
X010995Y002610D01*
X010983Y002637D01*
X010971Y002661D01*
X002098Y012706D02*
X002100Y012732D01*
X002106Y012758D01*
X002115Y012782D01*
X002128Y012805D01*
X002145Y012825D01*
X002164Y012843D01*
X002186Y012858D01*
X002209Y012869D01*
X002234Y012877D01*
X002260Y012881D01*
X002286Y012881D01*
X002312Y012877D01*
X002337Y012869D01*
X002361Y012858D01*
X002382Y012843D01*
X002401Y012825D01*
X002418Y012805D01*
X002431Y012782D01*
X002440Y012758D01*
X002446Y012732D01*
X002448Y012706D01*
X002446Y012680D01*
X002440Y012654D01*
X002431Y012630D01*
X002418Y012607D01*
X002401Y012587D01*
X002382Y012569D01*
X002360Y012554D01*
X002337Y012543D01*
X002312Y012535D01*
X002286Y012531D01*
X002260Y012531D01*
X002234Y012535D01*
X002209Y012543D01*
X002185Y012554D01*
X002164Y012569D01*
X002145Y012587D01*
X002128Y012607D01*
X002115Y012630D01*
X002106Y012654D01*
X002100Y012680D01*
X002098Y012706D01*
X002098Y013506D02*
X002100Y013532D01*
X002106Y013558D01*
X002115Y013582D01*
X002128Y013605D01*
X002145Y013625D01*
X002164Y013643D01*
X002186Y013658D01*
X002209Y013669D01*
X002234Y013677D01*
X002260Y013681D01*
X002286Y013681D01*
X002312Y013677D01*
X002337Y013669D01*
X002361Y013658D01*
X002382Y013643D01*
X002401Y013625D01*
X002418Y013605D01*
X002431Y013582D01*
X002440Y013558D01*
X002446Y013532D01*
X002448Y013506D01*
X002446Y013480D01*
X002440Y013454D01*
X002431Y013430D01*
X002418Y013407D01*
X002401Y013387D01*
X002382Y013369D01*
X002360Y013354D01*
X002337Y013343D01*
X002312Y013335D01*
X002286Y013331D01*
X002260Y013331D01*
X002234Y013335D01*
X002209Y013343D01*
X002185Y013354D01*
X002164Y013369D01*
X002145Y013387D01*
X002128Y013407D01*
X002115Y013430D01*
X002106Y013454D01*
X002100Y013480D01*
X002098Y013506D01*
X004098Y013106D02*
X004100Y013132D01*
X004106Y013158D01*
X004115Y013182D01*
X004128Y013205D01*
X004145Y013225D01*
X004164Y013243D01*
X004186Y013258D01*
X004209Y013269D01*
X004234Y013277D01*
X004260Y013281D01*
X004286Y013281D01*
X004312Y013277D01*
X004337Y013269D01*
X004361Y013258D01*
X004382Y013243D01*
X004401Y013225D01*
X004418Y013205D01*
X004431Y013182D01*
X004440Y013158D01*
X004446Y013132D01*
X004448Y013106D01*
X004446Y013080D01*
X004440Y013054D01*
X004431Y013030D01*
X004418Y013007D01*
X004401Y012987D01*
X004382Y012969D01*
X004360Y012954D01*
X004337Y012943D01*
X004312Y012935D01*
X004286Y012931D01*
X004260Y012931D01*
X004234Y012935D01*
X004209Y012943D01*
X004185Y012954D01*
X004164Y012969D01*
X004145Y012987D01*
X004128Y013007D01*
X004115Y013030D01*
X004106Y013054D01*
X004100Y013080D01*
X004098Y013106D01*
D11*
X001700Y011356D03*
X001700Y010356D03*
X001700Y009356D03*
X001700Y008356D03*
X001700Y007356D03*
X001700Y006356D03*
X001700Y005356D03*
X001700Y004356D03*
X011149Y004356D03*
X011149Y005356D03*
X011149Y006356D03*
X011149Y007356D03*
X011149Y008356D03*
X011149Y009356D03*
X011149Y010356D03*
X011149Y011356D03*
D12*
X006424Y012710D03*
X005924Y002041D03*
X006924Y002041D03*
D13*
X003773Y012856D03*
X003773Y013356D03*
X003273Y013356D03*
X003273Y012856D03*
X002773Y012856D03*
X002773Y013356D03*
D14*
X011042Y002858D02*
X011326Y002858D01*
X011326Y002857D02*
X011042Y002857D01*
X011042Y002856D02*
X011326Y002856D01*
X011327Y002855D02*
X011041Y002855D01*
X011041Y002854D02*
X011327Y002854D01*
X011327Y002853D02*
X011041Y002853D01*
X011041Y002852D02*
X011328Y002852D01*
X011328Y002851D02*
X011040Y002851D01*
X011040Y002850D02*
X011328Y002850D01*
X011328Y002849D02*
X011040Y002849D01*
X011039Y002848D02*
X011329Y002848D01*
X011329Y002847D02*
X011039Y002847D01*
X011039Y002846D02*
X011329Y002846D01*
X011330Y002845D02*
X011039Y002845D01*
X011038Y002844D02*
X011330Y002844D01*
X011330Y002843D02*
X011038Y002843D01*
X011038Y002842D02*
X011330Y002842D01*
X011331Y002841D02*
X011037Y002841D01*
X011037Y002840D02*
X011331Y002840D01*
X011331Y002839D02*
X011037Y002839D01*
X011037Y002838D02*
X011332Y002838D01*
X011332Y002837D02*
X011036Y002837D01*
X011036Y002836D02*
X011332Y002836D01*
X011332Y002835D02*
X011036Y002835D01*
X011035Y002834D02*
X011333Y002834D01*
X011333Y002833D02*
X011035Y002833D01*
X011035Y002832D02*
X011333Y002832D01*
X011334Y002831D02*
X011035Y002831D01*
X011034Y002830D02*
X011334Y002830D01*
X011334Y002829D02*
X011034Y002829D01*
X011033Y002828D02*
X011335Y002828D01*
X011335Y002827D02*
X011033Y002827D01*
X011032Y002826D02*
X011336Y002826D01*
X011336Y002825D02*
X011032Y002825D01*
X011032Y002824D02*
X011336Y002824D01*
X011337Y002823D02*
X011031Y002823D01*
X011031Y002822D02*
X011337Y002822D01*
X011338Y002821D02*
X011030Y002821D01*
X011030Y002820D02*
X011338Y002820D01*
X011339Y002819D02*
X011029Y002819D01*
X011029Y002818D02*
X011339Y002818D01*
X011339Y002817D02*
X011029Y002817D01*
X011028Y002816D02*
X011340Y002816D01*
X011340Y002815D02*
X011028Y002815D01*
X011027Y002814D02*
X011341Y002814D01*
X011341Y002813D02*
X011027Y002813D01*
X011026Y002812D02*
X011342Y002812D01*
X011342Y002811D02*
X011026Y002811D01*
X011026Y002810D02*
X011342Y002810D01*
X011343Y002809D02*
X011025Y002809D01*
X011025Y002808D02*
X011343Y002808D01*
X011344Y002807D02*
X011024Y002807D01*
X011024Y002806D02*
X011344Y002806D01*
X011345Y002805D02*
X011023Y002805D01*
X011023Y002804D02*
X011345Y002804D01*
X011345Y002803D02*
X011023Y002803D01*
X011022Y002802D02*
X011346Y002802D01*
X011346Y002801D02*
X011022Y002801D01*
X011022Y002800D02*
X011346Y002800D01*
X011346Y002799D02*
X011021Y002799D01*
X011021Y002798D02*
X011347Y002798D01*
X011347Y002797D02*
X011020Y002797D01*
X011020Y002796D02*
X011347Y002796D01*
X011347Y002795D02*
X011020Y002795D01*
X011019Y002794D02*
X011348Y002794D01*
X011348Y002793D02*
X011019Y002793D01*
X011019Y002792D02*
X011348Y002792D01*
X011348Y002791D02*
X011018Y002791D01*
X011018Y002790D02*
X011349Y002790D01*
X011349Y002789D02*
X011017Y002789D01*
X011017Y002788D02*
X011349Y002788D01*
X011349Y002787D02*
X011017Y002787D01*
X011016Y002786D02*
X011350Y002786D01*
X011350Y002785D02*
X011016Y002785D01*
X011016Y002784D02*
X011350Y002784D01*
X011350Y002783D02*
X011015Y002783D01*
X011015Y002782D02*
X011351Y002782D01*
X011351Y002781D02*
X011014Y002781D01*
X011014Y002780D02*
X011351Y002780D01*
X011351Y002779D02*
X011014Y002779D01*
X011013Y002778D02*
X011352Y002778D01*
X011352Y002777D02*
X011013Y002777D01*
X011013Y002776D02*
X011352Y002776D01*
X011352Y002775D02*
X011012Y002775D01*
X011012Y002774D02*
X011353Y002774D01*
X011353Y002773D02*
X011011Y002773D01*
X011011Y002772D02*
X011353Y002772D01*
X011354Y002771D02*
X011011Y002771D01*
X011010Y002770D02*
X011354Y002770D01*
X011354Y002769D02*
X011010Y002769D01*
X011010Y002768D02*
X011355Y002768D01*
X011355Y002767D02*
X011010Y002767D01*
X011009Y002766D02*
X011356Y002766D01*
X011356Y002765D02*
X011009Y002765D01*
X011009Y002764D02*
X011357Y002764D01*
X011357Y002763D02*
X011008Y002763D01*
X011008Y002762D02*
X011357Y002762D01*
X011358Y002761D02*
X011008Y002761D01*
X011008Y002760D02*
X011358Y002760D01*
X011359Y002759D02*
X011007Y002759D01*
X011007Y002758D02*
X011359Y002758D01*
X011360Y002757D02*
X011007Y002757D01*
X011006Y002756D02*
X011360Y002756D01*
X011360Y002755D02*
X011006Y002755D01*
X011006Y002754D02*
X011361Y002754D01*
X011361Y002753D02*
X011006Y002753D01*
X011005Y002752D02*
X011362Y002752D01*
X011362Y002751D02*
X011005Y002751D01*
X011005Y002750D02*
X011363Y002750D01*
X011363Y002749D02*
X011004Y002749D01*
X011004Y002748D02*
X011363Y002748D01*
X011364Y002747D02*
X011004Y002747D01*
X011004Y002746D02*
X011364Y002746D01*
X011365Y002745D02*
X011003Y002745D01*
X011003Y002744D02*
X011365Y002744D01*
X011366Y002743D02*
X011003Y002743D01*
X011002Y002742D02*
X011366Y002742D01*
X011366Y002741D02*
X011002Y002741D01*
X011001Y002740D02*
X011367Y002740D01*
X011367Y002739D02*
X011001Y002739D01*
X011000Y002738D02*
X011368Y002738D01*
X011368Y002737D02*
X011000Y002737D01*
X011000Y002736D02*
X011369Y002736D01*
X011369Y002735D02*
X010999Y002735D01*
X010999Y002734D02*
X011369Y002734D01*
X011370Y002733D02*
X010998Y002733D01*
X010998Y002732D02*
X011370Y002732D01*
X011371Y002731D02*
X010997Y002731D01*
X010997Y002730D02*
X011371Y002730D01*
X011372Y002729D02*
X010997Y002729D01*
X010996Y002728D02*
X011372Y002728D01*
X011372Y002727D02*
X010996Y002727D01*
X010995Y002726D02*
X011373Y002726D01*
X011373Y002725D02*
X010995Y002725D01*
X010994Y002724D02*
X011374Y002724D01*
X011374Y002723D02*
X010994Y002723D01*
X010994Y002722D02*
X011375Y002722D01*
X011375Y002721D02*
X010993Y002721D01*
X010993Y002720D02*
X011375Y002720D01*
X011376Y002719D02*
X010992Y002719D01*
X010992Y002718D02*
X011376Y002718D01*
X011377Y002717D02*
X010991Y002717D01*
X010991Y002716D02*
X011377Y002716D01*
X011377Y002715D02*
X010991Y002715D01*
X010990Y002714D02*
X011378Y002714D01*
X011378Y002713D02*
X010990Y002713D01*
X010990Y002712D02*
X011378Y002712D01*
X011378Y002711D02*
X010990Y002711D01*
X010989Y002710D02*
X011379Y002710D01*
X011379Y002709D02*
X010989Y002709D01*
X010989Y002708D02*
X011379Y002708D01*
X011380Y002707D02*
X010988Y002707D01*
X010988Y002706D02*
X011380Y002706D01*
X011380Y002705D02*
X010988Y002705D01*
X010988Y002704D02*
X011380Y002704D01*
X011381Y002703D02*
X010987Y002703D01*
X010987Y002702D02*
X011381Y002702D01*
X011381Y002701D02*
X010987Y002701D01*
X010986Y002700D02*
X011382Y002700D01*
X011382Y002699D02*
X010986Y002699D01*
X010986Y002698D02*
X011382Y002698D01*
X011382Y002697D02*
X010986Y002697D01*
X010985Y002696D02*
X011383Y002696D01*
X011383Y002695D02*
X010985Y002695D01*
X010985Y002694D02*
X011383Y002694D01*
X011384Y002693D02*
X010984Y002693D01*
X010984Y002692D02*
X011384Y002692D01*
X011384Y002691D02*
X010984Y002691D01*
X010984Y002690D02*
X011384Y002690D01*
X011385Y002689D02*
X010983Y002689D01*
X010983Y002688D02*
X011385Y002688D01*
X011386Y002687D02*
X010983Y002687D01*
X010982Y002686D02*
X011386Y002686D01*
X011386Y002685D02*
X010982Y002685D01*
X010981Y002684D02*
X011387Y002684D01*
X011387Y002683D02*
X010981Y002683D01*
X010980Y002682D02*
X011388Y002682D01*
X011388Y002681D02*
X010980Y002681D01*
X010980Y002680D02*
X011389Y002680D01*
X011389Y002679D02*
X010979Y002679D01*
X010979Y002678D02*
X011389Y002678D01*
X011390Y002677D02*
X010978Y002677D01*
X010978Y002676D02*
X011390Y002676D01*
X011391Y002675D02*
X010977Y002675D01*
X010977Y002674D02*
X011391Y002674D01*
X011392Y002673D02*
X010977Y002673D01*
X010976Y002672D02*
X011392Y002672D01*
X011392Y002671D02*
X010976Y002671D01*
X010975Y002670D02*
X011393Y002670D01*
X011393Y002669D02*
X010975Y002669D01*
X010974Y002668D02*
X011394Y002668D01*
X011394Y002667D02*
X010974Y002667D01*
X010974Y002666D02*
X011395Y002666D01*
X011395Y002665D02*
X010973Y002665D01*
X010973Y002664D02*
X011395Y002664D01*
X011396Y002663D02*
X010972Y002663D01*
X010972Y002662D02*
X011396Y002662D01*
X011397Y002661D02*
X010972Y002661D01*
X010972Y002660D02*
X011396Y002660D01*
X011396Y002659D02*
X010973Y002659D01*
X010973Y002658D02*
X011395Y002658D01*
X011395Y002657D02*
X010974Y002657D01*
X010974Y002656D02*
X011394Y002656D01*
X011394Y002655D02*
X010975Y002655D01*
X010975Y002654D02*
X011393Y002654D01*
X011393Y002653D02*
X010976Y002653D01*
X010976Y002652D02*
X011392Y002652D01*
X011392Y002651D02*
X010977Y002651D01*
X010977Y002650D02*
X011391Y002650D01*
X011391Y002649D02*
X010978Y002649D01*
X010978Y002648D02*
X011390Y002648D01*
X011390Y002647D02*
X010979Y002647D01*
X010979Y002646D02*
X011389Y002646D01*
X011389Y002645D02*
X010980Y002645D01*
X010980Y002644D02*
X011388Y002644D01*
X011388Y002643D02*
X010981Y002643D01*
X010981Y002642D02*
X011387Y002642D01*
X011387Y002641D02*
X010982Y002641D01*
X010982Y002640D02*
X011386Y002640D01*
X011386Y002639D02*
X010983Y002639D01*
X010983Y002638D02*
X011385Y002638D01*
X011385Y002637D02*
X010983Y002637D01*
X010984Y002636D02*
X011384Y002636D01*
X011384Y002635D02*
X010984Y002635D01*
X010985Y002634D02*
X011383Y002634D01*
X011383Y002633D02*
X010985Y002633D01*
X010986Y002632D02*
X011382Y002632D01*
X011382Y002631D02*
X010986Y002631D01*
X010986Y002630D02*
X011382Y002630D01*
X011381Y002629D02*
X010987Y002629D01*
X010987Y002628D02*
X011381Y002628D01*
X011380Y002627D02*
X010988Y002627D01*
X010988Y002626D02*
X011380Y002626D01*
X011379Y002625D02*
X010989Y002625D01*
X010989Y002624D02*
X011379Y002624D01*
X011379Y002623D02*
X010989Y002623D01*
X010990Y002622D02*
X011378Y002622D01*
X011378Y002621D02*
X010990Y002621D01*
X010991Y002620D02*
X011377Y002620D01*
X011377Y002619D02*
X010991Y002619D01*
X010992Y002618D02*
X011376Y002618D01*
X011376Y002617D02*
X010992Y002617D01*
X010992Y002616D02*
X011376Y002616D01*
X011375Y002615D02*
X010993Y002615D01*
X010993Y002614D02*
X011375Y002614D01*
X011374Y002613D02*
X010994Y002613D01*
X010994Y002612D02*
X011374Y002612D01*
X011373Y002611D02*
X010995Y002611D01*
X010995Y002610D02*
X011373Y002610D01*
X011373Y002609D02*
X010995Y002609D01*
X010996Y002608D02*
X011372Y002608D01*
X011372Y002607D02*
X010996Y002607D01*
X010996Y002606D02*
X011371Y002606D01*
X011371Y002605D02*
X010997Y002605D01*
X010997Y002604D02*
X011370Y002604D01*
X011370Y002603D02*
X010997Y002603D01*
X010998Y002602D02*
X011369Y002602D01*
X011369Y002601D02*
X010998Y002601D01*
X010998Y002600D02*
X011368Y002600D01*
X011368Y002599D02*
X010999Y002599D01*
X010999Y002598D02*
X011367Y002598D01*
X011367Y002597D02*
X010999Y002597D01*
X011000Y002596D02*
X011366Y002596D01*
X011366Y002595D02*
X011000Y002595D01*
X011000Y002594D02*
X011365Y002594D01*
X011365Y002593D02*
X011001Y002593D01*
X011001Y002592D02*
X011364Y002592D01*
X011364Y002591D02*
X011001Y002591D01*
X011002Y002590D02*
X011363Y002590D01*
X011363Y002589D02*
X011002Y002589D01*
X011002Y002588D02*
X011362Y002588D01*
X011362Y002587D02*
X011003Y002587D01*
D15*
X010954Y013356D03*
X008395Y013356D03*
D16*
X005424Y013606D03*
D17*
X006424Y013606D03*
X007424Y013606D03*
D18*
X006954Y013598D02*
X006454Y013598D01*
X006454Y013576D02*
X006454Y013636D01*
X006394Y013636D01*
X006054Y013636D01*
X006054Y013576D01*
X006394Y013576D01*
X006394Y013636D01*
X006394Y014021D01*
X006454Y014021D01*
X006454Y013636D01*
X006934Y013636D01*
X006934Y013646D01*
X006922Y013725D01*
X006897Y013802D01*
X006860Y013873D01*
X006813Y013938D01*
X006756Y013995D01*
X006720Y014021D01*
X007199Y014021D01*
X007158Y014004D01*
X007026Y013872D01*
X006954Y013699D01*
X006954Y013512D01*
X007026Y013340D01*
X007158Y013207D01*
X007284Y013155D01*
X007284Y012144D01*
X007278Y012138D01*
X006200Y012138D01*
X006202Y012140D01*
X006202Y012313D01*
X006080Y012436D01*
X005906Y012436D01*
X005846Y012376D01*
X005547Y012376D01*
X004940Y012983D01*
X004940Y013573D01*
X004858Y013655D01*
X004492Y014021D01*
X004954Y014021D01*
X004954Y013189D01*
X004940Y013189D01*
X004954Y013189D02*
X005007Y013136D01*
X005841Y013136D01*
X005894Y013189D01*
X005949Y013189D01*
X005894Y013189D02*
X005894Y013244D01*
X006080Y013058D01*
X006152Y012986D01*
X006123Y012957D01*
X006081Y012894D01*
X006052Y012823D01*
X006037Y012748D01*
X006037Y012740D01*
X006394Y012740D01*
X006394Y012680D01*
X006454Y012680D01*
X006454Y012323D01*
X006462Y012323D01*
X006537Y012338D01*
X006608Y012367D01*
X006671Y012409D01*
X006725Y012463D01*
X006768Y012527D01*
X006797Y012597D01*
X006812Y012672D01*
X006812Y012680D01*
X006454Y012680D01*
X006454Y012740D01*
X006812Y012740D01*
X006812Y012748D01*
X006804Y012785D01*
X006900Y012785D01*
X007023Y012908D01*
X007023Y013081D01*
X006900Y013203D01*
X006802Y013203D01*
X006773Y013233D01*
X006813Y013274D01*
X006860Y013339D01*
X006897Y013410D01*
X006922Y013486D01*
X006934Y013566D01*
X006934Y013576D01*
X006454Y013576D01*
X006454Y013256D01*
X006394Y013256D01*
X006394Y013576D01*
X006454Y013576D01*
X006454Y013540D02*
X006394Y013540D01*
X006394Y013598D02*
X006054Y013598D01*
X006394Y013657D02*
X006454Y013657D01*
X006454Y013715D02*
X006394Y013715D01*
X006394Y013774D02*
X006454Y013774D01*
X006454Y013832D02*
X006394Y013832D01*
X006394Y013891D02*
X006454Y013891D01*
X006454Y013949D02*
X006394Y013949D01*
X006394Y014008D02*
X006454Y014008D01*
X006738Y014008D02*
X007167Y014008D01*
X007103Y013949D02*
X006802Y013949D01*
X006848Y013891D02*
X007045Y013891D01*
X007009Y013832D02*
X006881Y013832D01*
X006906Y013774D02*
X006985Y013774D01*
X006961Y013715D02*
X006923Y013715D01*
X006932Y013657D02*
X006954Y013657D01*
X006954Y013540D02*
X006930Y013540D01*
X006920Y013481D02*
X006967Y013481D01*
X006991Y013423D02*
X006901Y013423D01*
X006874Y013364D02*
X007015Y013364D01*
X007059Y013306D02*
X006837Y013306D01*
X006787Y013247D02*
X007118Y013247D01*
X007203Y013189D02*
X006915Y013189D01*
X006973Y013130D02*
X007284Y013130D01*
X007284Y013072D02*
X007023Y013072D01*
X007023Y013013D02*
X007284Y013013D01*
X007284Y012955D02*
X007023Y012955D01*
X007011Y012896D02*
X007284Y012896D01*
X007284Y012838D02*
X006953Y012838D01*
X006806Y012779D02*
X007284Y012779D01*
X007284Y012721D02*
X006454Y012721D01*
X006454Y012662D02*
X006394Y012662D01*
X006394Y012680D02*
X006394Y012323D01*
X006386Y012323D01*
X006311Y012338D01*
X006241Y012367D01*
X006177Y012409D01*
X006123Y012463D01*
X006081Y012527D01*
X006052Y012597D01*
X006037Y012672D01*
X006037Y012680D01*
X006394Y012680D01*
X006394Y012721D02*
X005202Y012721D01*
X005144Y012779D02*
X006043Y012779D01*
X006058Y012838D02*
X005085Y012838D01*
X005027Y012896D02*
X006083Y012896D01*
X006122Y012955D02*
X004968Y012955D01*
X004940Y013013D02*
X006125Y013013D01*
X006066Y013072D02*
X004940Y013072D01*
X004940Y013130D02*
X006008Y013130D01*
X006394Y013306D02*
X006454Y013306D01*
X006454Y013364D02*
X006394Y013364D01*
X006394Y013423D02*
X006454Y013423D01*
X006454Y013481D02*
X006394Y013481D01*
X006394Y012604D02*
X006454Y012604D01*
X006454Y012545D02*
X006394Y012545D01*
X006394Y012487D02*
X006454Y012487D01*
X006454Y012428D02*
X006394Y012428D01*
X006394Y012370D02*
X006454Y012370D01*
X006612Y012370D02*
X007284Y012370D01*
X007284Y012428D02*
X006690Y012428D01*
X006741Y012487D02*
X007284Y012487D01*
X007284Y012545D02*
X006775Y012545D01*
X006798Y012604D02*
X007284Y012604D01*
X007284Y012662D02*
X006810Y012662D01*
X007284Y012311D02*
X006202Y012311D01*
X006202Y012253D02*
X007284Y012253D01*
X007284Y012194D02*
X006202Y012194D01*
X006236Y012370D02*
X006146Y012370D01*
X006158Y012428D02*
X006087Y012428D01*
X006107Y012487D02*
X005436Y012487D01*
X005378Y012545D02*
X006073Y012545D01*
X006050Y012604D02*
X005319Y012604D01*
X005261Y012662D02*
X006039Y012662D01*
X005899Y012428D02*
X005495Y012428D01*
X004954Y013247D02*
X004940Y013247D01*
X004940Y013306D02*
X004954Y013306D01*
X004954Y013364D02*
X004940Y013364D01*
X004940Y013423D02*
X004954Y013423D01*
X004954Y013481D02*
X004940Y013481D01*
X004940Y013540D02*
X004954Y013540D01*
X004954Y013598D02*
X004915Y013598D01*
X004954Y013657D02*
X004857Y013657D01*
X004798Y013715D02*
X004954Y013715D01*
X004954Y013774D02*
X004740Y013774D01*
X004681Y013832D02*
X004954Y013832D01*
X004954Y013891D02*
X004623Y013891D01*
X004564Y013949D02*
X004954Y013949D01*
X004954Y014008D02*
X004506Y014008D01*
X003140Y013788D02*
X003135Y013784D01*
X003135Y013610D01*
X003168Y013578D01*
X003134Y013564D01*
X003065Y013495D01*
X003044Y013445D01*
X003025Y013491D01*
X002994Y013538D01*
X002954Y013577D01*
X002908Y013608D01*
X002856Y013630D01*
X002803Y013641D01*
X002803Y013386D01*
X003028Y013386D01*
X003028Y013326D01*
X002803Y013326D01*
X002803Y013386D01*
X002743Y013386D01*
X002743Y013641D01*
X002690Y013630D01*
X002638Y013608D01*
X002591Y013577D01*
X002578Y013564D01*
X002578Y013567D01*
X002531Y013679D01*
X002445Y013764D01*
X002388Y013788D01*
X003140Y013788D01*
X003135Y013774D02*
X002423Y013774D01*
X002494Y013715D02*
X003135Y013715D01*
X003135Y013657D02*
X002540Y013657D01*
X002564Y013598D02*
X002623Y013598D01*
X002743Y013598D02*
X002803Y013598D01*
X002803Y013540D02*
X002743Y013540D01*
X002743Y013481D02*
X002803Y013481D01*
X002803Y013423D02*
X002743Y013423D01*
X002743Y013386D02*
X002553Y013386D01*
X002531Y013333D01*
X002524Y013326D01*
X002743Y013326D01*
X002743Y013101D01*
X002803Y013101D01*
X002803Y013326D01*
X002743Y013326D01*
X002743Y013386D01*
X002743Y013364D02*
X002544Y013364D01*
X002743Y013306D02*
X002803Y013306D01*
X002803Y013364D02*
X003028Y013364D01*
X003029Y013481D02*
X003059Y013481D01*
X003110Y013540D02*
X002992Y013540D01*
X002923Y013598D02*
X003147Y013598D01*
X002803Y013247D02*
X002743Y013247D01*
X002743Y013189D02*
X002803Y013189D01*
X002803Y013130D02*
X002743Y013130D01*
X001868Y013832D02*
X000259Y013832D01*
X000259Y013774D02*
X001810Y013774D01*
X001751Y013715D02*
X000259Y013715D01*
X000259Y013657D02*
X001693Y013657D01*
X001634Y013598D02*
X000259Y013598D01*
X000259Y013540D02*
X001576Y013540D01*
X001517Y013481D02*
X000259Y013481D01*
X000259Y013423D02*
X001459Y013423D01*
X001400Y013364D02*
X000259Y013364D01*
X000259Y013306D02*
X001342Y013306D01*
X001283Y013247D02*
X000259Y013247D01*
X000259Y013189D02*
X001225Y013189D01*
X001197Y013161D02*
X001194Y013161D01*
X001156Y013121D01*
X001117Y013081D01*
X001117Y013079D01*
X001115Y013077D01*
X001117Y013021D01*
X001117Y012965D01*
X001119Y012963D01*
X001120Y012933D01*
X001120Y009738D01*
X001320Y009537D01*
X001280Y009439D01*
X001280Y009272D01*
X001344Y009118D01*
X001462Y009000D01*
X001616Y008936D01*
X001783Y008936D01*
X001938Y009000D01*
X002056Y009118D01*
X002120Y009272D01*
X002120Y009439D01*
X002056Y009594D01*
X001938Y009712D01*
X001783Y009776D01*
X001616Y009776D01*
X001518Y009735D01*
X001400Y009854D01*
X001400Y010062D01*
X001462Y010000D01*
X001616Y009936D01*
X001783Y009936D01*
X001881Y009976D01*
X003431Y008427D01*
X003369Y008427D01*
X003312Y008485D01*
X003230Y008567D01*
X002067Y008567D01*
X002056Y008594D01*
X001938Y008712D01*
X001783Y008776D01*
X001616Y008776D01*
X001462Y008712D01*
X001344Y008594D01*
X001280Y008439D01*
X001280Y008272D01*
X001344Y008118D01*
X001462Y008000D01*
X001616Y007936D01*
X001783Y007936D01*
X001938Y008000D01*
X002056Y008118D01*
X002120Y008272D01*
X002120Y008287D01*
X002433Y008287D01*
X001881Y007735D01*
X001783Y007776D01*
X001616Y007776D01*
X001462Y007712D01*
X001344Y007594D01*
X001280Y007439D01*
X001280Y007272D01*
X001344Y007118D01*
X001462Y007000D01*
X001505Y006982D01*
X001200Y006677D01*
X001118Y006595D01*
X001118Y005739D01*
X001320Y005537D01*
X001280Y005439D01*
X001280Y005272D01*
X001344Y005118D01*
X001462Y005000D01*
X001616Y004936D01*
X001783Y004936D01*
X001938Y005000D01*
X002056Y005118D01*
X002120Y005272D01*
X002120Y005439D01*
X002056Y005594D01*
X001938Y005712D01*
X001783Y005776D01*
X001616Y005776D01*
X001518Y005735D01*
X001398Y005855D01*
X001398Y006063D01*
X001462Y006000D01*
X001616Y005936D01*
X001783Y005936D01*
X001881Y005976D01*
X002603Y005254D01*
X007609Y005254D01*
X007678Y005185D01*
X007851Y005185D01*
X007973Y005308D01*
X007973Y005481D01*
X007851Y005604D01*
X007678Y005604D01*
X007609Y005534D01*
X002719Y005534D01*
X002079Y006174D01*
X002120Y006272D01*
X002120Y006439D01*
X002056Y006594D01*
X001938Y006712D01*
X001784Y006776D01*
X001945Y006776D01*
X002027Y006858D01*
X002611Y007442D01*
X002611Y007843D01*
X002730Y007962D01*
X002906Y007962D01*
X003056Y007812D01*
X004613Y007812D01*
X004695Y007894D01*
X006829Y010028D01*
X006829Y011765D01*
X006747Y011847D01*
X006737Y011858D01*
X007394Y011858D01*
X007482Y011946D01*
X007671Y011946D01*
X007740Y011877D01*
X007914Y011877D01*
X008036Y012000D01*
X008036Y012173D01*
X007914Y012295D01*
X007740Y012295D01*
X007671Y012226D01*
X007564Y012226D01*
X007564Y013155D01*
X007690Y013207D01*
X007823Y013340D01*
X007894Y013512D01*
X007894Y013699D01*
X007823Y013872D01*
X007690Y014004D01*
X007650Y014021D01*
X012597Y014021D01*
X012597Y001683D01*
X000259Y001683D01*
X000259Y014021D01*
X002057Y014021D01*
X001197Y013161D01*
X001166Y013130D02*
X000259Y013130D01*
X000259Y013072D02*
X001115Y013072D01*
X001117Y013013D02*
X000259Y013013D01*
X000259Y012955D02*
X001119Y012955D01*
X001120Y012896D02*
X000259Y012896D01*
X000259Y012838D02*
X001120Y012838D01*
X001120Y012779D02*
X000259Y012779D01*
X000259Y012721D02*
X001120Y012721D01*
X001120Y012662D02*
X000259Y012662D01*
X000259Y012604D02*
X001120Y012604D01*
X001120Y012545D02*
X000259Y012545D01*
X000259Y012487D02*
X001120Y012487D01*
X001120Y012428D02*
X000259Y012428D01*
X000259Y012370D02*
X001120Y012370D01*
X001120Y012311D02*
X000259Y012311D01*
X000259Y012253D02*
X001120Y012253D01*
X001120Y012194D02*
X000259Y012194D01*
X000259Y012136D02*
X001120Y012136D01*
X001120Y012077D02*
X000259Y012077D01*
X000259Y012019D02*
X001120Y012019D01*
X001120Y011960D02*
X000259Y011960D01*
X000259Y011902D02*
X001120Y011902D01*
X001120Y011843D02*
X000259Y011843D01*
X000259Y011785D02*
X001120Y011785D01*
X001120Y011726D02*
X000259Y011726D01*
X000259Y011668D02*
X001120Y011668D01*
X001120Y011609D02*
X000259Y011609D01*
X000259Y011551D02*
X001120Y011551D01*
X001120Y011492D02*
X000259Y011492D01*
X000259Y011434D02*
X001120Y011434D01*
X001120Y011375D02*
X000259Y011375D01*
X000259Y011317D02*
X001120Y011317D01*
X001120Y011258D02*
X000259Y011258D01*
X000259Y011200D02*
X001120Y011200D01*
X001120Y011141D02*
X000259Y011141D01*
X000259Y011083D02*
X001120Y011083D01*
X001120Y011024D02*
X000259Y011024D01*
X000259Y010966D02*
X001120Y010966D01*
X001120Y010907D02*
X000259Y010907D01*
X000259Y010849D02*
X001120Y010849D01*
X001120Y010790D02*
X000259Y010790D01*
X000259Y010732D02*
X001120Y010732D01*
X001120Y010673D02*
X000259Y010673D01*
X000259Y010615D02*
X001120Y010615D01*
X001120Y010556D02*
X000259Y010556D01*
X000259Y010498D02*
X001120Y010498D01*
X001120Y010439D02*
X000259Y010439D01*
X000259Y010381D02*
X001120Y010381D01*
X001120Y010322D02*
X000259Y010322D01*
X000259Y010264D02*
X001120Y010264D01*
X001120Y010205D02*
X000259Y010205D01*
X000259Y010147D02*
X001120Y010147D01*
X001120Y010088D02*
X000259Y010088D01*
X000259Y010030D02*
X001120Y010030D01*
X001120Y009971D02*
X000259Y009971D01*
X000259Y009913D02*
X001120Y009913D01*
X001120Y009854D02*
X000259Y009854D01*
X000259Y009796D02*
X001120Y009796D01*
X001120Y009737D02*
X000259Y009737D01*
X000259Y009679D02*
X001179Y009679D01*
X001237Y009620D02*
X000259Y009620D01*
X000259Y009562D02*
X001296Y009562D01*
X001306Y009503D02*
X000259Y009503D01*
X000259Y009445D02*
X001282Y009445D01*
X001280Y009386D02*
X000259Y009386D01*
X000259Y009328D02*
X001280Y009328D01*
X001281Y009269D02*
X000259Y009269D01*
X000259Y009211D02*
X001305Y009211D01*
X001329Y009152D02*
X000259Y009152D01*
X000259Y009094D02*
X001368Y009094D01*
X001426Y009035D02*
X000259Y009035D01*
X000259Y008977D02*
X001517Y008977D01*
X001537Y008743D02*
X000259Y008743D01*
X000259Y008801D02*
X003056Y008801D01*
X003115Y008743D02*
X001863Y008743D01*
X001965Y008684D02*
X003173Y008684D01*
X003232Y008626D02*
X002024Y008626D01*
X002067Y008567D02*
X003290Y008567D01*
X003287Y008509D02*
X003349Y008509D01*
X003346Y008450D02*
X003407Y008450D01*
X002998Y008860D02*
X000259Y008860D01*
X000259Y008918D02*
X002939Y008918D01*
X002881Y008977D02*
X001882Y008977D01*
X001973Y009035D02*
X002822Y009035D01*
X002764Y009094D02*
X002032Y009094D01*
X002070Y009152D02*
X002705Y009152D01*
X002647Y009211D02*
X002094Y009211D01*
X002119Y009269D02*
X002588Y009269D01*
X002530Y009328D02*
X002120Y009328D01*
X002120Y009386D02*
X002471Y009386D01*
X002413Y009445D02*
X002118Y009445D01*
X002093Y009503D02*
X002354Y009503D01*
X002296Y009562D02*
X002069Y009562D01*
X002029Y009620D02*
X002237Y009620D01*
X002179Y009679D02*
X001971Y009679D01*
X001876Y009737D02*
X002120Y009737D01*
X002062Y009796D02*
X001458Y009796D01*
X001400Y009854D02*
X002003Y009854D01*
X001945Y009913D02*
X001400Y009913D01*
X001400Y009971D02*
X001530Y009971D01*
X001432Y010030D02*
X001400Y010030D01*
X001516Y009737D02*
X001523Y009737D01*
X001869Y009971D02*
X001886Y009971D01*
X001434Y008684D02*
X000259Y008684D01*
X000259Y008626D02*
X001376Y008626D01*
X001333Y008567D02*
X000259Y008567D01*
X000259Y008509D02*
X001309Y008509D01*
X001284Y008450D02*
X000259Y008450D01*
X000259Y008392D02*
X001280Y008392D01*
X001280Y008333D02*
X000259Y008333D01*
X000259Y008275D02*
X001280Y008275D01*
X001303Y008216D02*
X000259Y008216D01*
X000259Y008158D02*
X001327Y008158D01*
X001362Y008099D02*
X000259Y008099D01*
X000259Y008041D02*
X001421Y008041D01*
X001504Y007982D02*
X000259Y007982D01*
X000259Y007924D02*
X002070Y007924D01*
X002128Y007982D02*
X001896Y007982D01*
X001979Y008041D02*
X002187Y008041D01*
X002245Y008099D02*
X002037Y008099D01*
X002072Y008158D02*
X002304Y008158D01*
X002362Y008216D02*
X002097Y008216D01*
X002120Y008275D02*
X002421Y008275D01*
X002692Y007924D02*
X002944Y007924D01*
X003002Y007865D02*
X002634Y007865D01*
X002611Y007807D02*
X004922Y007807D01*
X004864Y007748D02*
X002611Y007748D01*
X002611Y007690D02*
X004805Y007690D01*
X004747Y007631D02*
X002611Y007631D01*
X002611Y007573D02*
X004688Y007573D01*
X004630Y007514D02*
X002611Y007514D01*
X002611Y007456D02*
X004571Y007456D01*
X004513Y007397D02*
X002567Y007397D01*
X002508Y007339D02*
X004454Y007339D01*
X004401Y007286D02*
X004303Y007286D01*
X004181Y007163D01*
X004181Y006990D01*
X004303Y006868D01*
X004477Y006868D01*
X004599Y006990D01*
X004599Y007088D01*
X008073Y010562D01*
X008588Y010562D01*
X008573Y010547D01*
X008573Y010374D01*
X008642Y010305D01*
X008642Y008664D01*
X008724Y008582D01*
X010769Y006537D01*
X010729Y006439D01*
X010729Y006272D01*
X010793Y006118D01*
X010911Y006000D01*
X011065Y005936D01*
X011232Y005936D01*
X011387Y006000D01*
X011505Y006118D01*
X011569Y006272D01*
X011569Y006439D01*
X011505Y006594D01*
X011387Y006712D01*
X011232Y006776D01*
X011065Y006776D01*
X010967Y006735D01*
X008922Y008780D01*
X008922Y010305D01*
X008991Y010374D01*
X008991Y010547D01*
X008976Y010562D01*
X010744Y010562D01*
X010769Y010537D01*
X010729Y010439D01*
X008991Y010439D01*
X008991Y010381D02*
X010729Y010381D01*
X010729Y010439D02*
X010729Y010272D01*
X010793Y010118D01*
X010911Y010000D01*
X011065Y009936D01*
X011232Y009936D01*
X011387Y010000D01*
X011505Y010118D01*
X011569Y010272D01*
X011569Y010439D01*
X012597Y010439D01*
X012597Y010381D02*
X011569Y010381D01*
X011569Y010439D02*
X011505Y010594D01*
X011387Y010712D01*
X011232Y010776D01*
X011065Y010776D01*
X010967Y010735D01*
X010860Y010842D01*
X007957Y010842D01*
X007875Y010760D01*
X004401Y007286D01*
X004298Y007280D02*
X002450Y007280D01*
X002391Y007222D02*
X004239Y007222D01*
X004181Y007163D02*
X002333Y007163D01*
X002274Y007105D02*
X004181Y007105D01*
X004181Y007046D02*
X002216Y007046D01*
X002157Y006988D02*
X004183Y006988D01*
X004242Y006929D02*
X002099Y006929D01*
X002040Y006871D02*
X004300Y006871D01*
X004480Y006871D02*
X010436Y006871D01*
X010494Y006812D02*
X001982Y006812D01*
X001954Y006695D02*
X010611Y006695D01*
X010670Y006637D02*
X002013Y006637D01*
X002062Y006578D02*
X010728Y006578D01*
X010762Y006520D02*
X002086Y006520D01*
X002111Y006461D02*
X010738Y006461D01*
X010729Y006403D02*
X002120Y006403D01*
X002120Y006344D02*
X010729Y006344D01*
X010729Y006286D02*
X002120Y006286D01*
X002101Y006227D02*
X010747Y006227D01*
X010771Y006169D02*
X002085Y006169D01*
X002143Y006110D02*
X010800Y006110D01*
X010859Y006052D02*
X002202Y006052D01*
X002260Y005993D02*
X010926Y005993D01*
X011025Y005759D02*
X002494Y005759D01*
X002553Y005701D02*
X010900Y005701D01*
X010911Y005712D02*
X010793Y005594D01*
X010729Y005439D01*
X010729Y005272D01*
X010793Y005118D01*
X010911Y005000D01*
X011065Y004936D01*
X011232Y004936D01*
X011387Y005000D01*
X011505Y005118D01*
X011569Y005272D01*
X011569Y005439D01*
X011505Y005594D01*
X011387Y005712D01*
X011232Y005776D01*
X011065Y005776D01*
X010911Y005712D01*
X010841Y005642D02*
X002611Y005642D01*
X002670Y005584D02*
X007658Y005584D01*
X007870Y005584D02*
X010788Y005584D01*
X010764Y005525D02*
X007929Y005525D01*
X007973Y005467D02*
X010740Y005467D01*
X010729Y005408D02*
X007973Y005408D01*
X007973Y005350D02*
X010729Y005350D01*
X010729Y005291D02*
X007957Y005291D01*
X007898Y005233D02*
X010745Y005233D01*
X010769Y005174D02*
X002079Y005174D01*
X002054Y005116D02*
X010795Y005116D01*
X010853Y005057D02*
X001995Y005057D01*
X001935Y004999D02*
X010913Y004999D01*
X011054Y004940D02*
X001794Y004940D01*
X001605Y004940D02*
X000259Y004940D01*
X000259Y004882D02*
X012597Y004882D01*
X012597Y004940D02*
X011243Y004940D01*
X011384Y004999D02*
X012597Y004999D01*
X012597Y005057D02*
X011444Y005057D01*
X011503Y005116D02*
X012597Y005116D01*
X012597Y005174D02*
X011528Y005174D01*
X011552Y005233D02*
X012597Y005233D01*
X012597Y005291D02*
X011569Y005291D01*
X011569Y005350D02*
X012597Y005350D01*
X012597Y005408D02*
X011569Y005408D01*
X011557Y005467D02*
X012597Y005467D01*
X012597Y005525D02*
X011533Y005525D01*
X011509Y005584D02*
X012597Y005584D01*
X012597Y005642D02*
X011456Y005642D01*
X011398Y005701D02*
X012597Y005701D01*
X012597Y005759D02*
X011272Y005759D01*
X011371Y005993D02*
X012597Y005993D01*
X012597Y005935D02*
X002319Y005935D01*
X002377Y005876D02*
X012597Y005876D01*
X012597Y005818D02*
X002436Y005818D01*
X002215Y005642D02*
X002007Y005642D01*
X002060Y005584D02*
X002274Y005584D01*
X002332Y005525D02*
X002084Y005525D01*
X002108Y005467D02*
X002391Y005467D01*
X002449Y005408D02*
X002120Y005408D01*
X002120Y005350D02*
X002508Y005350D01*
X002566Y005291D02*
X002120Y005291D01*
X002103Y005233D02*
X007630Y005233D01*
X009851Y007456D02*
X004967Y007456D01*
X004909Y007397D02*
X009909Y007397D01*
X009968Y007339D02*
X004850Y007339D01*
X004792Y007280D02*
X010026Y007280D01*
X010085Y007222D02*
X004733Y007222D01*
X004675Y007163D02*
X010143Y007163D01*
X010202Y007105D02*
X004616Y007105D01*
X004599Y007046D02*
X010260Y007046D01*
X010319Y006988D02*
X004597Y006988D01*
X004538Y006929D02*
X010377Y006929D01*
X010553Y006754D02*
X001836Y006754D01*
X001491Y006988D02*
X000259Y006988D01*
X000259Y007046D02*
X001415Y007046D01*
X001357Y007105D02*
X000259Y007105D01*
X000259Y007163D02*
X001325Y007163D01*
X001301Y007222D02*
X000259Y007222D01*
X000259Y007280D02*
X001280Y007280D01*
X001280Y007339D02*
X000259Y007339D01*
X000259Y007397D02*
X001280Y007397D01*
X001287Y007456D02*
X000259Y007456D01*
X000259Y007514D02*
X001311Y007514D01*
X001335Y007573D02*
X000259Y007573D01*
X000259Y007631D02*
X001381Y007631D01*
X001440Y007690D02*
X000259Y007690D01*
X000259Y007748D02*
X001550Y007748D01*
X001850Y007748D02*
X001894Y007748D01*
X001953Y007807D02*
X000259Y007807D01*
X000259Y007865D02*
X002011Y007865D01*
X001453Y006929D02*
X000259Y006929D01*
X000259Y006871D02*
X001395Y006871D01*
X001336Y006812D02*
X000259Y006812D01*
X000259Y006754D02*
X001278Y006754D01*
X001219Y006695D02*
X000259Y006695D01*
X000259Y006637D02*
X001161Y006637D01*
X001118Y006578D02*
X000259Y006578D01*
X000259Y006520D02*
X001118Y006520D01*
X001118Y006461D02*
X000259Y006461D01*
X000259Y006403D02*
X001118Y006403D01*
X001118Y006344D02*
X000259Y006344D01*
X000259Y006286D02*
X001118Y006286D01*
X001118Y006227D02*
X000259Y006227D01*
X000259Y006169D02*
X001118Y006169D01*
X001118Y006110D02*
X000259Y006110D01*
X000259Y006052D02*
X001118Y006052D01*
X001118Y005993D02*
X000259Y005993D01*
X000259Y005935D02*
X001118Y005935D01*
X001118Y005876D02*
X000259Y005876D01*
X000259Y005818D02*
X001118Y005818D01*
X001118Y005759D02*
X000259Y005759D01*
X000259Y005701D02*
X001157Y005701D01*
X001215Y005642D02*
X000259Y005642D01*
X000259Y005584D02*
X001274Y005584D01*
X001315Y005525D02*
X000259Y005525D01*
X000259Y005467D02*
X001291Y005467D01*
X001280Y005408D02*
X000259Y005408D01*
X000259Y005350D02*
X001280Y005350D01*
X001280Y005291D02*
X000259Y005291D01*
X000259Y005233D02*
X001296Y005233D01*
X001320Y005174D02*
X000259Y005174D01*
X000259Y005116D02*
X001346Y005116D01*
X001404Y005057D02*
X000259Y005057D01*
X000259Y004999D02*
X001464Y004999D01*
X001590Y004765D02*
X000259Y004765D01*
X000259Y004823D02*
X012597Y004823D01*
X012597Y004765D02*
X011259Y004765D01*
X011232Y004776D02*
X011065Y004776D01*
X010911Y004712D01*
X010793Y004594D01*
X010729Y004439D01*
X010729Y004272D01*
X010793Y004118D01*
X010911Y004000D01*
X011065Y003936D01*
X011232Y003936D01*
X011387Y004000D01*
X011505Y004118D01*
X011569Y004272D01*
X011569Y004439D01*
X011505Y004594D01*
X011387Y004712D01*
X011232Y004776D01*
X011392Y004706D02*
X012597Y004706D01*
X012597Y004648D02*
X011451Y004648D01*
X011507Y004589D02*
X012597Y004589D01*
X012597Y004531D02*
X011531Y004531D01*
X011555Y004472D02*
X012597Y004472D01*
X012597Y004414D02*
X011569Y004414D01*
X011569Y004355D02*
X012597Y004355D01*
X012597Y004297D02*
X011569Y004297D01*
X011555Y004238D02*
X012597Y004238D01*
X012597Y004180D02*
X011530Y004180D01*
X011506Y004121D02*
X012597Y004121D01*
X012597Y004063D02*
X011450Y004063D01*
X011391Y004004D02*
X012597Y004004D01*
X012597Y003946D02*
X011256Y003946D01*
X011041Y003946D02*
X001808Y003946D01*
X001783Y003936D02*
X001938Y004000D01*
X002056Y004118D01*
X002120Y004272D01*
X002120Y004439D01*
X002056Y004594D01*
X001938Y004712D01*
X001783Y004776D01*
X001616Y004776D01*
X001462Y004712D01*
X001344Y004594D01*
X001280Y004439D01*
X001280Y004272D01*
X001344Y004118D01*
X001462Y004000D01*
X001616Y003936D01*
X001783Y003936D01*
X001942Y004004D02*
X010906Y004004D01*
X010848Y004063D02*
X002001Y004063D01*
X002057Y004121D02*
X010791Y004121D01*
X010767Y004180D02*
X002082Y004180D01*
X002106Y004238D02*
X010743Y004238D01*
X010729Y004297D02*
X002120Y004297D01*
X002120Y004355D02*
X010729Y004355D01*
X010729Y004414D02*
X002120Y004414D01*
X002106Y004472D02*
X010742Y004472D01*
X010767Y004531D02*
X002082Y004531D01*
X002058Y004589D02*
X010791Y004589D01*
X010847Y004648D02*
X002002Y004648D01*
X001943Y004706D02*
X010905Y004706D01*
X011039Y004765D02*
X001810Y004765D01*
X001456Y004706D02*
X000259Y004706D01*
X000259Y004648D02*
X001398Y004648D01*
X001342Y004589D02*
X000259Y004589D01*
X000259Y004531D02*
X001318Y004531D01*
X001293Y004472D02*
X000259Y004472D01*
X000259Y004414D02*
X001280Y004414D01*
X001280Y004355D02*
X000259Y004355D01*
X000259Y004297D02*
X001280Y004297D01*
X001294Y004238D02*
X000259Y004238D01*
X000259Y004180D02*
X001318Y004180D01*
X001342Y004121D02*
X000259Y004121D01*
X000259Y004063D02*
X001399Y004063D01*
X001457Y004004D02*
X000259Y004004D01*
X000259Y003946D02*
X001592Y003946D01*
X000259Y003887D02*
X012597Y003887D01*
X012597Y003829D02*
X000259Y003829D01*
X000259Y003770D02*
X012597Y003770D01*
X012597Y003712D02*
X000259Y003712D01*
X000259Y003653D02*
X012597Y003653D01*
X012597Y003595D02*
X000259Y003595D01*
X000259Y003536D02*
X012597Y003536D01*
X012597Y003478D02*
X000259Y003478D01*
X000259Y003419D02*
X012597Y003419D01*
X012597Y003361D02*
X000259Y003361D01*
X000259Y003302D02*
X012597Y003302D01*
X012597Y003244D02*
X000259Y003244D01*
X000259Y003185D02*
X012597Y003185D01*
X012597Y003127D02*
X000259Y003127D01*
X000259Y003068D02*
X012597Y003068D01*
X012597Y003010D02*
X000259Y003010D01*
X000259Y002951D02*
X011025Y002951D01*
X011019Y002948D02*
X011005Y002948D01*
X010988Y002930D01*
X010966Y002918D01*
X010962Y002905D01*
X010952Y002895D01*
X010952Y002870D01*
X010951Y002869D01*
X010939Y002836D01*
X010938Y002834D01*
X010935Y002832D01*
X010929Y002813D01*
X010925Y002804D01*
X010926Y002802D01*
X010925Y002799D01*
X010917Y002778D01*
X010915Y002777D01*
X010906Y002746D01*
X010894Y002717D01*
X010895Y002715D01*
X010887Y002693D01*
X010874Y002662D01*
X010876Y002658D01*
X010874Y002654D01*
X010889Y002624D01*
X010902Y002593D01*
X010905Y002592D01*
X010911Y002578D01*
X010913Y002572D01*
X010913Y002549D01*
X010924Y002538D01*
X010929Y002522D01*
X010950Y002512D01*
X010966Y002496D01*
X010982Y002496D01*
X010996Y002489D01*
X011018Y002496D01*
X011340Y002496D01*
X011354Y002489D01*
X011376Y002496D01*
X011398Y002496D01*
X011410Y002508D01*
X011425Y002513D01*
X011435Y002533D01*
X011451Y002549D01*
X011451Y002564D01*
X011455Y002572D01*
X011465Y002592D01*
X011466Y002593D01*
X011479Y002624D01*
X011494Y002654D01*
X011492Y002658D01*
X011494Y002662D01*
X011481Y002693D01*
X011473Y002715D01*
X011474Y002717D01*
X011462Y002746D01*
X011453Y002777D01*
X011448Y002780D01*
X011440Y002797D01*
X011443Y002804D01*
X011431Y002832D01*
X011424Y002861D01*
X011417Y002864D01*
X011416Y002870D01*
X011416Y002895D01*
X011406Y002905D01*
X011402Y002918D01*
X011381Y002930D01*
X011363Y002948D01*
X011349Y002948D01*
X011337Y002955D01*
X011313Y002948D01*
X011055Y002948D01*
X011031Y002955D01*
X011019Y002948D01*
X011043Y002951D02*
X011326Y002951D01*
X011343Y002951D02*
X012597Y002951D01*
X012597Y002893D02*
X011416Y002893D01*
X011430Y002834D02*
X012597Y002834D01*
X012597Y002776D02*
X011453Y002776D01*
X011474Y002717D02*
X012597Y002717D01*
X012597Y002659D02*
X011493Y002659D01*
X011469Y002600D02*
X012597Y002600D01*
X012597Y002542D02*
X011444Y002542D01*
X010920Y002542D02*
X000259Y002542D01*
X000259Y002600D02*
X010899Y002600D01*
X010875Y002659D02*
X000259Y002659D01*
X000259Y002717D02*
X010894Y002717D01*
X010915Y002776D02*
X000259Y002776D01*
X000259Y002834D02*
X010938Y002834D01*
X010952Y002870D02*
X010952Y002870D01*
X010952Y002893D02*
X000259Y002893D01*
X000259Y002483D02*
X012597Y002483D01*
X012597Y002425D02*
X000259Y002425D01*
X000259Y002366D02*
X005802Y002366D01*
X005855Y002388D02*
X005727Y002336D01*
X005630Y002238D01*
X005577Y002110D01*
X005577Y001972D01*
X005630Y001844D01*
X005727Y001746D01*
X005855Y001693D01*
X005993Y001693D01*
X006121Y001746D01*
X006219Y001844D01*
X006272Y001972D01*
X006272Y002110D01*
X006219Y002238D01*
X006121Y002336D01*
X005993Y002388D01*
X005855Y002388D01*
X005700Y002308D02*
X000259Y002308D01*
X000259Y002249D02*
X005641Y002249D01*
X005610Y002191D02*
X000259Y002191D01*
X000259Y002132D02*
X005586Y002132D01*
X005577Y002074D02*
X000259Y002074D01*
X000259Y002015D02*
X005577Y002015D01*
X005583Y001957D02*
X000259Y001957D01*
X000259Y001898D02*
X005607Y001898D01*
X005634Y001840D02*
X000259Y001840D01*
X000259Y001781D02*
X005692Y001781D01*
X005784Y001723D02*
X000259Y001723D01*
X001494Y005759D02*
X001576Y005759D01*
X001436Y005818D02*
X002040Y005818D01*
X002098Y005759D02*
X001823Y005759D01*
X001949Y005701D02*
X002157Y005701D01*
X001981Y005876D02*
X001398Y005876D01*
X001398Y005935D02*
X001923Y005935D01*
X001477Y005993D02*
X001398Y005993D01*
X001398Y006052D02*
X001410Y006052D01*
X004667Y007865D02*
X004981Y007865D01*
X005039Y007924D02*
X004725Y007924D01*
X004784Y007982D02*
X005098Y007982D01*
X005156Y008041D02*
X004842Y008041D01*
X004901Y008099D02*
X005215Y008099D01*
X005273Y008158D02*
X004959Y008158D01*
X005018Y008216D02*
X005332Y008216D01*
X005390Y008275D02*
X005076Y008275D01*
X005135Y008333D02*
X005449Y008333D01*
X005507Y008392D02*
X005193Y008392D01*
X005252Y008450D02*
X005566Y008450D01*
X005624Y008509D02*
X005310Y008509D01*
X005369Y008567D02*
X005683Y008567D01*
X005741Y008626D02*
X005427Y008626D01*
X005486Y008684D02*
X005800Y008684D01*
X005858Y008743D02*
X005544Y008743D01*
X005603Y008801D02*
X005917Y008801D01*
X005975Y008860D02*
X005661Y008860D01*
X005720Y008918D02*
X006034Y008918D01*
X006092Y008977D02*
X005778Y008977D01*
X005837Y009035D02*
X006151Y009035D01*
X006209Y009094D02*
X005895Y009094D01*
X005954Y009152D02*
X006268Y009152D01*
X006326Y009211D02*
X006012Y009211D01*
X006071Y009269D02*
X006385Y009269D01*
X006443Y009328D02*
X006129Y009328D01*
X006188Y009386D02*
X006502Y009386D01*
X006560Y009445D02*
X006246Y009445D01*
X006305Y009503D02*
X006619Y009503D01*
X006677Y009562D02*
X006363Y009562D01*
X006422Y009620D02*
X006736Y009620D01*
X006794Y009679D02*
X006480Y009679D01*
X006539Y009737D02*
X006853Y009737D01*
X006911Y009796D02*
X006597Y009796D01*
X006656Y009854D02*
X006970Y009854D01*
X007028Y009913D02*
X006714Y009913D01*
X006773Y009971D02*
X007087Y009971D01*
X007145Y010030D02*
X006829Y010030D01*
X006829Y010088D02*
X007204Y010088D01*
X007262Y010147D02*
X006829Y010147D01*
X006829Y010205D02*
X007321Y010205D01*
X007379Y010264D02*
X006829Y010264D01*
X006829Y010322D02*
X007438Y010322D01*
X007496Y010381D02*
X006829Y010381D01*
X006829Y010439D02*
X007555Y010439D01*
X007613Y010498D02*
X006829Y010498D01*
X006829Y010556D02*
X007672Y010556D01*
X007730Y010615D02*
X006829Y010615D01*
X006829Y010673D02*
X007789Y010673D01*
X007847Y010732D02*
X006829Y010732D01*
X006829Y010790D02*
X007906Y010790D01*
X008068Y010556D02*
X008582Y010556D01*
X008573Y010498D02*
X008009Y010498D01*
X007951Y010439D02*
X008573Y010439D01*
X008573Y010381D02*
X007892Y010381D01*
X007834Y010322D02*
X008625Y010322D01*
X008642Y010264D02*
X007775Y010264D01*
X007717Y010205D02*
X008642Y010205D01*
X008642Y010147D02*
X007658Y010147D01*
X007600Y010088D02*
X008642Y010088D01*
X008642Y010030D02*
X007541Y010030D01*
X007483Y009971D02*
X008642Y009971D01*
X008642Y009913D02*
X007424Y009913D01*
X007366Y009854D02*
X008642Y009854D01*
X008642Y009796D02*
X007307Y009796D01*
X007249Y009737D02*
X008642Y009737D01*
X008642Y009679D02*
X007190Y009679D01*
X007132Y009620D02*
X008642Y009620D01*
X008642Y009562D02*
X007073Y009562D01*
X007015Y009503D02*
X008642Y009503D01*
X008642Y009445D02*
X006956Y009445D01*
X006898Y009386D02*
X008642Y009386D01*
X008642Y009328D02*
X006839Y009328D01*
X006781Y009269D02*
X008642Y009269D01*
X008642Y009211D02*
X006722Y009211D01*
X006664Y009152D02*
X008642Y009152D01*
X008642Y009094D02*
X006605Y009094D01*
X006547Y009035D02*
X008642Y009035D01*
X008642Y008977D02*
X006488Y008977D01*
X006430Y008918D02*
X008642Y008918D01*
X008642Y008860D02*
X006371Y008860D01*
X006313Y008801D02*
X008642Y008801D01*
X008642Y008743D02*
X006254Y008743D01*
X006196Y008684D02*
X008642Y008684D01*
X008681Y008626D02*
X006137Y008626D01*
X006079Y008567D02*
X008739Y008567D01*
X008798Y008509D02*
X006020Y008509D01*
X005962Y008450D02*
X008856Y008450D01*
X008915Y008392D02*
X005903Y008392D01*
X005845Y008333D02*
X008973Y008333D01*
X009032Y008275D02*
X005786Y008275D01*
X005728Y008216D02*
X009090Y008216D01*
X009149Y008158D02*
X005669Y008158D01*
X005611Y008099D02*
X009207Y008099D01*
X009266Y008041D02*
X005552Y008041D01*
X005494Y007982D02*
X009324Y007982D01*
X009383Y007924D02*
X005435Y007924D01*
X005377Y007865D02*
X009441Y007865D01*
X009500Y007807D02*
X005318Y007807D01*
X005260Y007748D02*
X009558Y007748D01*
X009617Y007690D02*
X005201Y007690D01*
X005143Y007631D02*
X009675Y007631D01*
X009734Y007573D02*
X005084Y007573D01*
X005026Y007514D02*
X009792Y007514D01*
X009954Y007748D02*
X010999Y007748D01*
X011065Y007776D02*
X010911Y007712D01*
X010793Y007594D01*
X010729Y007439D01*
X010729Y007272D01*
X010793Y007118D01*
X010911Y007000D01*
X011065Y006936D01*
X011232Y006936D01*
X011387Y007000D01*
X011505Y007118D01*
X011569Y007272D01*
X011569Y007439D01*
X011505Y007594D01*
X011387Y007712D01*
X011232Y007776D01*
X011065Y007776D01*
X011065Y007936D02*
X010911Y008000D01*
X010793Y008118D01*
X010729Y008272D01*
X010729Y008439D01*
X010793Y008594D01*
X010911Y008712D01*
X011065Y008776D01*
X011232Y008776D01*
X011387Y008712D01*
X011505Y008594D01*
X011569Y008439D01*
X011569Y008272D01*
X011505Y008118D01*
X011387Y008000D01*
X011232Y007936D01*
X011065Y007936D01*
X010953Y007982D02*
X009720Y007982D01*
X009779Y007924D02*
X012597Y007924D01*
X012597Y007982D02*
X011344Y007982D01*
X011428Y008041D02*
X012597Y008041D01*
X012597Y008099D02*
X011486Y008099D01*
X011521Y008158D02*
X012597Y008158D01*
X012597Y008216D02*
X011545Y008216D01*
X011569Y008275D02*
X012597Y008275D01*
X012597Y008333D02*
X011569Y008333D01*
X011569Y008392D02*
X012597Y008392D01*
X012597Y008450D02*
X011564Y008450D01*
X011540Y008509D02*
X012597Y008509D01*
X012597Y008567D02*
X011516Y008567D01*
X011473Y008626D02*
X012597Y008626D01*
X012597Y008684D02*
X011414Y008684D01*
X011312Y008743D02*
X012597Y008743D01*
X012597Y008801D02*
X008922Y008801D01*
X008922Y008860D02*
X012597Y008860D01*
X012597Y008918D02*
X008922Y008918D01*
X008922Y008977D02*
X010966Y008977D01*
X010911Y009000D02*
X011065Y008936D01*
X011232Y008936D01*
X011387Y009000D01*
X011505Y009118D01*
X011569Y009272D01*
X011569Y009439D01*
X011505Y009594D01*
X011387Y009712D01*
X011232Y009776D01*
X011065Y009776D01*
X010911Y009712D01*
X010793Y009594D01*
X010729Y009439D01*
X010729Y009272D01*
X010793Y009118D01*
X010911Y009000D01*
X010875Y009035D02*
X008922Y009035D01*
X008922Y009094D02*
X010817Y009094D01*
X010778Y009152D02*
X008922Y009152D01*
X008922Y009211D02*
X010754Y009211D01*
X010730Y009269D02*
X008922Y009269D01*
X008922Y009328D02*
X010729Y009328D01*
X010729Y009386D02*
X008922Y009386D01*
X008922Y009445D02*
X010731Y009445D01*
X010755Y009503D02*
X008922Y009503D01*
X008922Y009562D02*
X010779Y009562D01*
X010819Y009620D02*
X008922Y009620D01*
X008922Y009679D02*
X010878Y009679D01*
X010972Y009737D02*
X008922Y009737D01*
X008922Y009796D02*
X012597Y009796D01*
X012597Y009854D02*
X008922Y009854D01*
X008922Y009913D02*
X012597Y009913D01*
X012597Y009971D02*
X011318Y009971D01*
X011417Y010030D02*
X012597Y010030D01*
X012597Y010088D02*
X011475Y010088D01*
X011517Y010147D02*
X012597Y010147D01*
X012597Y010205D02*
X011541Y010205D01*
X011565Y010264D02*
X012597Y010264D01*
X012597Y010322D02*
X011569Y010322D01*
X011544Y010498D02*
X012597Y010498D01*
X012597Y010556D02*
X011520Y010556D01*
X011484Y010615D02*
X012597Y010615D01*
X012597Y010673D02*
X011425Y010673D01*
X011338Y010732D02*
X012597Y010732D01*
X012597Y010790D02*
X010912Y010790D01*
X010993Y010966D02*
X006829Y010966D01*
X006829Y011024D02*
X010886Y011024D01*
X010911Y011000D02*
X011065Y010936D01*
X011232Y010936D01*
X011387Y011000D01*
X011505Y011118D01*
X011569Y011272D01*
X011569Y011439D01*
X011505Y011594D01*
X011387Y011712D01*
X011232Y011776D01*
X011065Y011776D01*
X010911Y011712D01*
X010793Y011594D01*
X010729Y011439D01*
X010729Y011272D01*
X010793Y011118D01*
X010911Y011000D01*
X010828Y011083D02*
X006829Y011083D01*
X006829Y011141D02*
X010783Y011141D01*
X010759Y011200D02*
X006829Y011200D01*
X006829Y011258D02*
X010734Y011258D01*
X010729Y011317D02*
X006829Y011317D01*
X006829Y011375D02*
X010729Y011375D01*
X010729Y011434D02*
X006829Y011434D01*
X006829Y011492D02*
X010751Y011492D01*
X010775Y011551D02*
X006829Y011551D01*
X006829Y011609D02*
X010808Y011609D01*
X010867Y011668D02*
X006829Y011668D01*
X006829Y011726D02*
X010946Y011726D01*
X011352Y011726D02*
X012597Y011726D01*
X012597Y011668D02*
X011431Y011668D01*
X011489Y011609D02*
X012597Y011609D01*
X012597Y011551D02*
X011522Y011551D01*
X011547Y011492D02*
X012597Y011492D01*
X012597Y011434D02*
X011569Y011434D01*
X011569Y011375D02*
X012597Y011375D01*
X012597Y011317D02*
X011569Y011317D01*
X011563Y011258D02*
X012597Y011258D01*
X012597Y011200D02*
X011539Y011200D01*
X011514Y011141D02*
X012597Y011141D01*
X012597Y011083D02*
X011470Y011083D01*
X011411Y011024D02*
X012597Y011024D01*
X012597Y010966D02*
X011305Y010966D01*
X010750Y010556D02*
X008982Y010556D01*
X008991Y010498D02*
X010753Y010498D01*
X010729Y010322D02*
X008940Y010322D01*
X008922Y010264D02*
X010732Y010264D01*
X010756Y010205D02*
X008922Y010205D01*
X008922Y010147D02*
X010781Y010147D01*
X010822Y010088D02*
X008922Y010088D01*
X008922Y010030D02*
X010881Y010030D01*
X010979Y009971D02*
X008922Y009971D01*
X008960Y008743D02*
X010985Y008743D01*
X010883Y008684D02*
X009018Y008684D01*
X009077Y008626D02*
X010825Y008626D01*
X010782Y008567D02*
X009135Y008567D01*
X009194Y008509D02*
X010757Y008509D01*
X010733Y008450D02*
X009252Y008450D01*
X009311Y008392D02*
X010729Y008392D01*
X010729Y008333D02*
X009369Y008333D01*
X009428Y008275D02*
X010729Y008275D01*
X010752Y008216D02*
X009486Y008216D01*
X009545Y008158D02*
X010776Y008158D01*
X010811Y008099D02*
X009603Y008099D01*
X009662Y008041D02*
X010870Y008041D01*
X010889Y007690D02*
X010013Y007690D01*
X010071Y007631D02*
X010830Y007631D01*
X010784Y007573D02*
X010130Y007573D01*
X010188Y007514D02*
X010760Y007514D01*
X010735Y007456D02*
X010247Y007456D01*
X010305Y007397D02*
X010729Y007397D01*
X010729Y007339D02*
X010364Y007339D01*
X010422Y007280D02*
X010729Y007280D01*
X010750Y007222D02*
X010481Y007222D01*
X010539Y007163D02*
X010774Y007163D01*
X010806Y007105D02*
X010598Y007105D01*
X010656Y007046D02*
X010864Y007046D01*
X010939Y006988D02*
X010715Y006988D01*
X010773Y006929D02*
X012597Y006929D01*
X012597Y006871D02*
X010832Y006871D01*
X010890Y006812D02*
X012597Y006812D01*
X012597Y006754D02*
X011285Y006754D01*
X011403Y006695D02*
X012597Y006695D01*
X012597Y006637D02*
X011462Y006637D01*
X011511Y006578D02*
X012597Y006578D01*
X012597Y006520D02*
X011535Y006520D01*
X011560Y006461D02*
X012597Y006461D01*
X012597Y006403D02*
X011569Y006403D01*
X011569Y006344D02*
X012597Y006344D01*
X012597Y006286D02*
X011569Y006286D01*
X011550Y006227D02*
X012597Y006227D01*
X012597Y006169D02*
X011526Y006169D01*
X011497Y006110D02*
X012597Y006110D01*
X012597Y006052D02*
X011439Y006052D01*
X011012Y006754D02*
X010949Y006754D01*
X011358Y006988D02*
X012597Y006988D01*
X012597Y007046D02*
X011433Y007046D01*
X011492Y007105D02*
X012597Y007105D01*
X012597Y007163D02*
X011523Y007163D01*
X011548Y007222D02*
X012597Y007222D01*
X012597Y007280D02*
X011569Y007280D01*
X011569Y007339D02*
X012597Y007339D01*
X012597Y007397D02*
X011569Y007397D01*
X011562Y007456D02*
X012597Y007456D01*
X012597Y007514D02*
X011538Y007514D01*
X011513Y007573D02*
X012597Y007573D01*
X012597Y007631D02*
X011467Y007631D01*
X011409Y007690D02*
X012597Y007690D01*
X012597Y007748D02*
X011298Y007748D01*
X012597Y007807D02*
X009896Y007807D01*
X009837Y007865D02*
X012597Y007865D01*
X012597Y008977D02*
X011331Y008977D01*
X011422Y009035D02*
X012597Y009035D01*
X012597Y009094D02*
X011481Y009094D01*
X011519Y009152D02*
X012597Y009152D01*
X012597Y009211D02*
X011543Y009211D01*
X011567Y009269D02*
X012597Y009269D01*
X012597Y009328D02*
X011569Y009328D01*
X011569Y009386D02*
X012597Y009386D01*
X012597Y009445D02*
X011566Y009445D01*
X011542Y009503D02*
X012597Y009503D01*
X012597Y009562D02*
X011518Y009562D01*
X011478Y009620D02*
X012597Y009620D01*
X012597Y009679D02*
X011420Y009679D01*
X011325Y009737D02*
X012597Y009737D01*
X012597Y010849D02*
X006829Y010849D01*
X006829Y010907D02*
X012597Y010907D01*
X012597Y011785D02*
X006810Y011785D01*
X006751Y011843D02*
X012597Y011843D01*
X012597Y011902D02*
X007938Y011902D01*
X007997Y011960D02*
X009587Y011960D01*
X009588Y011959D02*
X009761Y011959D01*
X009883Y012082D01*
X009883Y012255D01*
X009761Y012378D01*
X009663Y012378D01*
X008842Y013198D01*
X008869Y013262D01*
X008869Y013450D01*
X008796Y013624D01*
X008663Y013758D01*
X008489Y013830D01*
X008300Y013830D01*
X008126Y013758D01*
X007993Y013624D01*
X007921Y013450D01*
X007921Y013262D01*
X007993Y013087D01*
X008126Y012954D01*
X008300Y012882D01*
X008489Y012882D01*
X008663Y012954D01*
X008677Y012968D01*
X009465Y012180D01*
X009465Y012082D01*
X009588Y011959D01*
X009528Y012019D02*
X008036Y012019D01*
X008036Y012077D02*
X009470Y012077D01*
X009465Y012136D02*
X008036Y012136D01*
X008015Y012194D02*
X009450Y012194D01*
X009392Y012253D02*
X007956Y012253D01*
X007698Y012253D02*
X007564Y012253D01*
X007564Y012311D02*
X009333Y012311D01*
X009275Y012370D02*
X007564Y012370D01*
X007564Y012428D02*
X009216Y012428D01*
X009158Y012487D02*
X007564Y012487D01*
X007564Y012545D02*
X009099Y012545D01*
X009041Y012604D02*
X007564Y012604D01*
X007564Y012662D02*
X008982Y012662D01*
X008924Y012721D02*
X007564Y012721D01*
X007564Y012779D02*
X008865Y012779D01*
X008807Y012838D02*
X007564Y012838D01*
X007564Y012896D02*
X008266Y012896D01*
X008125Y012955D02*
X007564Y012955D01*
X007564Y013013D02*
X008067Y013013D01*
X008008Y013072D02*
X007564Y013072D01*
X007564Y013130D02*
X007975Y013130D01*
X007951Y013189D02*
X007646Y013189D01*
X007730Y013247D02*
X007927Y013247D01*
X007921Y013306D02*
X007789Y013306D01*
X007833Y013364D02*
X007921Y013364D01*
X007921Y013423D02*
X007857Y013423D01*
X007881Y013481D02*
X007934Y013481D01*
X007958Y013540D02*
X007894Y013540D01*
X007894Y013598D02*
X007982Y013598D01*
X008026Y013657D02*
X007894Y013657D01*
X007888Y013715D02*
X008084Y013715D01*
X008166Y013774D02*
X007863Y013774D01*
X007839Y013832D02*
X010758Y013832D01*
X010756Y013832D02*
X010684Y013795D01*
X010619Y013748D01*
X010562Y013691D01*
X010514Y013625D01*
X010478Y013553D01*
X010453Y013476D01*
X010440Y013396D01*
X010440Y013386D01*
X010924Y013386D01*
X010924Y013870D01*
X010913Y013870D01*
X010833Y013857D01*
X010756Y013832D01*
X010655Y013774D02*
X008624Y013774D01*
X008705Y013715D02*
X010587Y013715D01*
X010537Y013657D02*
X008764Y013657D01*
X008807Y013598D02*
X010501Y013598D01*
X010473Y013540D02*
X008831Y013540D01*
X008856Y013481D02*
X010454Y013481D01*
X010444Y013423D02*
X008869Y013423D01*
X008869Y013364D02*
X010924Y013364D01*
X010924Y013386D02*
X010924Y013326D01*
X010984Y013326D01*
X010984Y013386D01*
X011468Y013386D01*
X011468Y013396D01*
X011455Y013476D01*
X011430Y013553D01*
X011393Y013625D01*
X011346Y013691D01*
X011288Y013748D01*
X011223Y013795D01*
X011151Y013832D01*
X011074Y013857D01*
X010994Y013870D01*
X010984Y013870D01*
X010984Y013386D01*
X010924Y013386D01*
X010924Y013423D02*
X010984Y013423D01*
X010984Y013481D02*
X010924Y013481D01*
X010924Y013540D02*
X010984Y013540D01*
X010984Y013598D02*
X010924Y013598D01*
X010924Y013657D02*
X010984Y013657D01*
X010984Y013715D02*
X010924Y013715D01*
X010924Y013774D02*
X010984Y013774D01*
X010984Y013832D02*
X010924Y013832D01*
X011150Y013832D02*
X012597Y013832D01*
X012597Y013774D02*
X011253Y013774D01*
X011321Y013715D02*
X012597Y013715D01*
X012597Y013657D02*
X011370Y013657D01*
X011407Y013598D02*
X012597Y013598D01*
X012597Y013540D02*
X011434Y013540D01*
X011453Y013481D02*
X012597Y013481D01*
X012597Y013423D02*
X011463Y013423D01*
X011468Y013326D02*
X010984Y013326D01*
X010984Y012842D01*
X010994Y012842D01*
X011074Y012855D01*
X011151Y012880D01*
X011223Y012916D01*
X011288Y012964D01*
X011346Y013021D01*
X011393Y013087D01*
X011430Y013159D01*
X011455Y013236D01*
X011468Y013315D01*
X011468Y013326D01*
X011466Y013306D02*
X012597Y013306D01*
X012597Y013364D02*
X010984Y013364D01*
X010984Y013306D02*
X010924Y013306D01*
X010924Y013326D02*
X010924Y012842D01*
X010913Y012842D01*
X010833Y012855D01*
X010756Y012880D01*
X010684Y012916D01*
X010619Y012964D01*
X010562Y013021D01*
X010514Y013087D01*
X010478Y013159D01*
X010453Y013236D01*
X010440Y013315D01*
X010440Y013326D01*
X010924Y013326D01*
X010924Y013247D02*
X010984Y013247D01*
X010984Y013189D02*
X010924Y013189D01*
X010924Y013130D02*
X010984Y013130D01*
X010984Y013072D02*
X010924Y013072D01*
X010924Y013013D02*
X010984Y013013D01*
X010984Y012955D02*
X010924Y012955D01*
X010924Y012896D02*
X010984Y012896D01*
X011184Y012896D02*
X012597Y012896D01*
X012597Y012838D02*
X009203Y012838D01*
X009261Y012779D02*
X012597Y012779D01*
X012597Y012721D02*
X009320Y012721D01*
X009378Y012662D02*
X012597Y012662D01*
X012597Y012604D02*
X009437Y012604D01*
X009495Y012545D02*
X012597Y012545D01*
X012597Y012487D02*
X009554Y012487D01*
X009612Y012428D02*
X012597Y012428D01*
X012597Y012370D02*
X009768Y012370D01*
X009827Y012311D02*
X012597Y012311D01*
X012597Y012253D02*
X009883Y012253D01*
X009883Y012194D02*
X012597Y012194D01*
X012597Y012136D02*
X009883Y012136D01*
X009879Y012077D02*
X012597Y012077D01*
X012597Y012019D02*
X009820Y012019D01*
X009762Y011960D02*
X012597Y011960D01*
X012597Y012955D02*
X011276Y012955D01*
X011338Y013013D02*
X012597Y013013D01*
X012597Y013072D02*
X011383Y013072D01*
X011416Y013130D02*
X012597Y013130D01*
X012597Y013189D02*
X011440Y013189D01*
X011457Y013247D02*
X012597Y013247D01*
X012597Y013891D02*
X007804Y013891D01*
X007745Y013949D02*
X012597Y013949D01*
X012597Y014008D02*
X007682Y014008D01*
X008869Y013306D02*
X010441Y013306D01*
X010451Y013247D02*
X008863Y013247D01*
X008852Y013189D02*
X010468Y013189D01*
X010492Y013130D02*
X008910Y013130D01*
X008969Y013072D02*
X010525Y013072D01*
X010569Y013013D02*
X009027Y013013D01*
X009086Y012955D02*
X010631Y012955D01*
X010724Y012896D02*
X009144Y012896D01*
X008748Y012896D02*
X008524Y012896D01*
X008664Y012955D02*
X008690Y012955D01*
X007716Y011902D02*
X007438Y011902D01*
X002044Y014008D02*
X000259Y014008D01*
X000259Y013949D02*
X001985Y013949D01*
X001927Y013891D02*
X000259Y013891D01*
X006046Y002366D02*
X006802Y002366D01*
X006855Y002388D02*
X006727Y002336D01*
X006630Y002238D01*
X006577Y002110D01*
X006577Y001972D01*
X006630Y001844D01*
X006727Y001746D01*
X006855Y001693D01*
X006993Y001693D01*
X007121Y001746D01*
X007219Y001844D01*
X007272Y001972D01*
X007272Y002110D01*
X007219Y002238D01*
X007121Y002336D01*
X006993Y002388D01*
X006855Y002388D01*
X006700Y002308D02*
X006149Y002308D01*
X006207Y002249D02*
X006641Y002249D01*
X006610Y002191D02*
X006238Y002191D01*
X006262Y002132D02*
X006586Y002132D01*
X006577Y002074D02*
X006272Y002074D01*
X006272Y002015D02*
X006577Y002015D01*
X006583Y001957D02*
X006266Y001957D01*
X006241Y001898D02*
X006607Y001898D01*
X006634Y001840D02*
X006215Y001840D01*
X006156Y001781D02*
X006692Y001781D01*
X006784Y001723D02*
X006064Y001723D01*
X007064Y001723D02*
X012597Y001723D01*
X012597Y001781D02*
X007156Y001781D01*
X007215Y001840D02*
X012597Y001840D01*
X012597Y001898D02*
X007241Y001898D01*
X007266Y001957D02*
X012597Y001957D01*
X012597Y002015D02*
X007272Y002015D01*
X007272Y002074D02*
X012597Y002074D01*
X012597Y002132D02*
X007262Y002132D01*
X007238Y002191D02*
X012597Y002191D01*
X012597Y002249D02*
X007207Y002249D01*
X007149Y002308D02*
X012597Y002308D01*
X012597Y002366D02*
X007046Y002366D01*
D19*
X007764Y005394D02*
X002661Y005394D01*
X001700Y006356D01*
X001258Y006537D02*
X001258Y005797D01*
X001700Y005356D01*
X001258Y006537D02*
X001637Y006916D01*
X001887Y006916D01*
X002471Y007500D01*
X002471Y007901D01*
X002672Y008102D01*
X002964Y008102D01*
X003114Y007952D01*
X004555Y007952D01*
X006689Y010086D01*
X006689Y011707D01*
X006559Y011838D01*
X005704Y011838D01*
X005620Y011754D01*
X005432Y011998D02*
X004603Y012826D01*
X004603Y013417D01*
X004505Y013515D01*
X003932Y013515D01*
X003773Y013356D01*
X003344Y013428D02*
X003344Y013697D01*
X003344Y013428D02*
X003273Y013356D01*
X003023Y013652D02*
X002773Y013402D01*
X002773Y013356D01*
X002773Y012856D02*
X004030Y011598D01*
X004030Y008875D01*
X003926Y008646D02*
X002260Y010313D01*
X002260Y010796D01*
X001700Y011356D01*
X001700Y010356D02*
X003589Y008467D01*
X004181Y008467D01*
X004306Y008592D01*
X004428Y008592D01*
X006104Y010268D01*
X006104Y011264D01*
X006439Y011599D01*
X005890Y011998D02*
X005432Y011998D01*
X005489Y012236D02*
X005984Y012236D01*
X005993Y012227D01*
X005888Y012227D01*
X005890Y011998D02*
X007336Y011998D01*
X007424Y012086D01*
X007827Y012086D01*
X007424Y012086D02*
X007424Y013606D01*
X006813Y012994D02*
X006692Y013116D01*
X006220Y013116D01*
X005914Y013422D01*
X005914Y013606D01*
X005424Y013606D01*
X004800Y013515D02*
X004800Y012925D01*
X005489Y012236D01*
X005202Y011426D02*
X005202Y010526D01*
X004899Y010746D02*
X004899Y011230D01*
X003273Y012856D01*
X003773Y012856D02*
X005202Y011426D01*
X005860Y011149D02*
X005860Y010533D01*
X006424Y010723D02*
X006424Y010047D01*
X004499Y008122D01*
X003250Y008122D01*
X003106Y008266D01*
X002610Y008266D01*
X001700Y007356D01*
X001700Y008356D02*
X001771Y008427D01*
X003172Y008427D01*
X003311Y008287D01*
X004325Y008287D01*
X004401Y008363D01*
X004134Y008646D02*
X003926Y008646D01*
X004134Y008646D02*
X004547Y009059D01*
X004548Y009059D01*
X002798Y007872D02*
X003842Y006828D01*
X008691Y006828D01*
X008782Y008722D02*
X008782Y010461D01*
X008015Y010702D02*
X010802Y010702D01*
X011149Y010356D01*
X009674Y012168D02*
X008487Y013356D01*
X008395Y013356D01*
X005860Y011149D02*
X004509Y012500D01*
X004509Y012542D01*
X004800Y013515D02*
X004387Y013928D01*
X004186Y013928D01*
X002252Y013928D01*
X002162Y013928D01*
X001257Y013023D01*
X001260Y012936D01*
X001260Y009796D01*
X001700Y009356D01*
X004390Y007077D02*
X008015Y010702D01*
X008782Y008722D02*
X011149Y006356D01*
D20*
X008691Y006828D03*
X007764Y005394D03*
X004390Y007077D03*
X004401Y008363D03*
X004030Y008875D03*
X004548Y009059D03*
X005202Y010526D03*
X004899Y010746D03*
X005860Y010533D03*
X006424Y010723D03*
X006439Y011599D03*
X005993Y012227D03*
X005620Y011754D03*
X004509Y012542D03*
X003344Y013697D03*
X003023Y013652D03*
X006813Y012994D03*
X007827Y012086D03*
X008782Y010461D03*
X009674Y012168D03*
X002798Y007872D03*
M02*
