G75*
G70*
%OFA0B0*%
%FSLAX24Y24*%
%IPPOS*%
%LPD*%
%AMOC8*
5,1,8,0,0,1.08239X$1,22.5*
%
%ADD10C,0.0700*%
%ADD11C,0.0555*%
%ADD12C,0.0350*%
%ADD13C,0.0390*%
%ADD14C,0.0000*%
%ADD15C,0.0001*%
%ADD16C,0.0808*%
%ADD17R,0.0800X0.0800*%
%ADD18C,0.0800*%
D10*
X001735Y004356D03*
X001735Y005356D03*
X001735Y006356D03*
X001735Y007356D03*
X001735Y008356D03*
X001735Y009356D03*
X001735Y010356D03*
X001735Y011356D03*
X011184Y011356D03*
X011184Y010356D03*
X011184Y009356D03*
X011184Y008356D03*
X011184Y007356D03*
X011184Y006356D03*
X011184Y005356D03*
X011184Y004356D03*
D11*
X006959Y002041D03*
X005959Y002041D03*
X006459Y012710D03*
D12*
X003808Y012856D03*
X003808Y013356D03*
X003308Y013356D03*
X003308Y012856D03*
X002808Y012856D03*
X002808Y013356D03*
D13*
X002308Y013506D03*
X002308Y012706D03*
X004308Y013106D03*
D14*
X011077Y002858D02*
X011329Y002858D01*
X011361Y002858D01*
X011369Y002830D01*
X011380Y002803D01*
X011388Y002771D01*
X011400Y002744D01*
X011412Y002716D01*
X011420Y002689D01*
X011432Y002661D01*
X011420Y002637D01*
X011408Y002610D01*
X011396Y002586D01*
X011038Y002586D01*
X011030Y002610D01*
X011018Y002637D01*
X011006Y002661D01*
X011018Y002689D01*
X011026Y002716D01*
X011038Y002744D01*
X011046Y002771D01*
X011058Y002803D01*
X011069Y002830D01*
X011077Y002858D01*
D15*
X011361Y002858D01*
X011361Y002857D02*
X011077Y002857D01*
X011077Y002856D02*
X011361Y002856D01*
X011362Y002855D02*
X011076Y002855D01*
X011076Y002854D02*
X011362Y002854D01*
X011362Y002853D02*
X011076Y002853D01*
X011075Y002852D02*
X011362Y002852D01*
X011363Y002851D02*
X011075Y002851D01*
X011075Y002850D02*
X011363Y002850D01*
X011363Y002849D02*
X011075Y002849D01*
X011074Y002848D02*
X011364Y002848D01*
X011364Y002847D02*
X011074Y002847D01*
X011074Y002846D02*
X011364Y002846D01*
X011364Y002845D02*
X011073Y002845D01*
X011073Y002844D02*
X011365Y002844D01*
X011365Y002843D02*
X011073Y002843D01*
X011073Y002842D02*
X011365Y002842D01*
X011366Y002841D02*
X011072Y002841D01*
X011072Y002840D02*
X011366Y002840D01*
X011366Y002839D02*
X011072Y002839D01*
X011071Y002838D02*
X011366Y002838D01*
X011367Y002837D02*
X011071Y002837D01*
X011071Y002836D02*
X011367Y002836D01*
X011367Y002835D02*
X011071Y002835D01*
X011070Y002834D02*
X011368Y002834D01*
X011368Y002833D02*
X011070Y002833D01*
X011070Y002832D02*
X011368Y002832D01*
X011368Y002831D02*
X011069Y002831D01*
X011069Y002830D02*
X011369Y002830D01*
X011369Y002829D02*
X011069Y002829D01*
X011068Y002828D02*
X011370Y002828D01*
X011370Y002827D02*
X011068Y002827D01*
X011067Y002826D02*
X011371Y002826D01*
X011371Y002825D02*
X011067Y002825D01*
X011067Y002824D02*
X011371Y002824D01*
X011372Y002823D02*
X011066Y002823D01*
X011066Y002822D02*
X011372Y002822D01*
X011373Y002821D02*
X011065Y002821D01*
X011065Y002820D02*
X011373Y002820D01*
X011374Y002819D02*
X011064Y002819D01*
X011064Y002818D02*
X011374Y002818D01*
X011374Y002817D02*
X011064Y002817D01*
X011063Y002816D02*
X011375Y002816D01*
X011375Y002815D02*
X011063Y002815D01*
X011062Y002814D02*
X011376Y002814D01*
X011376Y002813D02*
X011062Y002813D01*
X011061Y002812D02*
X011377Y002812D01*
X011377Y002811D02*
X011061Y002811D01*
X011061Y002810D02*
X011377Y002810D01*
X011378Y002809D02*
X011060Y002809D01*
X011060Y002808D02*
X011378Y002808D01*
X011379Y002807D02*
X011059Y002807D01*
X011059Y002806D02*
X011379Y002806D01*
X011380Y002805D02*
X011058Y002805D01*
X011058Y002804D02*
X011380Y002804D01*
X011380Y002803D02*
X011058Y002803D01*
X011057Y002802D02*
X011381Y002802D01*
X011381Y002801D02*
X011057Y002801D01*
X011056Y002800D02*
X011381Y002800D01*
X011381Y002799D02*
X011056Y002799D01*
X011056Y002798D02*
X011382Y002798D01*
X011382Y002797D02*
X011055Y002797D01*
X011055Y002796D02*
X011382Y002796D01*
X011382Y002795D02*
X011055Y002795D01*
X011054Y002794D02*
X011383Y002794D01*
X011383Y002793D02*
X011054Y002793D01*
X011053Y002792D02*
X011383Y002792D01*
X011383Y002791D02*
X011053Y002791D01*
X011053Y002790D02*
X011384Y002790D01*
X011384Y002789D02*
X011052Y002789D01*
X011052Y002788D02*
X011384Y002788D01*
X011384Y002787D02*
X011052Y002787D01*
X011051Y002786D02*
X011385Y002786D01*
X011385Y002785D02*
X011051Y002785D01*
X011050Y002784D02*
X011385Y002784D01*
X011385Y002783D02*
X011050Y002783D01*
X011050Y002782D02*
X011386Y002782D01*
X011386Y002781D02*
X011049Y002781D01*
X011049Y002780D02*
X011386Y002780D01*
X011386Y002779D02*
X011049Y002779D01*
X011048Y002778D02*
X011387Y002778D01*
X011387Y002777D02*
X011048Y002777D01*
X011047Y002776D02*
X011387Y002776D01*
X011387Y002775D02*
X011047Y002775D01*
X011047Y002774D02*
X011388Y002774D01*
X011388Y002773D02*
X011046Y002773D01*
X011046Y002772D02*
X011388Y002772D01*
X011388Y002771D02*
X011046Y002771D01*
X011045Y002770D02*
X011389Y002770D01*
X011389Y002769D02*
X011045Y002769D01*
X011045Y002768D02*
X011390Y002768D01*
X011390Y002767D02*
X011044Y002767D01*
X011044Y002766D02*
X011391Y002766D01*
X011391Y002765D02*
X011044Y002765D01*
X011044Y002764D02*
X011391Y002764D01*
X011392Y002763D02*
X011043Y002763D01*
X011043Y002762D02*
X011392Y002762D01*
X011393Y002761D02*
X011043Y002761D01*
X011042Y002760D02*
X011393Y002760D01*
X011394Y002759D02*
X011042Y002759D01*
X011042Y002758D02*
X011394Y002758D01*
X011394Y002757D02*
X011042Y002757D01*
X011041Y002756D02*
X011395Y002756D01*
X011395Y002755D02*
X011041Y002755D01*
X011041Y002754D02*
X011396Y002754D01*
X011396Y002753D02*
X011040Y002753D01*
X011040Y002752D02*
X011397Y002752D01*
X011397Y002751D02*
X011040Y002751D01*
X011040Y002750D02*
X011397Y002750D01*
X011398Y002749D02*
X011039Y002749D01*
X011039Y002748D02*
X011398Y002748D01*
X011399Y002747D02*
X011039Y002747D01*
X011038Y002746D02*
X011399Y002746D01*
X011400Y002745D02*
X011038Y002745D01*
X011038Y002744D02*
X011400Y002744D01*
X011400Y002743D02*
X011037Y002743D01*
X011037Y002742D02*
X011401Y002742D01*
X011401Y002741D02*
X011037Y002741D01*
X011036Y002740D02*
X011402Y002740D01*
X011402Y002739D02*
X011036Y002739D01*
X011035Y002738D02*
X011403Y002738D01*
X011403Y002737D02*
X011035Y002737D01*
X011034Y002736D02*
X011403Y002736D01*
X011404Y002735D02*
X011034Y002735D01*
X011034Y002734D02*
X011404Y002734D01*
X011405Y002733D02*
X011033Y002733D01*
X011033Y002732D02*
X011405Y002732D01*
X011406Y002731D02*
X011032Y002731D01*
X011032Y002730D02*
X011406Y002730D01*
X011406Y002729D02*
X011031Y002729D01*
X011031Y002728D02*
X011407Y002728D01*
X011407Y002727D02*
X011031Y002727D01*
X011030Y002726D02*
X011408Y002726D01*
X011408Y002725D02*
X011030Y002725D01*
X011029Y002724D02*
X011409Y002724D01*
X011409Y002723D02*
X011029Y002723D01*
X011029Y002722D02*
X011409Y002722D01*
X011410Y002721D02*
X011028Y002721D01*
X011028Y002720D02*
X011410Y002720D01*
X011411Y002719D02*
X011027Y002719D01*
X011027Y002718D02*
X011411Y002718D01*
X011412Y002717D02*
X011026Y002717D01*
X011026Y002716D02*
X011412Y002716D01*
X011412Y002715D02*
X011026Y002715D01*
X011025Y002714D02*
X011413Y002714D01*
X011413Y002713D02*
X011025Y002713D01*
X011025Y002712D02*
X011413Y002712D01*
X011413Y002711D02*
X011025Y002711D01*
X011024Y002710D02*
X011414Y002710D01*
X011414Y002709D02*
X011024Y002709D01*
X011024Y002708D02*
X011414Y002708D01*
X011415Y002707D02*
X011023Y002707D01*
X011023Y002706D02*
X011415Y002706D01*
X011415Y002705D02*
X011023Y002705D01*
X011023Y002704D02*
X011415Y002704D01*
X011416Y002703D02*
X011022Y002703D01*
X011022Y002702D02*
X011416Y002702D01*
X011416Y002701D02*
X011022Y002701D01*
X011021Y002700D02*
X011417Y002700D01*
X011417Y002699D02*
X011021Y002699D01*
X011021Y002698D02*
X011417Y002698D01*
X011417Y002697D02*
X011021Y002697D01*
X011020Y002696D02*
X011418Y002696D01*
X011418Y002695D02*
X011020Y002695D01*
X011020Y002694D02*
X011418Y002694D01*
X011419Y002693D02*
X011019Y002693D01*
X011019Y002692D02*
X011419Y002692D01*
X011419Y002691D02*
X011019Y002691D01*
X011019Y002690D02*
X011419Y002690D01*
X011420Y002689D02*
X011018Y002689D01*
X011018Y002688D02*
X011420Y002688D01*
X011421Y002687D02*
X011017Y002687D01*
X011017Y002686D02*
X011421Y002686D01*
X011421Y002685D02*
X011017Y002685D01*
X011016Y002684D02*
X011422Y002684D01*
X011422Y002683D02*
X011016Y002683D01*
X011015Y002682D02*
X011423Y002682D01*
X011423Y002681D02*
X011015Y002681D01*
X011014Y002680D02*
X011424Y002680D01*
X011424Y002679D02*
X011014Y002679D01*
X011014Y002678D02*
X011424Y002678D01*
X011425Y002677D02*
X011013Y002677D01*
X011013Y002676D02*
X011425Y002676D01*
X011426Y002675D02*
X011012Y002675D01*
X011012Y002674D02*
X011426Y002674D01*
X011427Y002673D02*
X011011Y002673D01*
X011011Y002672D02*
X011427Y002672D01*
X011427Y002671D02*
X011011Y002671D01*
X011010Y002670D02*
X011428Y002670D01*
X011428Y002669D02*
X011010Y002669D01*
X011009Y002668D02*
X011429Y002668D01*
X011429Y002667D02*
X011009Y002667D01*
X011008Y002666D02*
X011430Y002666D01*
X011430Y002665D02*
X011008Y002665D01*
X011008Y002664D02*
X011430Y002664D01*
X011431Y002663D02*
X011007Y002663D01*
X011007Y002662D02*
X011431Y002662D01*
X011432Y002661D02*
X011006Y002661D01*
X011007Y002660D02*
X011431Y002660D01*
X011431Y002659D02*
X011007Y002659D01*
X011008Y002658D02*
X011430Y002658D01*
X011430Y002657D02*
X011008Y002657D01*
X011009Y002656D02*
X011429Y002656D01*
X011429Y002655D02*
X011009Y002655D01*
X011010Y002654D02*
X011428Y002654D01*
X011428Y002653D02*
X011010Y002653D01*
X011011Y002652D02*
X011427Y002652D01*
X011427Y002651D02*
X011011Y002651D01*
X011012Y002650D02*
X011426Y002650D01*
X011426Y002649D02*
X011012Y002649D01*
X011013Y002648D02*
X011425Y002648D01*
X011425Y002647D02*
X011013Y002647D01*
X011014Y002646D02*
X011424Y002646D01*
X011424Y002645D02*
X011014Y002645D01*
X011015Y002644D02*
X011423Y002644D01*
X011423Y002643D02*
X011015Y002643D01*
X011016Y002642D02*
X011422Y002642D01*
X011422Y002641D02*
X011016Y002641D01*
X011017Y002640D02*
X011421Y002640D01*
X011421Y002639D02*
X011017Y002639D01*
X011018Y002638D02*
X011420Y002638D01*
X011420Y002637D02*
X011018Y002637D01*
X011019Y002636D02*
X011419Y002636D01*
X011419Y002635D02*
X011019Y002635D01*
X011020Y002634D02*
X011418Y002634D01*
X011418Y002633D02*
X011020Y002633D01*
X011021Y002632D02*
X011417Y002632D01*
X011417Y002631D02*
X011021Y002631D01*
X011021Y002630D02*
X011417Y002630D01*
X011416Y002629D02*
X011022Y002629D01*
X011022Y002628D02*
X011416Y002628D01*
X011415Y002627D02*
X011023Y002627D01*
X011023Y002626D02*
X011415Y002626D01*
X011414Y002625D02*
X011024Y002625D01*
X011024Y002624D02*
X011414Y002624D01*
X011414Y002623D02*
X011024Y002623D01*
X011025Y002622D02*
X011413Y002622D01*
X011413Y002621D02*
X011025Y002621D01*
X011026Y002620D02*
X011412Y002620D01*
X011412Y002619D02*
X011026Y002619D01*
X011027Y002618D02*
X011411Y002618D01*
X011411Y002617D02*
X011027Y002617D01*
X011027Y002616D02*
X011411Y002616D01*
X011410Y002615D02*
X011028Y002615D01*
X011028Y002614D02*
X011410Y002614D01*
X011409Y002613D02*
X011029Y002613D01*
X011029Y002612D02*
X011409Y002612D01*
X011408Y002611D02*
X011030Y002611D01*
X011030Y002610D02*
X011408Y002610D01*
X011408Y002609D02*
X011030Y002609D01*
X011031Y002608D02*
X011407Y002608D01*
X011407Y002607D02*
X011031Y002607D01*
X011031Y002606D02*
X011406Y002606D01*
X011406Y002605D02*
X011032Y002605D01*
X011032Y002604D02*
X011405Y002604D01*
X011405Y002603D02*
X011032Y002603D01*
X011033Y002602D02*
X011404Y002602D01*
X011404Y002601D02*
X011033Y002601D01*
X011033Y002600D02*
X011403Y002600D01*
X011403Y002599D02*
X011034Y002599D01*
X011034Y002598D02*
X011402Y002598D01*
X011402Y002597D02*
X011034Y002597D01*
X011035Y002596D02*
X011401Y002596D01*
X011401Y002595D02*
X011035Y002595D01*
X011035Y002594D02*
X011400Y002594D01*
X011400Y002593D02*
X011036Y002593D01*
X011036Y002592D02*
X011399Y002592D01*
X011399Y002591D02*
X011036Y002591D01*
X011037Y002590D02*
X011398Y002590D01*
X011398Y002589D02*
X011037Y002589D01*
X011037Y002588D02*
X011397Y002588D01*
X011397Y002587D02*
X011038Y002587D01*
D16*
X010989Y013356D03*
X008430Y013356D03*
D17*
X005459Y013606D03*
D18*
X006459Y013606D03*
X007459Y013606D03*
M02*
