G75*
G70*
%OFA0B0*%
%FSLAX24Y24*%
%IPPOS*%
%LPD*%
%AMOC8*
5,1,8,0,0,1.08239X$1,22.5*
%
%ADD10C,0.0660*%
%ADD11R,0.0240X0.0870*%
%ADD12C,0.0515*%
%ADD13R,0.0315X0.0472*%
%ADD14R,0.0197X0.0256*%
%ADD15C,0.0768*%
%ADD16R,0.0760X0.0760*%
%ADD17C,0.0760*%
%ADD18C,0.0100*%
%ADD19C,0.0238*%
D10*
X001735Y004356D03*
X001735Y005356D03*
X001735Y006356D03*
X001735Y007356D03*
X001735Y008356D03*
X001735Y009356D03*
X001735Y010356D03*
X001735Y011356D03*
X011184Y011356D03*
X011184Y010356D03*
X011184Y009356D03*
X011184Y008356D03*
X011184Y007356D03*
X011184Y006356D03*
X011184Y005356D03*
X011184Y004356D03*
D11*
X008709Y006031D03*
X008209Y006031D03*
X007709Y006031D03*
X007209Y006031D03*
X006709Y006031D03*
X006209Y006031D03*
X005709Y006031D03*
X005209Y006031D03*
X004709Y006031D03*
X004209Y006031D03*
X004209Y009681D03*
X004709Y009681D03*
X005209Y009681D03*
X005709Y009681D03*
X006209Y009681D03*
X006709Y009681D03*
X007209Y009681D03*
X007709Y009681D03*
X008209Y009681D03*
X008709Y009671D03*
D12*
X006459Y012710D03*
X005959Y002041D03*
X006959Y002041D03*
D13*
X003563Y007356D03*
X002855Y007356D03*
X002855Y008356D03*
X003563Y008356D03*
X009355Y012106D03*
X010063Y012106D03*
D14*
X007682Y011372D03*
X007367Y011372D03*
X007052Y011372D03*
X006737Y011372D03*
X006182Y011372D03*
X005867Y011372D03*
X005552Y011372D03*
X005237Y011372D03*
X005237Y010840D03*
X005552Y010840D03*
X005867Y010840D03*
X006182Y010840D03*
X006737Y010840D03*
X007052Y010840D03*
X007367Y010840D03*
X007682Y010840D03*
D15*
X008430Y013356D03*
X010989Y013356D03*
D16*
X005459Y013606D03*
D17*
X006459Y013606D03*
X007459Y013606D03*
D18*
X008068Y012994D02*
X006848Y012994D01*
X007051Y012765D02*
X006459Y012765D01*
X006459Y012710D01*
X006179Y012710D01*
X005141Y011671D01*
X005017Y011548D01*
X003058Y013507D01*
X003058Y013652D01*
X003379Y013697D02*
X003379Y013496D01*
X004333Y012542D01*
X004544Y012542D01*
X005017Y011548D02*
X002855Y009386D01*
X002855Y008356D01*
X002855Y007872D01*
X002832Y007872D01*
X002855Y007872D02*
X002855Y007356D01*
X003563Y007356D02*
X003563Y004437D01*
X005959Y002041D01*
X006959Y002041D01*
X006339Y004356D02*
X011184Y004356D01*
X011384Y004913D02*
X011631Y005161D01*
X011631Y007908D01*
X011184Y008356D01*
X010740Y007799D02*
X011184Y007356D01*
X010740Y007799D02*
X010740Y010544D01*
X011052Y010856D01*
X011324Y010856D01*
X011638Y011170D01*
X011638Y011524D01*
X010692Y012471D01*
X007913Y012471D01*
X007052Y011610D01*
X007052Y011372D01*
X007367Y011372D02*
X007367Y011610D01*
X007848Y011610D01*
X008817Y010640D01*
X008817Y010461D01*
X008209Y010226D02*
X008209Y009681D01*
X007709Y009681D02*
X007709Y010226D01*
X007367Y010568D01*
X007367Y010840D01*
X007682Y010840D02*
X007682Y010602D01*
X008058Y010226D01*
X008209Y010226D01*
X008709Y009671D02*
X008709Y009456D01*
X008312Y009059D01*
X004583Y009059D01*
X004497Y008820D02*
X004209Y009108D01*
X004209Y009136D01*
X004209Y009681D01*
X004709Y009681D02*
X004709Y010521D01*
X004934Y010746D01*
X004934Y010746D01*
X005028Y010840D01*
X005237Y010840D01*
X005313Y010602D02*
X005237Y010526D01*
X005237Y010254D01*
X005209Y010226D01*
X005209Y009681D01*
X005709Y009681D02*
X005709Y010226D01*
X005709Y010347D01*
X005895Y010533D01*
X005867Y010561D01*
X005867Y010602D01*
X005867Y010840D01*
X005552Y010840D02*
X005552Y010602D01*
X005313Y010602D01*
X006182Y010840D02*
X006182Y010254D01*
X006209Y010226D01*
X006209Y009681D01*
X006709Y009681D02*
X006709Y010226D01*
X006737Y010254D01*
X006737Y010602D01*
X006737Y010840D01*
X006459Y010945D02*
X006459Y010723D01*
X006459Y010945D02*
X006648Y011134D01*
X007682Y011134D01*
X007682Y011372D01*
X008016Y011933D02*
X007862Y012086D01*
X008016Y011933D02*
X009355Y011933D01*
X009355Y012106D01*
X009355Y011933D02*
X009355Y011760D01*
X009355Y009599D01*
X008576Y008820D01*
X004497Y008820D01*
X004209Y009136D02*
X003997Y009136D01*
X003563Y008702D01*
X003563Y008356D01*
X003563Y007356D01*
X004065Y006720D02*
X004209Y006576D01*
X004209Y006031D01*
X004709Y006031D02*
X004709Y006793D01*
X004425Y007077D01*
X004065Y006720D02*
X004065Y008875D01*
X004436Y008363D02*
X006222Y006576D01*
X007209Y006576D01*
X007209Y006031D01*
X006709Y006031D02*
X006709Y005486D01*
X007386Y005486D01*
X007459Y005559D01*
X007459Y006977D01*
X009796Y009313D01*
X009796Y012106D01*
X009733Y012168D01*
X009709Y012168D01*
X009796Y012106D02*
X010063Y012106D01*
X010454Y012821D02*
X007107Y012821D01*
X007051Y012765D01*
X007212Y012661D02*
X006182Y011631D01*
X006182Y011610D01*
X006182Y011372D01*
X005867Y011372D02*
X005867Y011610D01*
X006028Y011771D01*
X006028Y012227D01*
X005655Y011754D02*
X005552Y011650D01*
X005552Y011372D01*
X005237Y011372D02*
X005152Y011372D01*
X003296Y009516D01*
X003296Y005917D01*
X001735Y004356D01*
X005209Y005486D02*
X006339Y004356D01*
X006282Y004913D02*
X011384Y004913D01*
X010971Y005143D02*
X011184Y005356D01*
X010971Y005143D02*
X006552Y005143D01*
X006209Y005486D01*
X006209Y006031D01*
X005709Y006031D02*
X005709Y005486D01*
X006282Y004913D01*
X005209Y005486D02*
X005209Y006031D01*
X007709Y006031D02*
X007709Y006576D01*
X010464Y009330D01*
X010464Y010636D01*
X011184Y011356D01*
X011799Y011590D02*
X010728Y012661D01*
X007212Y012661D01*
X006459Y012765D02*
X006459Y013606D01*
X008068Y012994D02*
X008430Y013356D01*
X010454Y012821D02*
X010989Y013356D01*
X011799Y011590D02*
X011799Y009971D01*
X011184Y009356D01*
X008726Y006828D02*
X008709Y006811D01*
X008709Y006031D01*
X008209Y006031D02*
X008209Y005486D01*
X007891Y005486D01*
X007799Y005394D01*
X007209Y009681D02*
X007209Y010226D01*
X007052Y010383D01*
X007052Y010840D01*
X006737Y011372D02*
X006737Y011610D01*
X006485Y011610D01*
X006474Y011599D01*
D19*
X006474Y011599D03*
X006028Y012227D03*
X005655Y011754D03*
X004544Y012542D03*
X003379Y013697D03*
X003058Y013652D03*
X004934Y010746D03*
X005237Y010526D03*
X005895Y010533D03*
X006459Y010723D03*
X007862Y012086D03*
X006848Y012994D03*
X009709Y012168D03*
X008817Y010461D03*
X004583Y009059D03*
X004065Y008875D03*
X004436Y008363D03*
X004425Y007077D03*
X002832Y007872D03*
X007799Y005394D03*
X008726Y006828D03*
M02*
