G04 This is an RS-274x file exported by *
G04 gerbv version 2.6.0 *
G04 More information is available about gerbv at *
G04 http://gerbv.gpleda.org/ *
G04 --End of header info--*
%MOIN*%
%FSLAX34Y34*%
%IPPOS*%
G04 --Define apertures--*
%ADD10C,0.0050*%
%ADD11C,0.0500*%
%ADD12C,0.0060*%
%ADD13C,0.0040*%
%ADD14C,0.0030*%
G04 --Start main section--*
G54D10*
G01X0000160Y0001557D02*
G01X0012758Y0001557D01*
G01X0012758Y0001557D02*
G01X0012758Y0014155D01*
G01X0012758Y0014155D02*
G01X0000160Y0014155D01*
G01X0000160Y0014155D02*
G01X0000160Y0001557D01*
G54D12*
G01X0008929Y0006401D02*
G01X0008929Y0009291D01*
G01X0009591Y0011870D02*
G01X0009827Y0011870D01*
G01X0009827Y0012342D02*
G01X0009591Y0012342D01*
G01X0003989Y0009291D02*
G01X0003989Y0006401D01*
G01X0004129Y0006761D02*
G01X0004131Y0006790D01*
G01X0004131Y0006790D02*
G01X0004137Y0006818D01*
G01X0004137Y0006818D02*
G01X0004146Y0006845D01*
G01X0004146Y0006845D02*
G01X0004160Y0006870D01*
G01X0004160Y0006870D02*
G01X0004176Y0006894D01*
G01X0004176Y0006894D02*
G01X0004196Y0006914D01*
G01X0004196Y0006914D02*
G01X0004218Y0006933D01*
G01X0004218Y0006933D02*
G01X0004242Y0006947D01*
G01X0004242Y0006947D02*
G01X0004269Y0006959D01*
G01X0004269Y0006959D02*
G01X0004296Y0006967D01*
G01X0004296Y0006967D02*
G01X0004325Y0006971D01*
G01X0004325Y0006971D02*
G01X0004353Y0006971D01*
G01X0004353Y0006971D02*
G01X0004382Y0006967D01*
G01X0004382Y0006967D02*
G01X0004409Y0006959D01*
G01X0004409Y0006959D02*
G01X0004436Y0006947D01*
G01X0004436Y0006947D02*
G01X0004460Y0006933D01*
G01X0004460Y0006933D02*
G01X0004482Y0006914D01*
G01X0004482Y0006914D02*
G01X0004502Y0006894D01*
G01X0004502Y0006894D02*
G01X0004518Y0006870D01*
G01X0004518Y0006870D02*
G01X0004532Y0006845D01*
G01X0004532Y0006845D02*
G01X0004541Y0006818D01*
G01X0004541Y0006818D02*
G01X0004547Y0006790D01*
G01X0004547Y0006790D02*
G01X0004549Y0006761D01*
G01X0004549Y0006761D02*
G01X0004547Y0006732D01*
G01X0004547Y0006732D02*
G01X0004541Y0006704D01*
G01X0004541Y0006704D02*
G01X0004532Y0006677D01*
G01X0004532Y0006677D02*
G01X0004518Y0006652D01*
G01X0004518Y0006652D02*
G01X0004502Y0006628D01*
G01X0004502Y0006628D02*
G01X0004482Y0006608D01*
G01X0004482Y0006608D02*
G01X0004460Y0006589D01*
G01X0004460Y0006589D02*
G01X0004436Y0006575D01*
G01X0004436Y0006575D02*
G01X0004409Y0006563D01*
G01X0004409Y0006563D02*
G01X0004382Y0006555D01*
G01X0004382Y0006555D02*
G01X0004353Y0006551D01*
G01X0004353Y0006551D02*
G01X0004325Y0006551D01*
G01X0004325Y0006551D02*
G01X0004296Y0006555D01*
G01X0004296Y0006555D02*
G01X0004269Y0006563D01*
G01X0004269Y0006563D02*
G01X0004242Y0006575D01*
G01X0004242Y0006575D02*
G01X0004218Y0006589D01*
G01X0004218Y0006589D02*
G01X0004196Y0006608D01*
G01X0004196Y0006608D02*
G01X0004176Y0006628D01*
G01X0004176Y0006628D02*
G01X0004160Y0006652D01*
G01X0004160Y0006652D02*
G01X0004146Y0006677D01*
G01X0004146Y0006677D02*
G01X0004137Y0006704D01*
G01X0004137Y0006704D02*
G01X0004131Y0006732D01*
G01X0004131Y0006732D02*
G01X0004129Y0006761D01*
G01X0003327Y0007120D02*
G01X0003091Y0007120D01*
G01X0003091Y0007592D02*
G01X0003327Y0007592D01*
G01X0003327Y0008120D02*
G01X0003091Y0008120D01*
G01X0003091Y0008592D02*
G01X0003327Y0008592D01*
G54D13*
G01X0003979Y0010876D02*
G01X0003979Y0011236D01*
G01X0003979Y0011236D02*
G01X0004159Y0011236D01*
G01X0004159Y0011236D02*
G01X0004219Y0011176D01*
G01X0004219Y0011176D02*
G01X0004219Y0011056D01*
G01X0004219Y0011056D02*
G01X0004159Y0010996D01*
G01X0004159Y0010996D02*
G01X0003979Y0010996D01*
G01X0004099Y0010996D02*
G01X0004219Y0010876D01*
G01X0004347Y0010876D02*
G01X0004347Y0011236D01*
G01X0004347Y0011236D02*
G01X0004588Y0010876D01*
G01X0004588Y0010876D02*
G01X0004588Y0011236D01*
G01X0004716Y0011116D02*
G01X0004836Y0011236D01*
G01X0004836Y0011236D02*
G01X0004836Y0010876D01*
G01X0004716Y0010876D02*
G01X0004956Y0010876D01*
G01X0007979Y0010876D02*
G01X0007979Y0011236D01*
G01X0007979Y0011236D02*
G01X0008159Y0011236D01*
G01X0008159Y0011236D02*
G01X0008219Y0011176D01*
G01X0008219Y0011176D02*
G01X0008219Y0011056D01*
G01X0008219Y0011056D02*
G01X0008159Y0010996D01*
G01X0008159Y0010996D02*
G01X0007979Y0010996D01*
G01X0008099Y0010996D02*
G01X0008219Y0010876D01*
G01X0008347Y0010876D02*
G01X0008347Y0011236D01*
G01X0008347Y0011236D02*
G01X0008588Y0010876D01*
G01X0008588Y0010876D02*
G01X0008588Y0011236D01*
G01X0008716Y0011176D02*
G01X0008776Y0011236D01*
G01X0008776Y0011236D02*
G01X0008896Y0011236D01*
G01X0008896Y0011236D02*
G01X0008956Y0011176D01*
G01X0008956Y0011176D02*
G01X0008956Y0011116D01*
G01X0008956Y0011116D02*
G01X0008716Y0010876D01*
G01X0008716Y0010876D02*
G01X0008956Y0010876D01*
G01X0006742Y0007792D02*
G01X0006742Y0007431D01*
G01X0006622Y0007431D02*
G01X0006863Y0007431D01*
G01X0006622Y0007672D02*
G01X0006742Y0007792D01*
G01X0006494Y0007732D02*
G01X0006434Y0007792D01*
G01X0006434Y0007792D02*
G01X0006314Y0007792D01*
G01X0006314Y0007792D02*
G01X0006254Y0007732D01*
G01X0006254Y0007732D02*
G01X0006254Y0007492D01*
G01X0006254Y0007492D02*
G01X0006314Y0007431D01*
G01X0006314Y0007431D02*
G01X0006434Y0007431D01*
G01X0006434Y0007431D02*
G01X0006494Y0007492D01*
G01X0006129Y0007431D02*
G01X0006009Y0007431D01*
G01X0006069Y0007431D02*
G01X0006069Y0007792D01*
G01X0006009Y0007792D02*
G01X0006129Y0007792D01*
G54D14*
G01X0002622Y0008087D02*
G01X0002560Y0008025D01*
G01X0002560Y0008025D02*
G01X0002313Y0008025D01*
G01X0002313Y0008025D02*
G01X0002252Y0008087D01*
G01X0002252Y0008087D02*
G01X0002252Y0008210D01*
G01X0002252Y0008210D02*
G01X0002313Y0008272D01*
G01X0002375Y0008393D02*
G01X0002252Y0008517D01*
G01X0002252Y0008517D02*
G01X0002622Y0008517D01*
G01X0002622Y0008640D02*
G01X0002622Y0008393D01*
G01X0002560Y0008272D02*
G01X0002622Y0008210D01*
G01X0002622Y0008210D02*
G01X0002622Y0008087D01*
G01X0002606Y0007624D02*
G01X0002606Y0007378D01*
G01X0002606Y0007378D02*
G01X0002359Y0007624D01*
G01X0002359Y0007624D02*
G01X0002298Y0007624D01*
G01X0002298Y0007624D02*
G01X0002236Y0007563D01*
G01X0002236Y0007563D02*
G01X0002236Y0007439D01*
G01X0002236Y0007439D02*
G01X0002298Y0007378D01*
G01X0002298Y0007256D02*
G01X0002236Y0007194D01*
G01X0002236Y0007194D02*
G01X0002236Y0007071D01*
G01X0002236Y0007071D02*
G01X0002298Y0007009D01*
G01X0002298Y0007009D02*
G01X0002544Y0007009D01*
G01X0002544Y0007009D02*
G01X0002606Y0007071D01*
G01X0002606Y0007071D02*
G01X0002606Y0007194D01*
G01X0002606Y0007194D02*
G01X0002544Y0007256D01*
G01X0010424Y0011946D02*
G01X0010424Y0012316D01*
G01X0010424Y0012316D02*
G01X0010609Y0012316D01*
G01X0010609Y0012316D02*
G01X0010671Y0012255D01*
G01X0010671Y0012255D02*
G01X0010671Y0012131D01*
G01X0010671Y0012131D02*
G01X0010609Y0012069D01*
G01X0010609Y0012069D02*
G01X0010424Y0012069D01*
G01X0010548Y0012069D02*
G01X0010671Y0011946D01*
G01X0010792Y0011946D02*
G01X0011039Y0011946D01*
G01X0010916Y0011946D02*
G01X0010916Y0012316D01*
G01X0010916Y0012316D02*
G01X0010792Y0012193D01*
M02*
