G75*
G70*
%OFA0B0*%
%FSLAX24Y24*%
%IPPOS*%
%LPD*%
%AMOC8*
5,1,8,0,0,1.08239X$1,22.5*
%
%ADD10C,0.0000*%
%ADD11C,0.0050*%
%ADD12C,0.0500*%
%ADD13C,0.0060*%
%ADD14C,0.0020*%
%ADD15C,0.0040*%
%ADD16C,0.0010*%
D10*
X001553Y000683D02*
X001553Y013281D01*
X014151Y013281D01*
X014151Y000683D01*
X001553Y000683D01*
X012931Y010637D02*
X012933Y010663D01*
X012939Y010689D01*
X012948Y010713D01*
X012961Y010736D01*
X012978Y010756D01*
X012997Y010774D01*
X013019Y010789D01*
X013042Y010800D01*
X013067Y010808D01*
X013093Y010812D01*
X013119Y010812D01*
X013145Y010808D01*
X013170Y010800D01*
X013194Y010789D01*
X013215Y010774D01*
X013234Y010756D01*
X013251Y010736D01*
X013264Y010713D01*
X013273Y010689D01*
X013279Y010663D01*
X013281Y010637D01*
X013279Y010611D01*
X013273Y010585D01*
X013264Y010561D01*
X013251Y010538D01*
X013234Y010518D01*
X013215Y010500D01*
X013193Y010485D01*
X013170Y010474D01*
X013145Y010466D01*
X013119Y010462D01*
X013093Y010462D01*
X013067Y010466D01*
X013042Y010474D01*
X013018Y010485D01*
X012997Y010500D01*
X012978Y010518D01*
X012961Y010538D01*
X012948Y010561D01*
X012939Y010585D01*
X012933Y010611D01*
X012931Y010637D01*
X012531Y012637D02*
X012533Y012663D01*
X012539Y012689D01*
X012548Y012713D01*
X012561Y012736D01*
X012578Y012756D01*
X012597Y012774D01*
X012619Y012789D01*
X012642Y012800D01*
X012667Y012808D01*
X012693Y012812D01*
X012719Y012812D01*
X012745Y012808D01*
X012770Y012800D01*
X012794Y012789D01*
X012815Y012774D01*
X012834Y012756D01*
X012851Y012736D01*
X012864Y012713D01*
X012873Y012689D01*
X012879Y012663D01*
X012881Y012637D01*
X012879Y012611D01*
X012873Y012585D01*
X012864Y012561D01*
X012851Y012538D01*
X012834Y012518D01*
X012815Y012500D01*
X012793Y012485D01*
X012770Y012474D01*
X012745Y012466D01*
X012719Y012462D01*
X012693Y012462D01*
X012667Y012466D01*
X012642Y012474D01*
X012618Y012485D01*
X012597Y012500D01*
X012578Y012518D01*
X012561Y012538D01*
X012548Y012561D01*
X012539Y012585D01*
X012533Y012611D01*
X012531Y012637D01*
X013331Y012637D02*
X013333Y012663D01*
X013339Y012689D01*
X013348Y012713D01*
X013361Y012736D01*
X013378Y012756D01*
X013397Y012774D01*
X013419Y012789D01*
X013442Y012800D01*
X013467Y012808D01*
X013493Y012812D01*
X013519Y012812D01*
X013545Y012808D01*
X013570Y012800D01*
X013594Y012789D01*
X013615Y012774D01*
X013634Y012756D01*
X013651Y012736D01*
X013664Y012713D01*
X013673Y012689D01*
X013679Y012663D01*
X013681Y012637D01*
X013679Y012611D01*
X013673Y012585D01*
X013664Y012561D01*
X013651Y012538D01*
X013634Y012518D01*
X013615Y012500D01*
X013593Y012485D01*
X013570Y012474D01*
X013545Y012466D01*
X013519Y012462D01*
X013493Y012462D01*
X013467Y012466D01*
X013442Y012474D01*
X013418Y012485D01*
X013397Y012500D01*
X013378Y012518D01*
X013361Y012538D01*
X013348Y012561D01*
X013339Y012585D01*
X013333Y012611D01*
X013331Y012637D01*
D11*
X014155Y013285D02*
X014155Y000687D01*
X001557Y000687D01*
X001557Y013285D01*
X014155Y013285D01*
D12*
X000350Y002261D02*
X000352Y002292D01*
X000358Y002323D01*
X000368Y002353D01*
X000381Y002381D01*
X000398Y002408D01*
X000418Y002432D01*
X000441Y002454D01*
X000466Y002472D01*
X000494Y002487D01*
X000523Y002499D01*
X000553Y002507D01*
X000584Y002511D01*
X000616Y002511D01*
X000647Y002507D01*
X000677Y002499D01*
X000706Y002487D01*
X000734Y002472D01*
X000759Y002454D01*
X000782Y002432D01*
X000802Y002408D01*
X000819Y002381D01*
X000832Y002353D01*
X000842Y002323D01*
X000848Y002292D01*
X000850Y002261D01*
X000848Y002230D01*
X000842Y002199D01*
X000832Y002169D01*
X000819Y002141D01*
X000802Y002114D01*
X000782Y002090D01*
X000759Y002068D01*
X000734Y002050D01*
X000706Y002035D01*
X000677Y002023D01*
X000647Y002015D01*
X000616Y002011D01*
X000584Y002011D01*
X000553Y002015D01*
X000523Y002023D01*
X000494Y002035D01*
X000466Y002050D01*
X000441Y002068D01*
X000418Y002090D01*
X000398Y002114D01*
X000381Y002141D01*
X000368Y002169D01*
X000358Y002199D01*
X000352Y002230D01*
X000350Y002261D01*
D13*
X004120Y006868D02*
X004120Y007104D01*
X004592Y007104D02*
X004592Y006868D01*
X006551Y009106D02*
X006553Y009135D01*
X006559Y009163D01*
X006568Y009190D01*
X006582Y009215D01*
X006598Y009239D01*
X006618Y009259D01*
X006640Y009278D01*
X006664Y009292D01*
X006691Y009304D01*
X006718Y009312D01*
X006747Y009316D01*
X006775Y009316D01*
X006804Y009312D01*
X006831Y009304D01*
X006858Y009292D01*
X006882Y009278D01*
X006904Y009259D01*
X006924Y009239D01*
X006940Y009215D01*
X006954Y009190D01*
X006963Y009163D01*
X006969Y009135D01*
X006971Y009106D01*
X006969Y009077D01*
X006963Y009049D01*
X006954Y009022D01*
X006940Y008997D01*
X006924Y008973D01*
X006904Y008953D01*
X006882Y008934D01*
X006858Y008920D01*
X006831Y008908D01*
X006804Y008900D01*
X006775Y008896D01*
X006747Y008896D01*
X006718Y008900D01*
X006691Y008908D01*
X006664Y008920D01*
X006640Y008934D01*
X006618Y008953D01*
X006598Y008973D01*
X006582Y008997D01*
X006568Y009022D01*
X006559Y009049D01*
X006553Y009077D01*
X006551Y009106D01*
X006401Y009456D02*
X009291Y009456D01*
X008592Y010118D02*
X008592Y010354D01*
X008120Y010354D02*
X008120Y010118D01*
X007592Y010118D02*
X007592Y010354D01*
X007120Y010354D02*
X007120Y010118D01*
X006401Y004516D02*
X009291Y004516D01*
D14*
X010880Y005970D02*
X010880Y006190D01*
X010990Y006190D01*
X011027Y006154D01*
X011027Y006080D01*
X010990Y006044D01*
X010880Y006044D01*
X010953Y006044D02*
X011027Y005970D01*
X011101Y005970D02*
X011101Y006190D01*
X011248Y005970D01*
X011248Y006190D01*
X011322Y006117D02*
X011395Y006190D01*
X011395Y005970D01*
X011322Y005970D02*
X011469Y005970D01*
X008103Y009040D02*
X007956Y009040D01*
X008029Y009040D02*
X008029Y009260D01*
X007956Y009187D01*
X007882Y009224D02*
X007845Y009260D01*
X007772Y009260D01*
X007735Y009224D01*
X007735Y009187D01*
X007772Y009150D01*
X007845Y009150D01*
X007882Y009114D01*
X007882Y009077D01*
X007845Y009040D01*
X007772Y009040D01*
X007735Y009077D01*
X007661Y009077D02*
X007661Y009260D01*
X007514Y009260D02*
X007514Y009077D01*
X007551Y009040D01*
X007624Y009040D01*
X007661Y009077D01*
X007808Y009004D02*
X007808Y009297D01*
X007506Y010856D02*
X007359Y010856D01*
X007506Y011003D01*
X007506Y011040D01*
X007469Y011076D01*
X007396Y011076D01*
X007359Y011040D01*
X007285Y011040D02*
X007248Y011076D01*
X007175Y011076D01*
X007138Y011040D01*
X007138Y010893D01*
X007175Y010856D01*
X007248Y010856D01*
X007285Y010893D01*
X008122Y010909D02*
X008159Y010872D01*
X008233Y010872D01*
X008269Y010909D01*
X008343Y010872D02*
X008490Y010872D01*
X008417Y010872D02*
X008417Y011092D01*
X008343Y011019D01*
X008269Y011055D02*
X008233Y011092D01*
X008159Y011092D01*
X008122Y011055D01*
X008122Y010909D01*
X004482Y006403D02*
X004408Y006330D01*
X004334Y006367D02*
X004334Y006293D01*
X004298Y006256D01*
X004187Y006256D01*
X004187Y006183D02*
X004187Y006403D01*
X004298Y006403D01*
X004334Y006367D01*
X004261Y006256D02*
X004334Y006183D01*
X004408Y006183D02*
X004555Y006183D01*
X004482Y006183D02*
X004482Y006403D01*
D15*
X010996Y006360D02*
X011311Y006360D01*
X011311Y007817D02*
X010996Y007817D01*
D16*
X003961Y007343D02*
X003911Y007268D01*
X003861Y007343D01*
X003811Y007268D02*
X003961Y007268D01*
X003936Y007221D02*
X003836Y007221D01*
X003936Y007121D01*
X003961Y007146D01*
X003961Y007196D01*
X003936Y007221D01*
X003836Y007221D02*
X003811Y007196D01*
X003811Y007146D01*
X003836Y007121D01*
X003936Y007121D01*
X003961Y007073D02*
X003961Y006973D01*
X003961Y007023D02*
X003811Y007023D01*
X003861Y006973D01*
M02*
