%
M48
M72
T01C0.0118
T02C0.0315
T03C0.0350
T04C0.0400
T05C0.0512
%
T01
X7764Y5394
X8691Y6828
X4548Y9059
X4030Y8875
X4401Y8363
X4390Y7077
X2798Y7872
X5202Y10526
X4899Y10746
X5860Y10533
X6424Y10723
X6439Y11599
X5993Y12227
X5620Y11754
X4509Y12542
X3344Y13697
X3023Y13652
X6813Y12994
X7827Y12086
X8782Y10461
X9674Y12168
T02
X1700Y4356
X1700Y5356
X1700Y6356
X1700Y7356
X1700Y8356
X1700Y9356
X1700Y10356
X1700Y11356
X6424Y12710
X11149Y11356
X11149Y10356
X11149Y9356
X11149Y8356
X11149Y7356
X11149Y6356
X11149Y5356
X11149Y4356
X6924Y2041
X5924Y2041
T03
X2273Y12706
X2273Y13506
X4273Y13106
T04
X5424Y13606
X6424Y13606
X7424Y13606
T05
X8395Y13356
X10954Y13356
M30
