G75*
G70*
%OFA0B0*%
%FSLAX24Y24*%
%IPPOS*%
%LPD*%
%AMOC8*
5,1,8,0,0,1.08239X$1,22.5*
%
%ADD10C,0.0000*%
%ADD11C,0.0700*%
%ADD12R,0.0740X0.1040*%
%ADD13C,0.3190*%
%ADD14R,0.0800X0.0800*%
%ADD15C,0.0800*%
%ADD16C,0.0350*%
%ADD17C,0.0390*%
%ADD18C,0.0001*%
D10*
X001553Y000683D02*
X001553Y013281D01*
X014151Y013281D01*
X014151Y000683D01*
X001553Y000683D01*
X012614Y001710D02*
X012626Y001738D01*
X012633Y001765D01*
X012645Y001793D01*
X012653Y001820D01*
X012665Y001852D01*
X012677Y001880D01*
X012685Y001907D01*
X012937Y001907D01*
X012968Y001907D01*
X012976Y001880D01*
X012988Y001852D01*
X012996Y001820D01*
X013007Y001793D01*
X013019Y001765D01*
X013027Y001738D01*
X013039Y001710D01*
X013027Y001687D01*
X013015Y001659D01*
X013004Y001635D01*
X012645Y001635D01*
X012637Y001659D01*
X012626Y001687D01*
X012614Y001710D01*
X012931Y010637D02*
X012933Y010663D01*
X012939Y010689D01*
X012948Y010713D01*
X012961Y010736D01*
X012978Y010756D01*
X012997Y010774D01*
X013019Y010789D01*
X013042Y010800D01*
X013067Y010808D01*
X013093Y010812D01*
X013119Y010812D01*
X013145Y010808D01*
X013170Y010800D01*
X013194Y010789D01*
X013215Y010774D01*
X013234Y010756D01*
X013251Y010736D01*
X013264Y010713D01*
X013273Y010689D01*
X013279Y010663D01*
X013281Y010637D01*
X013279Y010611D01*
X013273Y010585D01*
X013264Y010561D01*
X013251Y010538D01*
X013234Y010518D01*
X013215Y010500D01*
X013193Y010485D01*
X013170Y010474D01*
X013145Y010466D01*
X013119Y010462D01*
X013093Y010462D01*
X013067Y010466D01*
X013042Y010474D01*
X013018Y010485D01*
X012997Y010500D01*
X012978Y010518D01*
X012961Y010538D01*
X012948Y010561D01*
X012939Y010585D01*
X012933Y010611D01*
X012931Y010637D01*
X012531Y012637D02*
X012533Y012663D01*
X012539Y012689D01*
X012548Y012713D01*
X012561Y012736D01*
X012578Y012756D01*
X012597Y012774D01*
X012619Y012789D01*
X012642Y012800D01*
X012667Y012808D01*
X012693Y012812D01*
X012719Y012812D01*
X012745Y012808D01*
X012770Y012800D01*
X012794Y012789D01*
X012815Y012774D01*
X012834Y012756D01*
X012851Y012736D01*
X012864Y012713D01*
X012873Y012689D01*
X012879Y012663D01*
X012881Y012637D01*
X012879Y012611D01*
X012873Y012585D01*
X012864Y012561D01*
X012851Y012538D01*
X012834Y012518D01*
X012815Y012500D01*
X012793Y012485D01*
X012770Y012474D01*
X012745Y012466D01*
X012719Y012462D01*
X012693Y012462D01*
X012667Y012466D01*
X012642Y012474D01*
X012618Y012485D01*
X012597Y012500D01*
X012578Y012518D01*
X012561Y012538D01*
X012548Y012561D01*
X012539Y012585D01*
X012533Y012611D01*
X012531Y012637D01*
X013331Y012637D02*
X013333Y012663D01*
X013339Y012689D01*
X013348Y012713D01*
X013361Y012736D01*
X013378Y012756D01*
X013397Y012774D01*
X013419Y012789D01*
X013442Y012800D01*
X013467Y012808D01*
X013493Y012812D01*
X013519Y012812D01*
X013545Y012808D01*
X013570Y012800D01*
X013594Y012789D01*
X013615Y012774D01*
X013634Y012756D01*
X013651Y012736D01*
X013664Y012713D01*
X013673Y012689D01*
X013679Y012663D01*
X013681Y012637D01*
X013679Y012611D01*
X013673Y012585D01*
X013664Y012561D01*
X013651Y012538D01*
X013634Y012518D01*
X013615Y012500D01*
X013593Y012485D01*
X013570Y012474D01*
X013545Y012466D01*
X013519Y012462D01*
X013493Y012462D01*
X013467Y012466D01*
X013442Y012474D01*
X013418Y012485D01*
X013397Y012500D01*
X013378Y012518D01*
X013361Y012538D01*
X013348Y012561D01*
X013339Y012585D01*
X013333Y012611D01*
X013331Y012637D01*
D11*
X011356Y011710D03*
X010356Y011710D03*
X009356Y011710D03*
X008356Y011710D03*
X007356Y011710D03*
X006356Y011710D03*
X005356Y011710D03*
X004356Y011710D03*
X004356Y002261D03*
X005356Y002261D03*
X006356Y002261D03*
X007356Y002261D03*
X008356Y002261D03*
X009356Y002261D03*
X010356Y002261D03*
X011356Y002261D03*
D12*
X012187Y006376D03*
X012187Y007596D03*
X003525Y007596D03*
X003525Y006376D03*
D13*
X006872Y006986D02*
X008840Y006986D01*
D14*
X006856Y012486D03*
D15*
X007856Y012486D03*
X008856Y012486D03*
D16*
X012856Y012137D03*
X013356Y012137D03*
X013356Y011637D03*
X013356Y011137D03*
X012856Y011137D03*
X012856Y011637D03*
D17*
X013106Y010637D03*
X013506Y012637D03*
X012706Y012637D03*
D18*
X012684Y001906D02*
X012968Y001906D01*
X012969Y001905D02*
X012684Y001905D01*
X012684Y001904D02*
X012969Y001904D01*
X012969Y001903D02*
X012684Y001903D01*
X012683Y001902D02*
X012969Y001902D01*
X012970Y001901D02*
X012683Y001901D01*
X012683Y001900D02*
X012970Y001900D01*
X012970Y001899D02*
X012682Y001899D01*
X012682Y001898D02*
X012971Y001898D01*
X012971Y001897D02*
X012682Y001897D01*
X012682Y001896D02*
X012971Y001896D01*
X012971Y001895D02*
X012681Y001895D01*
X012681Y001894D02*
X012972Y001894D01*
X012972Y001893D02*
X012681Y001893D01*
X012680Y001892D02*
X012972Y001892D01*
X012973Y001891D02*
X012680Y001891D01*
X012680Y001890D02*
X012973Y001890D01*
X012973Y001889D02*
X012680Y001889D01*
X012679Y001888D02*
X012973Y001888D01*
X012974Y001887D02*
X012679Y001887D01*
X012679Y001886D02*
X012974Y001886D01*
X012974Y001885D02*
X012678Y001885D01*
X012678Y001884D02*
X012975Y001884D01*
X012975Y001883D02*
X012678Y001883D01*
X012678Y001882D02*
X012975Y001882D01*
X012975Y001881D02*
X012677Y001881D01*
X012677Y001880D02*
X012976Y001880D01*
X012976Y001879D02*
X012677Y001879D01*
X012676Y001878D02*
X012976Y001878D01*
X012977Y001877D02*
X012676Y001877D01*
X012675Y001876D02*
X012977Y001876D01*
X012978Y001875D02*
X012675Y001875D01*
X012675Y001874D02*
X012978Y001874D01*
X012979Y001873D02*
X012674Y001873D01*
X012674Y001872D02*
X012979Y001872D01*
X012979Y001871D02*
X012673Y001871D01*
X012673Y001870D02*
X012980Y001870D01*
X012980Y001869D02*
X012672Y001869D01*
X012672Y001868D02*
X012981Y001868D01*
X012981Y001867D02*
X012672Y001867D01*
X012671Y001866D02*
X012982Y001866D01*
X012982Y001865D02*
X012671Y001865D01*
X012670Y001864D02*
X012982Y001864D01*
X012983Y001863D02*
X012670Y001863D01*
X012669Y001862D02*
X012983Y001862D01*
X012984Y001861D02*
X012669Y001861D01*
X012669Y001860D02*
X012984Y001860D01*
X012985Y001859D02*
X012668Y001859D01*
X012668Y001858D02*
X012985Y001858D01*
X012985Y001857D02*
X012667Y001857D01*
X012667Y001856D02*
X012986Y001856D01*
X012986Y001855D02*
X012666Y001855D01*
X012666Y001854D02*
X012987Y001854D01*
X012987Y001853D02*
X012666Y001853D01*
X012665Y001852D02*
X012988Y001852D01*
X012988Y001851D02*
X012665Y001851D01*
X012664Y001850D02*
X012988Y001850D01*
X012988Y001849D02*
X012664Y001849D01*
X012664Y001848D02*
X012989Y001848D01*
X012989Y001847D02*
X012663Y001847D01*
X012663Y001846D02*
X012989Y001846D01*
X012989Y001845D02*
X012663Y001845D01*
X012662Y001844D02*
X012990Y001844D01*
X012990Y001843D02*
X012662Y001843D01*
X012661Y001842D02*
X012990Y001842D01*
X012990Y001841D02*
X012661Y001841D01*
X012661Y001840D02*
X012991Y001840D01*
X012991Y001839D02*
X012660Y001839D01*
X012660Y001838D02*
X012991Y001838D01*
X012991Y001837D02*
X012660Y001837D01*
X012659Y001836D02*
X012992Y001836D01*
X012992Y001835D02*
X012659Y001835D01*
X012658Y001834D02*
X012992Y001834D01*
X012992Y001833D02*
X012658Y001833D01*
X012993Y001833D01*
X012993Y001832D02*
X012657Y001832D01*
X012657Y001831D02*
X012993Y001831D01*
X012993Y001830D02*
X012657Y001830D01*
X012656Y001829D02*
X012994Y001829D01*
X012994Y001828D02*
X012656Y001828D01*
X012655Y001827D02*
X012994Y001827D01*
X012994Y001826D02*
X012655Y001826D01*
X012655Y001825D02*
X012995Y001825D01*
X012995Y001824D02*
X012654Y001824D01*
X012654Y001823D02*
X012995Y001823D01*
X012995Y001822D02*
X012654Y001822D01*
X012653Y001821D02*
X012996Y001821D01*
X012996Y001820D02*
X012653Y001820D01*
X012653Y001819D02*
X012997Y001819D01*
X012997Y001818D02*
X012652Y001818D01*
X012652Y001817D02*
X012997Y001817D01*
X012998Y001816D02*
X012652Y001816D01*
X012651Y001815D02*
X012998Y001815D01*
X012999Y001814D02*
X012651Y001814D01*
X012651Y001813D02*
X012999Y001813D01*
X013000Y001812D02*
X012651Y001812D01*
X012650Y001811D02*
X013000Y001811D01*
X013000Y001810D02*
X012650Y001810D01*
X012650Y001809D02*
X013001Y001809D01*
X013001Y001808D02*
X012649Y001808D01*
X012649Y001807D02*
X013002Y001807D01*
X013002Y001806D02*
X012649Y001806D01*
X012649Y001805D02*
X013003Y001805D01*
X013003Y001804D02*
X012648Y001804D01*
X012648Y001803D02*
X013003Y001803D01*
X013004Y001802D02*
X012648Y001802D01*
X012647Y001801D02*
X013004Y001801D01*
X013005Y001800D02*
X012647Y001800D01*
X012647Y001799D02*
X013005Y001799D01*
X013005Y001798D02*
X012647Y001798D01*
X012646Y001797D02*
X013006Y001797D01*
X013006Y001796D02*
X012646Y001796D01*
X012646Y001795D02*
X013007Y001795D01*
X013007Y001794D02*
X012645Y001794D01*
X012645Y001793D02*
X013008Y001793D01*
X013008Y001792D02*
X012645Y001792D01*
X012644Y001791D02*
X013008Y001791D01*
X013009Y001790D02*
X012644Y001790D01*
X012643Y001789D02*
X013009Y001789D01*
X013010Y001788D02*
X012643Y001788D01*
X012643Y001787D02*
X013010Y001787D01*
X013011Y001786D02*
X012642Y001786D01*
X012642Y001785D02*
X013011Y001785D01*
X013011Y001784D02*
X012641Y001784D01*
X012641Y001783D02*
X013012Y001783D01*
X013012Y001782D02*
X012640Y001782D01*
X012640Y001781D02*
X013013Y001781D01*
X013013Y001780D02*
X012640Y001780D01*
X012639Y001779D02*
X013014Y001779D01*
X013014Y001778D02*
X012639Y001778D01*
X012638Y001777D02*
X013014Y001777D01*
X013015Y001776D02*
X012638Y001776D01*
X012637Y001775D02*
X013015Y001775D01*
X013016Y001774D02*
X012637Y001774D01*
X012637Y001773D02*
X013016Y001773D01*
X013017Y001772D02*
X012636Y001772D01*
X012636Y001771D02*
X013017Y001771D01*
X013017Y001770D02*
X012635Y001770D01*
X012635Y001769D02*
X013018Y001769D01*
X013018Y001768D02*
X012634Y001768D01*
X012634Y001767D02*
X013019Y001767D01*
X013019Y001766D02*
X012634Y001766D01*
X012633Y001765D02*
X013020Y001765D01*
X013020Y001764D02*
X012633Y001764D01*
X012633Y001763D02*
X013020Y001763D01*
X013020Y001762D02*
X012632Y001762D01*
X012632Y001761D02*
X013021Y001761D01*
X013021Y001760D02*
X012632Y001760D01*
X012632Y001759D02*
X013021Y001759D01*
X013022Y001758D02*
X012631Y001758D01*
X012631Y001757D02*
X013022Y001757D01*
X013022Y001756D02*
X012631Y001756D01*
X012630Y001755D02*
X013022Y001755D01*
X013023Y001754D02*
X012630Y001754D01*
X012630Y001753D02*
X013023Y001753D01*
X013023Y001752D02*
X012630Y001752D01*
X012629Y001751D02*
X013024Y001751D01*
X013024Y001750D02*
X012629Y001750D01*
X012629Y001749D02*
X013024Y001749D01*
X013024Y001748D02*
X012628Y001748D01*
X012628Y001747D02*
X013025Y001747D01*
X013025Y001746D02*
X012628Y001746D01*
X012628Y001745D02*
X013025Y001745D01*
X013026Y001744D02*
X012627Y001744D01*
X012627Y001743D02*
X013026Y001743D01*
X013026Y001742D02*
X012627Y001742D01*
X012626Y001741D02*
X013026Y001741D01*
X013027Y001740D02*
X012626Y001740D01*
X012626Y001739D02*
X013027Y001739D01*
X013027Y001738D02*
X012626Y001738D01*
X012625Y001737D02*
X013028Y001737D01*
X013028Y001736D02*
X012625Y001736D01*
X012624Y001735D02*
X013029Y001735D01*
X013029Y001734D02*
X012624Y001734D01*
X012623Y001733D02*
X013029Y001733D01*
X013030Y001732D02*
X012623Y001732D01*
X012623Y001731D02*
X013030Y001731D01*
X013031Y001730D02*
X012622Y001730D01*
X012622Y001729D02*
X013031Y001729D01*
X013032Y001728D02*
X012621Y001728D01*
X012621Y001727D02*
X013032Y001727D01*
X013032Y001726D02*
X012620Y001726D01*
X012620Y001725D02*
X013033Y001725D01*
X013033Y001724D02*
X012620Y001724D01*
X012619Y001723D02*
X013034Y001723D01*
X013034Y001722D02*
X012619Y001722D01*
X012618Y001721D02*
X013035Y001721D01*
X013035Y001720D02*
X012618Y001720D01*
X012617Y001719D02*
X013035Y001719D01*
X013036Y001718D02*
X012617Y001718D01*
X012617Y001717D02*
X013036Y001717D01*
X013037Y001716D02*
X012616Y001716D01*
X012616Y001715D02*
X013037Y001715D01*
X013038Y001714D02*
X012615Y001714D01*
X012615Y001713D02*
X013038Y001713D01*
X013038Y001712D02*
X012614Y001712D01*
X012614Y001711D02*
X013039Y001711D01*
X013039Y001710D02*
X012614Y001710D01*
X012615Y001709D02*
X013038Y001709D01*
X013038Y001708D02*
X012615Y001708D01*
X012616Y001707D02*
X013037Y001707D01*
X013037Y001706D02*
X012616Y001706D01*
X012617Y001705D02*
X013036Y001705D01*
X013036Y001704D02*
X012617Y001704D01*
X012618Y001703D02*
X013035Y001703D01*
X013035Y001702D02*
X012618Y001702D01*
X012619Y001701D02*
X013034Y001701D01*
X013034Y001700D02*
X012619Y001700D01*
X012620Y001699D02*
X013033Y001699D01*
X013033Y001698D02*
X012620Y001698D01*
X012621Y001697D02*
X013032Y001697D01*
X013032Y001696D02*
X012621Y001696D01*
X012622Y001695D02*
X013031Y001695D01*
X013031Y001694D02*
X012622Y001694D01*
X012623Y001693D02*
X013030Y001693D01*
X013030Y001692D02*
X012623Y001692D01*
X012624Y001691D02*
X013029Y001691D01*
X013029Y001690D02*
X012624Y001690D01*
X012625Y001689D02*
X013028Y001689D01*
X013028Y001688D02*
X012625Y001688D01*
X012626Y001687D02*
X013027Y001687D01*
X013027Y001686D02*
X012626Y001686D01*
X012626Y001685D02*
X013026Y001685D01*
X013026Y001684D02*
X012627Y001684D01*
X012627Y001683D02*
X013025Y001683D01*
X013025Y001682D02*
X012628Y001682D01*
X012628Y001681D02*
X013025Y001681D01*
X013024Y001680D02*
X012629Y001680D01*
X012629Y001679D02*
X013024Y001679D01*
X013023Y001678D02*
X012629Y001678D01*
X012630Y001677D02*
X013023Y001677D01*
X013022Y001676D02*
X012630Y001676D01*
X012631Y001675D02*
X013022Y001675D01*
X013022Y001674D02*
X012631Y001674D01*
X012632Y001673D02*
X013021Y001673D01*
X013021Y001672D02*
X012632Y001672D01*
X012632Y001671D02*
X013020Y001671D01*
X013020Y001670D02*
X012633Y001670D01*
X012633Y001669D02*
X013019Y001669D01*
X013019Y001668D02*
X012634Y001668D01*
X012634Y001667D02*
X013019Y001667D01*
X013018Y001666D02*
X012635Y001666D01*
X012635Y001665D02*
X013018Y001665D01*
X013017Y001664D02*
X012635Y001664D01*
X012636Y001663D02*
X013017Y001663D01*
X013016Y001662D02*
X012636Y001662D01*
X012637Y001661D02*
X013016Y001661D01*
X013016Y001660D02*
X012637Y001660D01*
X012638Y001659D02*
X013015Y001659D01*
X013015Y001658D02*
X012638Y001658D01*
X012638Y001657D02*
X013014Y001657D01*
X013014Y001656D02*
X012639Y001656D01*
X012639Y001655D02*
X013013Y001655D01*
X013013Y001654D02*
X012639Y001654D01*
X012640Y001653D02*
X013012Y001653D01*
X013012Y001652D02*
X012640Y001652D01*
X012640Y001651D02*
X013011Y001651D01*
X013011Y001650D02*
X012641Y001650D01*
X012641Y001649D02*
X013010Y001649D01*
X013010Y001648D02*
X012641Y001648D01*
X012642Y001647D02*
X013009Y001647D01*
X013009Y001646D02*
X012642Y001646D01*
X012642Y001645D02*
X013008Y001645D01*
X013008Y001644D02*
X012643Y001644D01*
X012643Y001643D02*
X013007Y001643D01*
X013007Y001642D02*
X012643Y001642D01*
X012644Y001641D02*
X013006Y001641D01*
X013006Y001640D02*
X012644Y001640D01*
X012644Y001639D02*
X013005Y001639D01*
X013005Y001638D02*
X012645Y001638D01*
X012645Y001637D02*
X013004Y001637D01*
X013004Y001636D02*
X012645Y001636D01*
M02*
