%
M48
M72
T01C0.0118
T02C0.0315
T03C0.0400
T04C0.0512
%
T01
X7799Y5394
X8726Y6828
X4583Y9059
X4065Y8875
X4436Y8363
X4425Y7077
X2832Y7872
X5237Y10526
X4934Y10746
X5895Y10533
X6459Y10723
X6474Y11599
X6028Y12227
X5655Y11754
X4544Y12542
X3379Y13697
X3058Y13652
X6848Y12994
X7862Y12086
X9709Y12168
X8817Y10461
T02
X1735Y4356
X1735Y5356
X1735Y6356
X1735Y7356
X1735Y8356
X1735Y9356
X1735Y10356
X1735Y11356
X6459Y12710
X11184Y11356
X11184Y10356
X11184Y9356
X11184Y8356
X11184Y7356
X11184Y6356
X11184Y5356
X11184Y4356
X6959Y2041
X5959Y2041
T03
X5459Y13606
X6459Y13606
X7459Y13606
T04
X8430Y13356
X10989Y13356
M30
