G75*
G70*
%OFA0B0*%
%FSLAX24Y24*%
%IPPOS*%
%LPD*%
%AMOC8*
5,1,8,0,0,1.08239X$1,22.5*
%
%ADD10C,0.0000*%
%ADD11C,0.0700*%
%ADD12R,0.0910X0.0280*%
%ADD13R,0.0800X0.0800*%
%ADD14C,0.0800*%
%ADD15C,0.0390*%
%ADD16R,0.0237X0.0190*%
%ADD17R,0.0237X0.0138*%
%ADD18R,0.0512X0.0355*%
D10*
X001553Y000683D02*
X001553Y013281D01*
X014151Y013281D01*
X014151Y000683D01*
X001553Y000683D01*
X012931Y010637D02*
X012933Y010663D01*
X012939Y010689D01*
X012948Y010713D01*
X012961Y010736D01*
X012978Y010756D01*
X012997Y010774D01*
X013019Y010789D01*
X013042Y010800D01*
X013067Y010808D01*
X013093Y010812D01*
X013119Y010812D01*
X013145Y010808D01*
X013170Y010800D01*
X013194Y010789D01*
X013215Y010774D01*
X013234Y010756D01*
X013251Y010736D01*
X013264Y010713D01*
X013273Y010689D01*
X013279Y010663D01*
X013281Y010637D01*
X013279Y010611D01*
X013273Y010585D01*
X013264Y010561D01*
X013251Y010538D01*
X013234Y010518D01*
X013215Y010500D01*
X013193Y010485D01*
X013170Y010474D01*
X013145Y010466D01*
X013119Y010462D01*
X013093Y010462D01*
X013067Y010466D01*
X013042Y010474D01*
X013018Y010485D01*
X012997Y010500D01*
X012978Y010518D01*
X012961Y010538D01*
X012948Y010561D01*
X012939Y010585D01*
X012933Y010611D01*
X012931Y010637D01*
X012531Y012637D02*
X012533Y012663D01*
X012539Y012689D01*
X012548Y012713D01*
X012561Y012736D01*
X012578Y012756D01*
X012597Y012774D01*
X012619Y012789D01*
X012642Y012800D01*
X012667Y012808D01*
X012693Y012812D01*
X012719Y012812D01*
X012745Y012808D01*
X012770Y012800D01*
X012794Y012789D01*
X012815Y012774D01*
X012834Y012756D01*
X012851Y012736D01*
X012864Y012713D01*
X012873Y012689D01*
X012879Y012663D01*
X012881Y012637D01*
X012879Y012611D01*
X012873Y012585D01*
X012864Y012561D01*
X012851Y012538D01*
X012834Y012518D01*
X012815Y012500D01*
X012793Y012485D01*
X012770Y012474D01*
X012745Y012466D01*
X012719Y012462D01*
X012693Y012462D01*
X012667Y012466D01*
X012642Y012474D01*
X012618Y012485D01*
X012597Y012500D01*
X012578Y012518D01*
X012561Y012538D01*
X012548Y012561D01*
X012539Y012585D01*
X012533Y012611D01*
X012531Y012637D01*
X013331Y012637D02*
X013333Y012663D01*
X013339Y012689D01*
X013348Y012713D01*
X013361Y012736D01*
X013378Y012756D01*
X013397Y012774D01*
X013419Y012789D01*
X013442Y012800D01*
X013467Y012808D01*
X013493Y012812D01*
X013519Y012812D01*
X013545Y012808D01*
X013570Y012800D01*
X013594Y012789D01*
X013615Y012774D01*
X013634Y012756D01*
X013651Y012736D01*
X013664Y012713D01*
X013673Y012689D01*
X013679Y012663D01*
X013681Y012637D01*
X013679Y012611D01*
X013673Y012585D01*
X013664Y012561D01*
X013651Y012538D01*
X013634Y012518D01*
X013615Y012500D01*
X013593Y012485D01*
X013570Y012474D01*
X013545Y012466D01*
X013519Y012462D01*
X013493Y012462D01*
X013467Y012466D01*
X013442Y012474D01*
X013418Y012485D01*
X013397Y012500D01*
X013378Y012518D01*
X013361Y012538D01*
X013348Y012561D01*
X013339Y012585D01*
X013333Y012611D01*
X013331Y012637D01*
D11*
X011356Y011710D03*
X010356Y011710D03*
X009356Y011710D03*
X008356Y011710D03*
X007356Y011710D03*
X006356Y011710D03*
X005356Y011710D03*
X004356Y011710D03*
X004356Y002261D03*
X005356Y002261D03*
X006356Y002261D03*
X007356Y002261D03*
X008356Y002261D03*
X009356Y002261D03*
X010356Y002261D03*
X011356Y002261D03*
D12*
X009671Y004736D03*
X009681Y005236D03*
X009681Y005736D03*
X009681Y006236D03*
X009681Y006736D03*
X009681Y007236D03*
X009681Y007736D03*
X009681Y008236D03*
X009681Y008736D03*
X009681Y009236D03*
X006031Y009236D03*
X006031Y008736D03*
X006031Y008236D03*
X006031Y007736D03*
X006031Y007236D03*
X006031Y006736D03*
X006031Y006236D03*
X006031Y005736D03*
X006031Y005236D03*
X006031Y004736D03*
D13*
X006856Y012486D03*
D14*
X007856Y012486D03*
X008856Y012486D03*
D15*
X012706Y012637D03*
X013506Y012637D03*
X013106Y010637D03*
D16*
X011448Y007777D03*
X010858Y007777D03*
X010858Y006399D03*
X011448Y006399D03*
D17*
X011448Y006596D03*
X011448Y006793D03*
X011448Y006990D03*
X011448Y007187D03*
X011448Y007383D03*
X011448Y007580D03*
X010858Y007580D03*
X010858Y007383D03*
X010858Y007187D03*
X010858Y006990D03*
X010858Y006793D03*
X010858Y006596D03*
D18*
X008356Y009881D03*
X008356Y010590D03*
X007356Y010590D03*
X007356Y009881D03*
X004356Y007340D03*
X004356Y006631D03*
M02*
