G75*
G70*
%OFA0B0*%
%FSLAX24Y24*%
%IPPOS*%
%LPD*%
%AMOC8*
5,1,8,0,0,1.08239X$1,22.5*
%
%ADD10C,0.0700*%
%ADD11R,0.0280X0.0910*%
%ADD12C,0.0555*%
%ADD13C,0.0390*%
%ADD14R,0.0355X0.0512*%
%ADD15R,0.0237X0.0296*%
%ADD16C,0.0808*%
%ADD17R,0.0800X0.0800*%
%ADD18C,0.0800*%
D10*
X001735Y004356D03*
X001735Y005356D03*
X001735Y006356D03*
X001735Y007356D03*
X001735Y008356D03*
X001735Y009356D03*
X001735Y010356D03*
X001735Y011356D03*
X011184Y011356D03*
X011184Y010356D03*
X011184Y009356D03*
X011184Y008356D03*
X011184Y007356D03*
X011184Y006356D03*
X011184Y005356D03*
X011184Y004356D03*
D11*
X008709Y006031D03*
X008209Y006031D03*
X007709Y006031D03*
X007209Y006031D03*
X006709Y006031D03*
X006209Y006031D03*
X005709Y006031D03*
X005209Y006031D03*
X004709Y006031D03*
X004209Y006031D03*
X004209Y009681D03*
X004709Y009681D03*
X005209Y009681D03*
X005709Y009681D03*
X006209Y009681D03*
X006709Y009681D03*
X007209Y009681D03*
X007709Y009681D03*
X008209Y009681D03*
X008709Y009671D03*
D12*
X006459Y012710D03*
X005959Y002041D03*
X006959Y002041D03*
D13*
X002308Y012706D03*
X002308Y013506D03*
X004308Y013106D03*
D14*
X009355Y012106D03*
X010063Y012106D03*
X003563Y008356D03*
X002855Y008356D03*
X002855Y007356D03*
X003563Y007356D03*
D15*
X005237Y010840D03*
X005552Y010840D03*
X005867Y010840D03*
X006182Y010840D03*
X006737Y010840D03*
X007052Y010840D03*
X007367Y010840D03*
X007682Y010840D03*
X007682Y011372D03*
X007367Y011372D03*
X007052Y011372D03*
X006737Y011372D03*
X006182Y011372D03*
X005867Y011372D03*
X005552Y011372D03*
X005237Y011372D03*
D16*
X008430Y013356D03*
X010989Y013356D03*
D17*
X005459Y013606D03*
D18*
X006459Y013606D03*
X007459Y013606D03*
M02*
