G75*
G70*
%OFA0B0*%
%FSLAX24Y24*%
%IPPOS*%
%LPD*%
%AMOC8*
5,1,8,0,0,1.08239X$1,22.5*
%
%ADD10C,0.1221*%
%ADD11C,0.0700*%
%ADD12C,0.0473*%
%ADD13C,0.0642*%
%ADD14C,0.0780*%
%ADD15R,0.0300X0.0840*%
%ADD16R,0.0631X0.0434*%
%ADD17R,0.0355X0.0512*%
%ADD18R,0.0512X0.0355*%
%ADD19C,0.0000*%
%ADD20C,0.0001*%
D10*
X004750Y001750D03*
X016250Y001750D03*
X016250Y016750D03*
X004750Y016750D03*
D11*
X005776Y012750D03*
X005776Y011750D03*
X005776Y010750D03*
X005776Y009750D03*
X005776Y008750D03*
X005776Y007750D03*
X005776Y006750D03*
X005776Y005750D03*
X015224Y005750D03*
X015224Y006750D03*
X015224Y007750D03*
X015224Y008750D03*
X015224Y009750D03*
X015224Y010750D03*
X015224Y011750D03*
X015224Y012750D03*
D12*
X007848Y014250D03*
X007348Y014250D03*
X006848Y014250D03*
X006848Y014750D03*
X007348Y014750D03*
X007848Y014750D03*
D13*
X009500Y015000D03*
X010500Y015000D03*
X010500Y014105D03*
X011500Y015000D03*
X011000Y003440D03*
X010000Y003440D03*
D14*
X001500Y001500D03*
X001500Y002500D03*
X001500Y003500D03*
X001500Y004500D03*
X001500Y005500D03*
X001500Y006500D03*
X001500Y007500D03*
X001500Y008500D03*
X001500Y010000D03*
X001500Y011000D03*
X001500Y012000D03*
X001500Y013000D03*
X001500Y014000D03*
X001500Y015000D03*
X001500Y016000D03*
X001500Y017000D03*
X020500Y017000D03*
X020500Y016000D03*
X020500Y015000D03*
X020500Y014000D03*
X020500Y013000D03*
X020500Y012000D03*
X020500Y010000D03*
X020500Y009000D03*
X020500Y008000D03*
X020500Y007000D03*
X020500Y006000D03*
X020500Y005000D03*
D15*
X014500Y008040D03*
X014000Y008040D03*
X013500Y008040D03*
X013000Y008040D03*
X012500Y008040D03*
X012000Y008040D03*
X011500Y008040D03*
X011000Y008040D03*
X010000Y008040D03*
X009500Y008040D03*
X009000Y008040D03*
X008500Y008040D03*
X008000Y008040D03*
X007500Y008040D03*
X007000Y008040D03*
X006500Y008040D03*
X006500Y010460D03*
X007000Y010460D03*
X007500Y010460D03*
X008000Y010460D03*
X008500Y010460D03*
X009000Y010460D03*
X009500Y010460D03*
X010000Y010460D03*
X011000Y010460D03*
X011500Y010460D03*
X012000Y010460D03*
X012500Y010460D03*
X013000Y010460D03*
X013500Y010460D03*
X014000Y010460D03*
X014500Y010460D03*
D16*
X013939Y002526D03*
X013939Y001974D03*
X012561Y001974D03*
X012561Y002526D03*
X011189Y002526D03*
X011189Y001974D03*
X009811Y001974D03*
X009811Y002526D03*
X008439Y002526D03*
X008439Y001974D03*
X007061Y001974D03*
X007061Y002526D03*
D17*
X018396Y012000D03*
X019104Y012000D03*
X019104Y013000D03*
X018396Y013000D03*
X018396Y014000D03*
X019104Y014000D03*
X003354Y014000D03*
X002646Y014000D03*
X002646Y013000D03*
X003354Y013000D03*
D18*
X005000Y009604D03*
X005000Y008896D03*
X016000Y008896D03*
X016000Y009604D03*
D19*
X018622Y002874D02*
X018654Y002874D01*
X018906Y002874D01*
X018913Y002846D01*
X018925Y002819D01*
X018937Y002787D01*
X018945Y002760D01*
X018957Y002732D01*
X018965Y002705D01*
X018976Y002677D01*
X018965Y002654D01*
X018953Y002626D01*
X018945Y002602D01*
X018587Y002602D01*
X018575Y002626D01*
X018563Y002654D01*
X018551Y002677D01*
X018563Y002705D01*
X018571Y002732D01*
X018583Y002760D01*
X018594Y002787D01*
X018602Y002819D01*
X018614Y002846D01*
X018622Y002874D01*
D20*
X018906Y002874D01*
X018906Y002873D02*
X018622Y002873D01*
X018621Y002872D02*
X018906Y002872D01*
X018906Y002871D02*
X018621Y002871D01*
X018621Y002870D02*
X018907Y002870D01*
X018907Y002869D02*
X018621Y002869D01*
X018620Y002868D02*
X018907Y002868D01*
X018908Y002867D02*
X018620Y002867D01*
X018620Y002866D02*
X018908Y002866D01*
X018908Y002865D02*
X018619Y002865D01*
X018619Y002864D02*
X018908Y002864D01*
X018909Y002863D02*
X018619Y002863D01*
X018619Y002862D02*
X018909Y002862D01*
X018909Y002861D02*
X018618Y002861D01*
X018618Y002860D02*
X018910Y002860D01*
X018910Y002859D02*
X018618Y002859D01*
X018617Y002858D02*
X018910Y002858D01*
X018910Y002857D02*
X018617Y002857D01*
X018617Y002856D02*
X018911Y002856D01*
X018911Y002855D02*
X018617Y002855D01*
X018616Y002854D02*
X018911Y002854D01*
X018912Y002853D02*
X018616Y002853D01*
X018616Y002852D02*
X018912Y002852D01*
X018912Y002851D02*
X018615Y002851D01*
X018615Y002850D02*
X018912Y002850D01*
X018913Y002849D02*
X018615Y002849D01*
X018615Y002848D02*
X018913Y002848D01*
X018913Y002847D02*
X018614Y002847D01*
X018614Y002846D02*
X018914Y002846D01*
X018914Y002845D02*
X018613Y002845D01*
X018613Y002844D02*
X018915Y002844D01*
X018915Y002843D02*
X018613Y002843D01*
X018612Y002842D02*
X018915Y002842D01*
X018916Y002841D02*
X018612Y002841D01*
X018611Y002840D02*
X018916Y002840D01*
X018917Y002839D02*
X018611Y002839D01*
X018610Y002838D02*
X018917Y002838D01*
X018918Y002837D02*
X018610Y002837D01*
X018610Y002836D02*
X018918Y002836D01*
X018918Y002835D02*
X018609Y002835D01*
X018609Y002834D02*
X018919Y002834D01*
X018919Y002833D02*
X018608Y002833D01*
X018608Y002832D02*
X018920Y002832D01*
X018920Y002831D02*
X018607Y002831D01*
X018607Y002830D02*
X018921Y002830D01*
X018921Y002829D02*
X018607Y002829D01*
X018606Y002828D02*
X018921Y002828D01*
X018922Y002827D02*
X018606Y002827D01*
X018605Y002826D02*
X018922Y002826D01*
X018923Y002825D02*
X018605Y002825D01*
X018604Y002824D02*
X018923Y002824D01*
X018924Y002823D02*
X018604Y002823D01*
X018604Y002822D02*
X018924Y002822D01*
X018924Y002821D02*
X018603Y002821D01*
X018603Y002820D02*
X018925Y002820D01*
X018925Y002819D02*
X018602Y002819D01*
X018602Y002818D02*
X018926Y002818D01*
X018926Y002817D02*
X018602Y002817D01*
X018602Y002816D02*
X018926Y002816D01*
X018927Y002815D02*
X018601Y002815D01*
X018601Y002814D02*
X018927Y002814D01*
X018928Y002813D02*
X018601Y002813D01*
X018601Y002812D02*
X018928Y002812D01*
X018928Y002811D02*
X018600Y002811D01*
X018600Y002810D02*
X018929Y002810D01*
X018929Y002809D02*
X018600Y002809D01*
X018600Y002808D02*
X018929Y002808D01*
X018930Y002807D02*
X018599Y002807D01*
X018599Y002806D02*
X018930Y002806D01*
X018931Y002805D02*
X018599Y002805D01*
X018599Y002804D02*
X018931Y002804D01*
X018931Y002803D02*
X018598Y002803D01*
X018598Y002802D02*
X018932Y002802D01*
X018932Y002801D02*
X018598Y002801D01*
X018598Y002800D02*
X018932Y002800D01*
X018933Y002799D02*
X018597Y002799D01*
X018597Y002798D02*
X018933Y002798D01*
X018934Y002797D02*
X018597Y002797D01*
X018597Y002796D02*
X018934Y002796D01*
X018934Y002795D02*
X018596Y002795D01*
X018596Y002794D02*
X018935Y002794D01*
X018935Y002793D02*
X018596Y002793D01*
X018596Y002792D02*
X018935Y002792D01*
X018936Y002791D02*
X018595Y002791D01*
X018595Y002790D02*
X018936Y002790D01*
X018937Y002789D02*
X018595Y002789D01*
X018595Y002788D02*
X018937Y002788D01*
X018937Y002787D02*
X018594Y002787D01*
X018594Y002786D02*
X018937Y002786D01*
X018938Y002785D02*
X018593Y002785D01*
X018593Y002784D02*
X018938Y002784D01*
X018938Y002783D02*
X018592Y002783D01*
X018592Y002782D02*
X018939Y002782D01*
X018939Y002781D02*
X018592Y002781D01*
X018591Y002780D02*
X018939Y002780D01*
X018939Y002779D02*
X018591Y002779D01*
X018590Y002778D02*
X018940Y002778D01*
X018940Y002777D02*
X018590Y002777D01*
X018589Y002776D02*
X018940Y002776D01*
X018941Y002775D02*
X018589Y002775D01*
X018589Y002774D02*
X018941Y002774D01*
X018941Y002773D02*
X018588Y002773D01*
X018588Y002772D02*
X018941Y002772D01*
X018942Y002771D02*
X018587Y002771D01*
X018587Y002770D02*
X018942Y002770D01*
X018942Y002769D02*
X018587Y002769D01*
X018586Y002768D02*
X018943Y002768D01*
X018943Y002767D02*
X018586Y002767D01*
X018585Y002766D02*
X018943Y002766D01*
X018943Y002765D02*
X018585Y002765D01*
X018584Y002764D02*
X018944Y002764D01*
X018944Y002763D02*
X018584Y002763D01*
X018584Y002762D02*
X018944Y002762D01*
X018945Y002761D02*
X018583Y002761D01*
X018583Y002760D02*
X018945Y002760D01*
X018945Y002759D02*
X018582Y002759D01*
X018582Y002758D02*
X018946Y002758D01*
X018946Y002757D02*
X018581Y002757D01*
X018581Y002756D02*
X018947Y002756D01*
X018947Y002755D02*
X018581Y002755D01*
X018580Y002754D02*
X018947Y002754D01*
X018948Y002753D02*
X018580Y002753D01*
X018579Y002752D02*
X018948Y002752D01*
X018949Y002751D02*
X018579Y002751D01*
X018578Y002750D02*
X018949Y002750D01*
X018950Y002749D02*
X018578Y002749D01*
X018578Y002748D02*
X018950Y002748D01*
X018950Y002747D02*
X018577Y002747D01*
X018577Y002746D02*
X018951Y002746D01*
X018951Y002745D02*
X018576Y002745D01*
X018576Y002744D02*
X018952Y002744D01*
X018952Y002743D02*
X018575Y002743D01*
X018575Y002742D02*
X018953Y002742D01*
X018953Y002741D02*
X018575Y002741D01*
X018574Y002740D02*
X018953Y002740D01*
X018954Y002739D02*
X018574Y002739D01*
X018573Y002738D02*
X018954Y002738D01*
X018955Y002737D02*
X018573Y002737D01*
X018572Y002736D02*
X018955Y002736D01*
X018956Y002735D02*
X018572Y002735D01*
X018572Y002734D02*
X018956Y002734D01*
X018956Y002733D02*
X018571Y002733D01*
X018571Y002732D02*
X018957Y002732D01*
X018957Y002731D02*
X018570Y002731D01*
X018570Y002730D02*
X018957Y002730D01*
X018958Y002729D02*
X018570Y002729D01*
X018570Y002728D02*
X018958Y002728D01*
X018958Y002727D02*
X018569Y002727D01*
X018569Y002726D02*
X018959Y002726D01*
X018959Y002725D02*
X018569Y002725D01*
X018568Y002724D02*
X018959Y002724D01*
X018959Y002723D02*
X018568Y002723D01*
X018568Y002722D02*
X018960Y002722D01*
X018960Y002721D02*
X018568Y002721D01*
X018567Y002720D02*
X018960Y002720D01*
X018961Y002719D02*
X018567Y002719D01*
X018567Y002718D02*
X018961Y002718D01*
X018961Y002717D02*
X018566Y002717D01*
X018566Y002716D02*
X018961Y002716D01*
X018962Y002715D02*
X018566Y002715D01*
X018566Y002714D02*
X018962Y002714D01*
X018962Y002713D02*
X018565Y002713D01*
X018565Y002712D02*
X018963Y002712D01*
X018963Y002711D02*
X018565Y002711D01*
X018564Y002710D02*
X018963Y002710D01*
X018963Y002709D02*
X018564Y002709D01*
X018564Y002708D02*
X018964Y002708D01*
X018964Y002707D02*
X018564Y002707D01*
X018563Y002706D02*
X018964Y002706D01*
X018965Y002705D02*
X018563Y002705D01*
X018563Y002704D02*
X018965Y002704D01*
X018965Y002703D02*
X018562Y002703D01*
X018562Y002702D02*
X018966Y002702D01*
X018966Y002701D02*
X018561Y002701D01*
X018561Y002700D02*
X018967Y002700D01*
X018967Y002699D02*
X018560Y002699D01*
X018560Y002698D02*
X018968Y002698D01*
X018968Y002697D02*
X018560Y002697D01*
X018559Y002696D02*
X018968Y002696D01*
X018969Y002695D02*
X018559Y002695D01*
X018558Y002694D02*
X018969Y002694D01*
X018970Y002693D02*
X018558Y002693D01*
X018557Y002692D02*
X018970Y002692D01*
X018971Y002691D02*
X018557Y002691D01*
X018557Y002690D02*
X018971Y002690D01*
X018971Y002689D02*
X018556Y002689D01*
X018556Y002688D02*
X018972Y002688D01*
X018972Y002687D02*
X018555Y002687D01*
X018555Y002686D02*
X018973Y002686D01*
X018973Y002685D02*
X018554Y002685D01*
X018554Y002684D02*
X018974Y002684D01*
X018974Y002683D02*
X018554Y002683D01*
X018553Y002682D02*
X018974Y002682D01*
X018975Y002681D02*
X018553Y002681D01*
X018552Y002680D02*
X018975Y002680D01*
X018976Y002679D02*
X018552Y002679D01*
X018551Y002678D02*
X018976Y002678D01*
X018976Y002677D02*
X018551Y002677D01*
X018552Y002676D02*
X018976Y002676D01*
X018975Y002675D02*
X018552Y002675D01*
X018553Y002674D02*
X018975Y002674D01*
X018974Y002673D02*
X018553Y002673D01*
X018554Y002672D02*
X018974Y002672D01*
X018973Y002671D02*
X018554Y002671D01*
X018555Y002670D02*
X018973Y002670D01*
X018972Y002669D02*
X018555Y002669D01*
X018556Y002668D02*
X018972Y002668D01*
X018971Y002667D02*
X018556Y002667D01*
X018557Y002666D02*
X018971Y002666D01*
X018970Y002665D02*
X018557Y002665D01*
X018558Y002664D02*
X018970Y002664D01*
X018969Y002663D02*
X018558Y002663D01*
X018559Y002662D02*
X018969Y002662D01*
X018968Y002661D02*
X018559Y002661D01*
X018560Y002660D02*
X018968Y002660D01*
X018967Y002659D02*
X018560Y002659D01*
X018561Y002658D02*
X018967Y002658D01*
X018966Y002657D02*
X018561Y002657D01*
X018562Y002656D02*
X018966Y002656D01*
X018965Y002655D02*
X018562Y002655D01*
X018563Y002654D02*
X018965Y002654D01*
X018964Y002653D02*
X018563Y002653D01*
X018564Y002652D02*
X018964Y002652D01*
X018963Y002651D02*
X018564Y002651D01*
X018565Y002650D02*
X018963Y002650D01*
X018963Y002649D02*
X018565Y002649D01*
X018565Y002648D02*
X018962Y002648D01*
X018962Y002647D02*
X018566Y002647D01*
X018566Y002646D02*
X018961Y002646D01*
X018961Y002645D02*
X018567Y002645D01*
X018567Y002644D02*
X018960Y002644D01*
X018960Y002643D02*
X018568Y002643D01*
X018568Y002642D02*
X018960Y002642D01*
X018959Y002641D02*
X018568Y002641D01*
X018569Y002640D02*
X018959Y002640D01*
X018958Y002639D02*
X018569Y002639D01*
X018570Y002638D02*
X018958Y002638D01*
X018957Y002637D02*
X018570Y002637D01*
X018571Y002636D02*
X018957Y002636D01*
X018957Y002635D02*
X018571Y002635D01*
X018571Y002634D02*
X018956Y002634D01*
X018956Y002633D02*
X018572Y002633D01*
X018572Y002632D02*
X018955Y002632D01*
X018955Y002631D02*
X018573Y002631D01*
X018573Y002630D02*
X018954Y002630D01*
X018954Y002629D02*
X018574Y002629D01*
X018574Y002628D02*
X018954Y002628D01*
X018953Y002627D02*
X018574Y002627D01*
X018575Y002626D02*
X018953Y002626D01*
X018952Y002625D02*
X018575Y002625D01*
X018576Y002624D02*
X018952Y002624D01*
X018952Y002623D02*
X018576Y002623D01*
X018577Y002622D02*
X018951Y002622D01*
X018951Y002621D02*
X018577Y002621D01*
X018578Y002620D02*
X018951Y002620D01*
X018950Y002619D02*
X018578Y002619D01*
X018579Y002618D02*
X018950Y002618D01*
X018950Y002617D02*
X018579Y002617D01*
X018580Y002616D02*
X018949Y002616D01*
X018949Y002615D02*
X018580Y002615D01*
X018581Y002614D02*
X018949Y002614D01*
X018948Y002613D02*
X018581Y002613D01*
X018582Y002612D02*
X018948Y002612D01*
X018948Y002611D02*
X018582Y002611D01*
X018583Y002610D02*
X018947Y002610D01*
X018947Y002609D02*
X018583Y002609D01*
X018584Y002608D02*
X018947Y002608D01*
X018946Y002607D02*
X018584Y002607D01*
X018585Y002606D02*
X018946Y002606D01*
X018946Y002605D02*
X018585Y002605D01*
X018586Y002604D02*
X018945Y002604D01*
X018945Y002603D02*
X018586Y002603D01*
M02*
