G75*
G70*
%OFA0B0*%
%FSLAX24Y24*%
%IPPOS*%
%LPD*%
%AMOC8*
5,1,8,0,0,1.08239X$1,22.5*
%
%ADD10C,0.1221*%
%ADD11C,0.0700*%
%ADD12C,0.0473*%
%ADD13C,0.0642*%
%ADD14C,0.0780*%
D10*
X004750Y001750D03*
X016250Y001750D03*
X016250Y016750D03*
X004750Y016750D03*
D11*
X005776Y012750D03*
X005776Y011750D03*
X005776Y010750D03*
X005776Y009750D03*
X005776Y008750D03*
X005776Y007750D03*
X005776Y006750D03*
X005776Y005750D03*
X015224Y005750D03*
X015224Y006750D03*
X015224Y007750D03*
X015224Y008750D03*
X015224Y009750D03*
X015224Y010750D03*
X015224Y011750D03*
X015224Y012750D03*
D12*
X007848Y014250D03*
X007348Y014250D03*
X006848Y014250D03*
X006848Y014750D03*
X007348Y014750D03*
X007848Y014750D03*
D13*
X009500Y015000D03*
X010500Y015000D03*
X010500Y014105D03*
X011500Y015000D03*
X011000Y003440D03*
X010000Y003440D03*
D14*
X001500Y001500D03*
X001500Y002500D03*
X001500Y003500D03*
X001500Y004500D03*
X001500Y005500D03*
X001500Y006500D03*
X001500Y007500D03*
X001500Y008500D03*
X001500Y010000D03*
X001500Y011000D03*
X001500Y012000D03*
X001500Y013000D03*
X001500Y014000D03*
X001500Y015000D03*
X001500Y016000D03*
X001500Y017000D03*
X020500Y017000D03*
X020500Y016000D03*
X020500Y015000D03*
X020500Y014000D03*
X020500Y013000D03*
X020500Y012000D03*
X020500Y010000D03*
X020500Y009000D03*
X020500Y008000D03*
X020500Y007000D03*
X020500Y006000D03*
X020500Y005000D03*
M02*
