%
M48
M72
T01C0.0120
T02C0.0268
T03C0.0400
T04C0.0402
%
T01
X7194Y7413
X5493Y8250
X7624Y11092
X9301Y9740
X9594Y12329
X8701Y12979
X12908Y11328
X13053Y11676
X13728Y11127
X13715Y8667
X17814Y9297
X17963Y8884
X4335Y13204
T02
X6848Y14250
X7348Y14250
X7348Y14750
X6848Y14750
X7848Y14750
X7848Y14250
T03
X1500Y1500
X1500Y2500
X1500Y3500
X1500Y4500
X1500Y5500
X1500Y6500
X1500Y7500
X1500Y8500
X1500Y10000
X1500Y11000
X1500Y12000
X1500Y13000
X1500Y14000
X1500Y15000
X1500Y16000
X1500Y17000
X20500Y17000
X20500Y16000
X20500Y15000
X20500Y14000
X20500Y13000
X20500Y12000
X20500Y10000
X20500Y9000
X20500Y8000
X20500Y7000
X20500Y6000
X20500Y5000
T04
X15224Y5750
X15224Y6750
X15224Y7750
X15224Y8750
X15224Y9750
X15224Y10750
X15224Y11750
X15224Y12750
X11500Y15000
X10500Y15000
X10500Y14105
X9500Y15000
X5776Y12750
X5776Y11750
X5776Y10750
X5776Y9750
X5776Y8750
X5776Y7750
X5776Y6750
X5776Y5750
X10000Y3440
X11000Y3440
M30
